%TF.GenerationSoftware,KiCad,Pcbnew,(5.1.9-0-10_14)*%
%TF.CreationDate,2021-06-12T10:18:14-06:00*%
%TF.ProjectId,template,74656d70-6c61-4746-952e-6b696361645f,rev?*%
%TF.SameCoordinates,Original*%
%TF.FileFunction,Copper,L2,Bot*%
%TF.FilePolarity,Positive*%
%FSLAX46Y46*%
G04 Gerber Fmt 4.6, Leading zero omitted, Abs format (unit mm)*
G04 Created by KiCad (PCBNEW (5.1.9-0-10_14)) date 2021-06-12 10:18:14*
%MOMM*%
%LPD*%
G01*
G04 APERTURE LIST*
%TA.AperFunction,ComponentPad*%
%ADD10C,1.800000*%
%TD*%
%TA.AperFunction,ComponentPad*%
%ADD11O,1.700000X1.700000*%
%TD*%
%TA.AperFunction,ComponentPad*%
%ADD12R,1.700000X1.700000*%
%TD*%
%TA.AperFunction,ComponentPad*%
%ADD13C,3.000000*%
%TD*%
%TA.AperFunction,ComponentPad*%
%ADD14O,1.700000X2.000000*%
%TD*%
%TA.AperFunction,ComponentPad*%
%ADD15O,1.600000X1.600000*%
%TD*%
%TA.AperFunction,ComponentPad*%
%ADD16R,1.600000X1.600000*%
%TD*%
%TA.AperFunction,ComponentPad*%
%ADD17C,1.500000*%
%TD*%
%TA.AperFunction,ViaPad*%
%ADD18C,0.800000*%
%TD*%
%TA.AperFunction,ViaPad*%
%ADD19C,0.600000*%
%TD*%
%TA.AperFunction,Conductor*%
%ADD20C,0.500000*%
%TD*%
%TA.AperFunction,Conductor*%
%ADD21C,0.250000*%
%TD*%
%TA.AperFunction,Conductor*%
%ADD22C,0.254000*%
%TD*%
%TA.AperFunction,Conductor*%
%ADD23C,0.100000*%
%TD*%
G04 APERTURE END LIST*
D10*
%TO.P,RV6,1*%
%TO.N,GND*%
X102580000Y-108000000D03*
%TO.P,RV6,3*%
%TO.N,/preset_3_out_b*%
X92420000Y-108000000D03*
%TO.P,RV6,2*%
%TO.N,/return*%
X97500000Y-108000000D03*
%TD*%
D11*
%TO.P,J4,6*%
%TO.N,GND*%
X129720000Y-75700000D03*
%TO.P,J4,5*%
%TO.N,/rst*%
X129720000Y-73160000D03*
%TO.P,J4,4*%
%TO.N,/bypass_switch*%
X132260000Y-75700000D03*
%TO.P,J4,3*%
%TO.N,/bypass_led*%
X132260000Y-73160000D03*
%TO.P,J4,2*%
%TO.N,/5V*%
X134800000Y-75700000D03*
D12*
%TO.P,J4,1*%
%TO.N,/miso*%
X134800000Y-73160000D03*
%TD*%
D13*
%TO.P,J3,TN*%
%TO.N,N/C*%
X176005000Y-70225000D03*
%TO.P,J3,SN*%
X176005000Y-57525000D03*
%TO.P,J3,T*%
%TO.N,/out*%
X159775000Y-70225000D03*
%TO.P,J3,S*%
%TO.N,GND*%
X159775000Y-57525000D03*
%TD*%
D10*
%TO.P,RV4,1*%
%TO.N,/preset_2_out_b*%
X137580000Y-108000000D03*
%TO.P,RV4,3*%
%TO.N,/effect/tone_pin_3*%
X127420000Y-108000000D03*
%TO.P,RV4,2*%
%TO.N,/effect/tone_pin_2*%
X132500000Y-108000000D03*
%TD*%
D14*
%TO.P,SW2,2*%
%TO.N,/miso*%
X152200000Y-110400000D03*
%TO.P,SW2,1*%
%TO.N,GND*%
%TA.AperFunction,ComponentPad*%
G36*
G01*
X148850000Y-111150000D02*
X148850000Y-109650000D01*
G75*
G02*
X149100000Y-109400000I250000J0D01*
G01*
X150300000Y-109400000D01*
G75*
G02*
X150550000Y-109650000I0J-250000D01*
G01*
X150550000Y-111150000D01*
G75*
G02*
X150300000Y-111400000I-250000J0D01*
G01*
X149100000Y-111400000D01*
G75*
G02*
X148850000Y-111150000I0J250000D01*
G01*
G37*
%TD.AperFunction*%
%TD*%
%TO.P,SW1,2*%
%TO.N,/bypass_switch*%
X115500000Y-110400000D03*
%TO.P,SW1,1*%
%TO.N,GND*%
%TA.AperFunction,ComponentPad*%
G36*
G01*
X112150000Y-111150000D02*
X112150000Y-109650000D01*
G75*
G02*
X112400000Y-109400000I250000J0D01*
G01*
X113600000Y-109400000D01*
G75*
G02*
X113850000Y-109650000I0J-250000D01*
G01*
X113850000Y-111150000D01*
G75*
G02*
X113600000Y-111400000I-250000J0D01*
G01*
X112400000Y-111400000D01*
G75*
G02*
X112150000Y-111150000I0J250000D01*
G01*
G37*
%TD.AperFunction*%
%TD*%
D10*
%TO.P,RV3,1*%
%TO.N,/preset_2_out_a*%
X137580000Y-80000000D03*
%TO.P,RV3,3*%
%TO.N,/effect/tone_pin_3*%
X127420000Y-80000000D03*
%TO.P,RV3,2*%
%TO.N,/effect/tone_pin_2*%
X132500000Y-80000000D03*
%TD*%
D15*
%TO.P,D5,2*%
%TO.N,Net-(C8-Pad1)*%
X148950000Y-95795000D03*
D16*
%TO.P,D5,1*%
%TO.N,/effect/gain_out*%
X148950000Y-88175000D03*
%TD*%
D15*
%TO.P,D6,2*%
%TO.N,/effect/gain_out*%
X153700000Y-95770000D03*
D16*
%TO.P,D6,1*%
%TO.N,Net-(D4-Pad2)*%
X153700000Y-88150000D03*
%TD*%
D10*
%TO.P,RV1,1*%
%TO.N,/preset_1_out_a*%
X172580000Y-108000000D03*
%TO.P,RV1,3*%
%TO.N,Net-(RV1-Pad3)*%
X162420000Y-108000000D03*
%TO.P,RV1,2*%
%TO.N,/effect/gain_out*%
X167500000Y-108000000D03*
%TD*%
%TO.P,D3,2*%
%TO.N,Net-(D3-Pad2)*%
X168770000Y-112725000D03*
%TO.P,D3,1*%
%TO.N,GND*%
%TA.AperFunction,ComponentPad*%
G36*
G01*
X165330000Y-113175000D02*
X165330000Y-112275000D01*
G75*
G02*
X165780000Y-111825000I450000J0D01*
G01*
X166680000Y-111825000D01*
G75*
G02*
X167130000Y-112275000I0J-450000D01*
G01*
X167130000Y-113175000D01*
G75*
G02*
X166680000Y-113625000I-450000J0D01*
G01*
X165780000Y-113625000D01*
G75*
G02*
X165330000Y-113175000I0J450000D01*
G01*
G37*
%TD.AperFunction*%
%TD*%
%TO.P,D2,2*%
%TO.N,Net-(D2-Pad2)*%
X98770000Y-112725000D03*
%TO.P,D2,1*%
%TO.N,GND*%
%TA.AperFunction,ComponentPad*%
G36*
G01*
X95330000Y-113175000D02*
X95330000Y-112275000D01*
G75*
G02*
X95780000Y-111825000I450000J0D01*
G01*
X96680000Y-111825000D01*
G75*
G02*
X97130000Y-112275000I0J-450000D01*
G01*
X97130000Y-113175000D01*
G75*
G02*
X96680000Y-113625000I-450000J0D01*
G01*
X95780000Y-113625000D01*
G75*
G02*
X95330000Y-113175000I0J450000D01*
G01*
G37*
%TD.AperFunction*%
%TD*%
%TO.P,RV5,1*%
%TO.N,GND*%
X102580000Y-80000000D03*
%TO.P,RV5,3*%
%TO.N,/preset_3_out_a*%
X92420000Y-80000000D03*
%TO.P,RV5,2*%
%TO.N,/return*%
X97500000Y-80000000D03*
%TD*%
%TO.P,RV2,1*%
%TO.N,/preset_1_out_b*%
X172580000Y-80000000D03*
%TO.P,RV2,3*%
%TO.N,Net-(RV2-Pad3)*%
X162420000Y-80000000D03*
%TO.P,RV2,2*%
%TO.N,/effect/gain_out*%
X167500000Y-80000000D03*
%TD*%
D17*
%TO.P,K3,12*%
%TO.N,/relay_3*%
X125505000Y-88675000D03*
%TO.P,K3,10*%
%TO.N,/preset_2_out_a*%
X125505000Y-93755000D03*
%TO.P,K3,9*%
%TO.N,/preset_2_in*%
X125505000Y-96295000D03*
%TO.P,K3,8*%
%TO.N,/preset_2_out_b*%
X125505000Y-98835000D03*
%TO.P,K3,5*%
%TO.N,/preset_3_out_b*%
X120425000Y-98835000D03*
%TO.P,K3,4*%
%TO.N,/preset_3_in*%
X120425000Y-96295000D03*
%TO.P,K3,3*%
%TO.N,/preset_3_out_a*%
X120425000Y-93755000D03*
%TO.P,K3,1*%
%TO.N,/5V*%
%TA.AperFunction,ComponentPad*%
G36*
G01*
X119675000Y-89174500D02*
X119675000Y-88175500D01*
G75*
G02*
X119925500Y-87925000I250500J0D01*
G01*
X120924500Y-87925000D01*
G75*
G02*
X121175000Y-88175500I0J-250500D01*
G01*
X121175000Y-89174500D01*
G75*
G02*
X120924500Y-89425000I-250500J0D01*
G01*
X119925500Y-89425000D01*
G75*
G02*
X119675000Y-89174500I0J250500D01*
G01*
G37*
%TD.AperFunction*%
%TD*%
%TO.P,K2,12*%
%TO.N,/relay_2*%
X173705000Y-88675000D03*
%TO.P,K2,10*%
%TO.N,Net-(K2-Pad10)*%
X173705000Y-93755000D03*
%TO.P,K2,9*%
%TO.N,/5V*%
X173705000Y-96295000D03*
%TO.P,K2,8*%
%TO.N,/preset_led*%
X173705000Y-98835000D03*
%TO.P,K2,5*%
%TO.N,/preset_1_out_b*%
X168625000Y-98835000D03*
%TO.P,K2,4*%
%TO.N,/preset_1_in*%
X168625000Y-96295000D03*
%TO.P,K2,3*%
%TO.N,/preset_1_out_a*%
X168625000Y-93755000D03*
%TO.P,K2,1*%
%TO.N,/5V*%
%TA.AperFunction,ComponentPad*%
G36*
G01*
X167875000Y-89174500D02*
X167875000Y-88175500D01*
G75*
G02*
X168125500Y-87925000I250500J0D01*
G01*
X169124500Y-87925000D01*
G75*
G02*
X169375000Y-88175500I0J-250500D01*
G01*
X169375000Y-89174500D01*
G75*
G02*
X169124500Y-89425000I-250500J0D01*
G01*
X168125500Y-89425000D01*
G75*
G02*
X167875000Y-89174500I0J250500D01*
G01*
G37*
%TD.AperFunction*%
%TD*%
%TO.P,K1,12*%
%TO.N,/relay_1*%
X116480000Y-53575000D03*
%TO.P,K1,10*%
%TO.N,Net-(K1-Pad10)*%
X116480000Y-58655000D03*
%TO.P,K1,9*%
%TO.N,/out*%
X116480000Y-61195000D03*
%TO.P,K1,8*%
%TO.N,/return*%
X116480000Y-63735000D03*
%TO.P,K1,5*%
%TO.N,/send*%
X111400000Y-63735000D03*
%TO.P,K1,4*%
%TO.N,/in*%
X111400000Y-61195000D03*
%TO.P,K1,3*%
%TO.N,Net-(K1-Pad10)*%
X111400000Y-58655000D03*
%TO.P,K1,1*%
%TO.N,/5V*%
%TA.AperFunction,ComponentPad*%
G36*
G01*
X110650000Y-54074500D02*
X110650000Y-53075500D01*
G75*
G02*
X110900500Y-52825000I250500J0D01*
G01*
X111899500Y-52825000D01*
G75*
G02*
X112150000Y-53075500I0J-250500D01*
G01*
X112150000Y-54074500D01*
G75*
G02*
X111899500Y-54325000I-250500J0D01*
G01*
X110900500Y-54325000D01*
G75*
G02*
X110650000Y-54074500I0J250500D01*
G01*
G37*
%TD.AperFunction*%
%TD*%
D13*
%TO.P,J2,TN*%
%TO.N,N/C*%
X105230000Y-70225001D03*
%TO.P,J2,SN*%
X105230000Y-57525001D03*
%TO.P,J2,T*%
%TO.N,/in*%
X89000000Y-70225001D03*
%TO.P,J2,S*%
%TO.N,GND*%
X89000000Y-57525001D03*
%TD*%
D11*
%TO.P,J1,2*%
%TO.N,Net-(D1-Pad2)*%
X133540000Y-68300000D03*
D12*
%TO.P,J1,1*%
%TO.N,GND*%
X131000000Y-68300000D03*
%TD*%
D18*
%TO.N,/5V*%
X151225000Y-57600000D03*
X149225000Y-55925000D03*
X153000000Y-55925000D03*
X151150000Y-55975000D03*
D19*
X148375000Y-73325000D03*
X150800000Y-73300000D03*
X155325000Y-73725000D03*
X155300000Y-78350000D03*
D18*
%TO.N,9V*%
X153875001Y-84199999D03*
X139800000Y-84174996D03*
D19*
%TO.N,/bypass_switch*%
X115475000Y-113675002D03*
X157975000Y-94175002D03*
X140550000Y-76750000D03*
X152025000Y-82175000D03*
X157950000Y-92350000D03*
X153750000Y-82824980D03*
%TO.N,/miso*%
X159125000Y-99300000D03*
X155525000Y-92075000D03*
X155525000Y-86600000D03*
X158125000Y-80875000D03*
X155175000Y-80900000D03*
%TO.N,/send*%
X139850000Y-86600000D03*
X119625000Y-81175000D03*
%TO.N,Net-(C8-Pad1)*%
X139900000Y-99350000D03*
X150875000Y-91075000D03*
X137975000Y-90525000D03*
%TO.N,/effect/gain_out*%
X138050000Y-89200000D03*
X164177500Y-95727500D03*
X164300000Y-86875000D03*
X125650000Y-86525000D03*
%TO.N,Net-(C11-Pad1)*%
X106950000Y-98275000D03*
X114324994Y-92917718D03*
%TO.N,/effect/Vref*%
X138675000Y-95775000D03*
X133500000Y-93275000D03*
D18*
%TO.N,Net-(D1-Pad2)*%
X149025000Y-66225000D03*
D19*
%TO.N,Net-(D2-Pad2)*%
X152850000Y-103150000D03*
%TO.N,Net-(D3-Pad2)*%
X162900000Y-103350000D03*
%TO.N,/in*%
X96150000Y-61275000D03*
%TO.N,/rst*%
X144575000Y-78350000D03*
%TO.N,/bypass_led*%
X153700000Y-99300000D03*
X151850000Y-79625000D03*
X149970550Y-79629448D03*
X149398363Y-81525000D03*
X150250000Y-93625000D03*
X150250002Y-88450000D03*
X150250000Y-84950000D03*
%TO.N,/return*%
X97475000Y-92175000D03*
X112525000Y-67575000D03*
X109375000Y-70725000D03*
X104725000Y-75375000D03*
%TO.N,/relay_2*%
X173700000Y-83625000D03*
%TO.N,/preset_2_out_a*%
X128100000Y-92150000D03*
X128125000Y-87525000D03*
%TO.N,/preset_2_in*%
X114325000Y-91600000D03*
%TO.N,/preset_1_out_b*%
X171100000Y-86699998D03*
%TO.N,/preset_1_out_a*%
X170500000Y-99575000D03*
%TO.N,/relay_3*%
X119000000Y-82175000D03*
%TO.N,/preset_led*%
X165950000Y-100475000D03*
%TO.N,/effect/tone_pin_3*%
X127475000Y-99150000D03*
X105775000Y-90900000D03*
X127475000Y-84625000D03*
X127450000Y-89800000D03*
%TO.N,/effect/tone_pin_2*%
X132475000Y-89200000D03*
X132500000Y-84500000D03*
%TO.N,/preset_relay*%
X116400000Y-71975000D03*
X132525000Y-78200000D03*
X168350000Y-84525000D03*
X155115385Y-83449990D03*
%TO.N,/bypass_relay*%
X111200000Y-71975000D03*
X140300000Y-77550000D03*
%TD*%
D20*
%TO.N,9V*%
X139825003Y-84199999D02*
X139800000Y-84174996D01*
X153875001Y-84199999D02*
X139825003Y-84199999D01*
D21*
%TO.N,/bypass_switch*%
X157975000Y-99325000D02*
X157975000Y-94175002D01*
X115475000Y-113675002D02*
X143624998Y-113675002D01*
X143624998Y-113675002D02*
X157975000Y-99325000D01*
X145975000Y-82175000D02*
X152025000Y-82175000D01*
X140550000Y-76750000D02*
X145975000Y-82175000D01*
X157950000Y-87201994D02*
X153750000Y-83001994D01*
X153750000Y-83001994D02*
X153750000Y-82824980D01*
X157950000Y-92350000D02*
X157950000Y-87201994D01*
%TO.N,/miso*%
X152200000Y-106225000D02*
X159125000Y-99300000D01*
X152200000Y-110400000D02*
X152200000Y-106225000D01*
X155525000Y-92075000D02*
X155525000Y-86600000D01*
X155200000Y-80875000D02*
X155175000Y-80900000D01*
X158125000Y-80875000D02*
X155200000Y-80875000D01*
%TO.N,/send*%
X139850000Y-86600000D02*
X138825000Y-85575000D01*
X124025000Y-85575000D02*
X119625000Y-81175000D01*
X138825000Y-85575000D02*
X124025000Y-85575000D01*
%TO.N,Net-(C8-Pad1)*%
X148950000Y-95795000D02*
X139945000Y-95795000D01*
X139945000Y-95795000D02*
X139900000Y-95750000D01*
X139900000Y-99350000D02*
X139900000Y-95750000D01*
X148950000Y-95795000D02*
X148950000Y-93000000D01*
X148950000Y-93000000D02*
X150875000Y-91075000D01*
X139900000Y-95750000D02*
X139900000Y-92450000D01*
X139900000Y-92450000D02*
X137975000Y-90525000D01*
%TO.N,/effect/gain_out*%
X153700000Y-92925000D02*
X148950000Y-88175000D01*
X153700000Y-95770000D02*
X153700000Y-92925000D01*
X139075000Y-88175000D02*
X148950000Y-88175000D01*
X138050000Y-89200000D02*
X139075000Y-88175000D01*
X164180000Y-95725000D02*
X164177500Y-95727500D01*
X164275000Y-93000000D02*
X164275000Y-95725000D01*
X153775000Y-93000000D02*
X164275000Y-93000000D01*
X164275000Y-95725000D02*
X164180000Y-95725000D01*
X153700000Y-92925000D02*
X153775000Y-93000000D01*
X164275000Y-93000000D02*
X164275000Y-86900000D01*
X164275000Y-86900000D02*
X164300000Y-86875000D01*
X135375000Y-86525000D02*
X125650000Y-86525000D01*
X138050000Y-89200000D02*
X135375000Y-86525000D01*
%TO.N,Net-(C11-Pad1)*%
X106950000Y-98275000D02*
X112307282Y-92917718D01*
X112307282Y-92917718D02*
X114324994Y-92917718D01*
%TO.N,/effect/Vref*%
X136175000Y-93275000D02*
X138675000Y-95775000D01*
X133500000Y-93275000D02*
X136175000Y-93275000D01*
D20*
%TO.N,Net-(D1-Pad2)*%
X146950000Y-68300000D02*
X149025000Y-66225000D01*
X133540000Y-68300000D02*
X146950000Y-68300000D01*
D21*
%TO.N,Net-(D2-Pad2)*%
X98770000Y-113000000D02*
X143000000Y-113000000D01*
X143000000Y-113000000D02*
X152850000Y-103150000D01*
%TO.N,Net-(D3-Pad2)*%
X162900000Y-105857208D02*
X162900000Y-103350000D01*
X168770000Y-111727208D02*
X162900000Y-105857208D01*
X168770000Y-113000000D02*
X168770000Y-111727208D01*
%TO.N,/in*%
X89000000Y-68425000D02*
X96150000Y-61275000D01*
X89000000Y-70225001D02*
X89000000Y-68425000D01*
%TO.N,/out*%
X115404999Y-62270001D02*
X115404999Y-64251001D01*
X116480000Y-61195000D02*
X115404999Y-62270001D01*
X121378998Y-70225000D02*
X125800000Y-70225000D01*
X115404999Y-64251001D02*
X121378998Y-70225000D01*
X125800000Y-70225000D02*
X125510000Y-70225000D01*
X159775000Y-70225000D02*
X125800000Y-70225000D01*
%TO.N,/rst*%
X130895001Y-74335001D02*
X140560001Y-74335001D01*
X140560001Y-74335001D02*
X144575000Y-78350000D01*
X129720000Y-73160000D02*
X130895001Y-74335001D01*
%TO.N,/bypass_led*%
X149974998Y-79625000D02*
X149970550Y-79629448D01*
X151850000Y-79625000D02*
X149974998Y-79625000D01*
X149398363Y-80201635D02*
X149970550Y-79629448D01*
X149398363Y-81525000D02*
X149398363Y-80201635D01*
X150250000Y-95850000D02*
X150250000Y-93625000D01*
X153700000Y-99300000D02*
X150250000Y-95850000D01*
X150250002Y-88450000D02*
X150250002Y-84950002D01*
X150250002Y-84950002D02*
X150250000Y-84950000D01*
%TO.N,/return*%
X97500000Y-92200000D02*
X97475000Y-92175000D01*
X97500000Y-108000000D02*
X97500000Y-92200000D01*
X112525000Y-67575000D02*
X109375000Y-70725000D01*
X97500000Y-80000000D02*
X100100000Y-80000000D01*
X100100000Y-80000000D02*
X104725000Y-75375000D01*
%TO.N,/relay_2*%
X173705000Y-88675000D02*
X173705000Y-83630000D01*
X173705000Y-83630000D02*
X173700000Y-83625000D01*
%TO.N,/preset_2_out_a*%
X128100000Y-87550000D02*
X128125000Y-87525000D01*
X128100000Y-92150000D02*
X128100000Y-87550000D01*
%TO.N,/preset_2_in*%
X125505000Y-96295000D02*
X120810000Y-91600000D01*
X120810000Y-91600000D02*
X114325000Y-91600000D01*
%TO.N,/preset_2_out_b*%
X136354999Y-109225001D02*
X137580000Y-108000000D01*
X130425001Y-109225001D02*
X136354999Y-109225001D01*
X128645001Y-107445001D02*
X130425001Y-109225001D01*
X128645001Y-101975001D02*
X128645001Y-107445001D01*
X125505000Y-98835000D02*
X128645001Y-101975001D01*
%TO.N,/preset_1_out_b*%
X172580000Y-80000000D02*
X172580000Y-85219998D01*
X172580000Y-85219998D02*
X171100000Y-86699998D01*
%TO.N,/preset_1_out_a*%
X170500000Y-95630000D02*
X170500000Y-99575000D01*
X168625000Y-93755000D02*
X170500000Y-95630000D01*
%TO.N,/relay_3*%
X125505000Y-88675000D02*
X118980000Y-82150000D01*
X118980000Y-82155000D02*
X119000000Y-82175000D01*
X118980000Y-82150000D02*
X118980000Y-82155000D01*
%TO.N,/preset_led*%
X172065000Y-100475000D02*
X165950000Y-100475000D01*
X173705000Y-98835000D02*
X172065000Y-100475000D01*
%TO.N,/preset_3_out_b*%
X93645001Y-109225001D02*
X110034999Y-109225001D01*
X110034999Y-109225001D02*
X120425000Y-98835000D01*
X92420000Y-108000000D02*
X93645001Y-109225001D01*
%TO.N,/preset_3_out_a*%
X92420000Y-80000000D02*
X92420000Y-80020000D01*
X92420000Y-84670002D02*
X92420000Y-80000000D01*
X106649999Y-98900001D02*
X92420000Y-84670002D01*
X115279999Y-98900001D02*
X106649999Y-98900001D01*
X120425000Y-93755000D02*
X115279999Y-98900001D01*
%TO.N,/effect/tone_pin_3*%
X127475000Y-80055000D02*
X127420000Y-80000000D01*
X127475000Y-84625000D02*
X127475000Y-80055000D01*
X127475000Y-89825000D02*
X127450000Y-89800000D01*
X127475000Y-99150000D02*
X127475000Y-89825000D01*
X116500000Y-89800000D02*
X127450000Y-89800000D01*
X115400000Y-90900000D02*
X116500000Y-89800000D01*
X105775000Y-90900000D02*
X115400000Y-90900000D01*
%TO.N,/effect/tone_pin_2*%
X132500000Y-84500000D02*
X132500000Y-80000000D01*
X132500000Y-89225000D02*
X132475000Y-89200000D01*
X132500000Y-108000000D02*
X132500000Y-89225000D01*
%TO.N,/preset_relay*%
X122625000Y-78200000D02*
X132525000Y-78200000D01*
X116400000Y-71975000D02*
X122625000Y-78200000D01*
X168350000Y-84525000D02*
X156190395Y-84525000D01*
X156190395Y-84525000D02*
X155115385Y-83449990D01*
%TO.N,/bypass_relay*%
X122875000Y-77550000D02*
X140300000Y-77550000D01*
X116674999Y-71349999D02*
X122875000Y-77550000D01*
X111825001Y-71349999D02*
X116674999Y-71349999D01*
X111200000Y-71975000D02*
X111825001Y-71349999D01*
%TD*%
D22*
%TO.N,/5V*%
X120315000Y-64966353D02*
X120311686Y-65000000D01*
X120324912Y-65134283D01*
X120364081Y-65263406D01*
X120427688Y-65382407D01*
X120513289Y-65486711D01*
X120608959Y-65565226D01*
X120617593Y-65572312D01*
X120736594Y-65635919D01*
X120865717Y-65675088D01*
X121000000Y-65688314D01*
X121033647Y-65685000D01*
X143966353Y-65685000D01*
X144000000Y-65688314D01*
X144134283Y-65675088D01*
X144263406Y-65635919D01*
X144382407Y-65572312D01*
X144486711Y-65486711D01*
X144572312Y-65382407D01*
X144635919Y-65263406D01*
X144675088Y-65134283D01*
X144685000Y-65033647D01*
X144685000Y-65033646D01*
X144688314Y-65000000D01*
X144685000Y-64966353D01*
X144685000Y-57314721D01*
X157640000Y-57314721D01*
X157640000Y-57735279D01*
X157722047Y-58147756D01*
X157882988Y-58536302D01*
X158116637Y-58885983D01*
X158414017Y-59183363D01*
X158763698Y-59417012D01*
X159152244Y-59577953D01*
X159564721Y-59660000D01*
X159985279Y-59660000D01*
X160397756Y-59577953D01*
X160786302Y-59417012D01*
X161135983Y-59183363D01*
X161433363Y-58885983D01*
X161667012Y-58536302D01*
X161827953Y-58147756D01*
X161910000Y-57735279D01*
X161910000Y-57314721D01*
X173870000Y-57314721D01*
X173870000Y-57735279D01*
X173952047Y-58147756D01*
X174112988Y-58536302D01*
X174346637Y-58885983D01*
X174644017Y-59183363D01*
X174993698Y-59417012D01*
X175382244Y-59577953D01*
X175794721Y-59660000D01*
X176215279Y-59660000D01*
X176627756Y-59577953D01*
X177016302Y-59417012D01*
X177365983Y-59183363D01*
X177663363Y-58885983D01*
X177897012Y-58536302D01*
X178057953Y-58147756D01*
X178140000Y-57735279D01*
X178140000Y-57314721D01*
X178057953Y-56902244D01*
X177897012Y-56513698D01*
X177663363Y-56164017D01*
X177365983Y-55866637D01*
X177016302Y-55632988D01*
X176627756Y-55472047D01*
X176215279Y-55390000D01*
X175794721Y-55390000D01*
X175382244Y-55472047D01*
X174993698Y-55632988D01*
X174644017Y-55866637D01*
X174346637Y-56164017D01*
X174112988Y-56513698D01*
X173952047Y-56902244D01*
X173870000Y-57314721D01*
X161910000Y-57314721D01*
X161827953Y-56902244D01*
X161667012Y-56513698D01*
X161433363Y-56164017D01*
X161135983Y-55866637D01*
X160786302Y-55632988D01*
X160397756Y-55472047D01*
X159985279Y-55390000D01*
X159564721Y-55390000D01*
X159152244Y-55472047D01*
X158763698Y-55632988D01*
X158414017Y-55866637D01*
X158116637Y-56164017D01*
X157882988Y-56513698D01*
X157722047Y-56902244D01*
X157640000Y-57314721D01*
X144685000Y-57314721D01*
X144685000Y-50660000D01*
X179315000Y-50660000D01*
X179315001Y-114315000D01*
X144039875Y-114315000D01*
X144049274Y-114309976D01*
X144164999Y-114215003D01*
X144188802Y-114185999D01*
X148211928Y-110162874D01*
X148211928Y-111150000D01*
X148228992Y-111323254D01*
X148279528Y-111489850D01*
X148361595Y-111643386D01*
X148472038Y-111777962D01*
X148606614Y-111888405D01*
X148760150Y-111970472D01*
X148926746Y-112021008D01*
X149100000Y-112038072D01*
X150300000Y-112038072D01*
X150473254Y-112021008D01*
X150639850Y-111970472D01*
X150793386Y-111888405D01*
X150927962Y-111777962D01*
X151038405Y-111643386D01*
X151092777Y-111541663D01*
X151144866Y-111605134D01*
X151370987Y-111790706D01*
X151628967Y-111928599D01*
X151908890Y-112013513D01*
X152200000Y-112042185D01*
X152491111Y-112013513D01*
X152771034Y-111928599D01*
X153029014Y-111790706D01*
X153255134Y-111605134D01*
X153440706Y-111379014D01*
X153578599Y-111121033D01*
X153663513Y-110841110D01*
X153685000Y-110622949D01*
X153685000Y-110177050D01*
X153663513Y-109958889D01*
X153578599Y-109678966D01*
X153440706Y-109420986D01*
X153255134Y-109194866D01*
X153029013Y-109009294D01*
X152960000Y-108972406D01*
X152960000Y-107848816D01*
X160885000Y-107848816D01*
X160885000Y-108151184D01*
X160943989Y-108447743D01*
X161059701Y-108727095D01*
X161227688Y-108978505D01*
X161441495Y-109192312D01*
X161692905Y-109360299D01*
X161972257Y-109476011D01*
X162268816Y-109535000D01*
X162571184Y-109535000D01*
X162867743Y-109476011D01*
X163147095Y-109360299D01*
X163398505Y-109192312D01*
X163612312Y-108978505D01*
X163780299Y-108727095D01*
X163896011Y-108447743D01*
X163955000Y-108151184D01*
X163955000Y-107987009D01*
X167646087Y-111678096D01*
X167608728Y-111715455D01*
X167584699Y-111670500D01*
X167449383Y-111505617D01*
X167284500Y-111370301D01*
X167096387Y-111269753D01*
X166892272Y-111207835D01*
X166680000Y-111186928D01*
X165780000Y-111186928D01*
X165567728Y-111207835D01*
X165363613Y-111269753D01*
X165175500Y-111370301D01*
X165010617Y-111505617D01*
X164875301Y-111670500D01*
X164774753Y-111858613D01*
X164712835Y-112062728D01*
X164691928Y-112275000D01*
X164691928Y-113175000D01*
X164712835Y-113387272D01*
X164774753Y-113591387D01*
X164875301Y-113779500D01*
X165010617Y-113944383D01*
X165175500Y-114079699D01*
X165363613Y-114180247D01*
X165567728Y-114242165D01*
X165780000Y-114263072D01*
X166680000Y-114263072D01*
X166892272Y-114242165D01*
X167096387Y-114180247D01*
X167284500Y-114079699D01*
X167449383Y-113944383D01*
X167584699Y-113779500D01*
X167608728Y-113734545D01*
X167791495Y-113917312D01*
X168042905Y-114085299D01*
X168322257Y-114201011D01*
X168618816Y-114260000D01*
X168921184Y-114260000D01*
X169217743Y-114201011D01*
X169497095Y-114085299D01*
X169748505Y-113917312D01*
X169962312Y-113703505D01*
X170130299Y-113452095D01*
X170246011Y-113172743D01*
X170305000Y-112876184D01*
X170305000Y-112573816D01*
X170246011Y-112277257D01*
X170130299Y-111997905D01*
X169962312Y-111746495D01*
X169748505Y-111532688D01*
X169497095Y-111364701D01*
X169421183Y-111333257D01*
X169404974Y-111302932D01*
X169333799Y-111216205D01*
X169310001Y-111187207D01*
X169281003Y-111163409D01*
X167652360Y-109534766D01*
X167947743Y-109476011D01*
X168227095Y-109360299D01*
X168478505Y-109192312D01*
X168692312Y-108978505D01*
X168860299Y-108727095D01*
X168976011Y-108447743D01*
X169035000Y-108151184D01*
X169035000Y-107848816D01*
X171045000Y-107848816D01*
X171045000Y-108151184D01*
X171103989Y-108447743D01*
X171219701Y-108727095D01*
X171387688Y-108978505D01*
X171601495Y-109192312D01*
X171852905Y-109360299D01*
X172132257Y-109476011D01*
X172428816Y-109535000D01*
X172731184Y-109535000D01*
X173027743Y-109476011D01*
X173307095Y-109360299D01*
X173558505Y-109192312D01*
X173772312Y-108978505D01*
X173940299Y-108727095D01*
X174056011Y-108447743D01*
X174115000Y-108151184D01*
X174115000Y-107848816D01*
X174056011Y-107552257D01*
X173940299Y-107272905D01*
X173772312Y-107021495D01*
X173558505Y-106807688D01*
X173307095Y-106639701D01*
X173027743Y-106523989D01*
X172731184Y-106465000D01*
X172428816Y-106465000D01*
X172132257Y-106523989D01*
X171852905Y-106639701D01*
X171601495Y-106807688D01*
X171387688Y-107021495D01*
X171219701Y-107272905D01*
X171103989Y-107552257D01*
X171045000Y-107848816D01*
X169035000Y-107848816D01*
X168976011Y-107552257D01*
X168860299Y-107272905D01*
X168692312Y-107021495D01*
X168478505Y-106807688D01*
X168227095Y-106639701D01*
X167947743Y-106523989D01*
X167651184Y-106465000D01*
X167348816Y-106465000D01*
X167052257Y-106523989D01*
X166772905Y-106639701D01*
X166521495Y-106807688D01*
X166307688Y-107021495D01*
X166139701Y-107272905D01*
X166023989Y-107552257D01*
X165965234Y-107847640D01*
X163660000Y-105542407D01*
X163660000Y-103895535D01*
X163728586Y-103792889D01*
X163799068Y-103622729D01*
X163835000Y-103442089D01*
X163835000Y-103257911D01*
X163799068Y-103077271D01*
X163728586Y-102907111D01*
X163626262Y-102753972D01*
X163496028Y-102623738D01*
X163342889Y-102521414D01*
X163172729Y-102450932D01*
X162992089Y-102415000D01*
X162807911Y-102415000D01*
X162627271Y-102450932D01*
X162457111Y-102521414D01*
X162303972Y-102623738D01*
X162173738Y-102753972D01*
X162071414Y-102907111D01*
X162000932Y-103077271D01*
X161965000Y-103257911D01*
X161965000Y-103442089D01*
X162000932Y-103622729D01*
X162071414Y-103792889D01*
X162140001Y-103895537D01*
X162140000Y-105819885D01*
X162136324Y-105857208D01*
X162140000Y-105894530D01*
X162140000Y-105894540D01*
X162150997Y-106006193D01*
X162172177Y-106076014D01*
X162194454Y-106149454D01*
X162265026Y-106281484D01*
X162304871Y-106330034D01*
X162359999Y-106397209D01*
X162389003Y-106421012D01*
X162432991Y-106465000D01*
X162268816Y-106465000D01*
X161972257Y-106523989D01*
X161692905Y-106639701D01*
X161441495Y-106807688D01*
X161227688Y-107021495D01*
X161059701Y-107272905D01*
X160943989Y-107552257D01*
X160885000Y-107848816D01*
X152960000Y-107848816D01*
X152960000Y-106539801D01*
X159116890Y-100382911D01*
X165015000Y-100382911D01*
X165015000Y-100567089D01*
X165050932Y-100747729D01*
X165121414Y-100917889D01*
X165223738Y-101071028D01*
X165353972Y-101201262D01*
X165507111Y-101303586D01*
X165677271Y-101374068D01*
X165857911Y-101410000D01*
X166042089Y-101410000D01*
X166222729Y-101374068D01*
X166392889Y-101303586D01*
X166495535Y-101235000D01*
X172027678Y-101235000D01*
X172065000Y-101238676D01*
X172102322Y-101235000D01*
X172102333Y-101235000D01*
X172213986Y-101224003D01*
X172357247Y-101180546D01*
X172489276Y-101109974D01*
X172605001Y-101015001D01*
X172628804Y-100985997D01*
X173423635Y-100191167D01*
X173568589Y-100220000D01*
X173841411Y-100220000D01*
X174108989Y-100166775D01*
X174361043Y-100062371D01*
X174587886Y-99910799D01*
X174780799Y-99717886D01*
X174932371Y-99491043D01*
X175036775Y-99238989D01*
X175090000Y-98971411D01*
X175090000Y-98698589D01*
X175036775Y-98431011D01*
X174932371Y-98178957D01*
X174780799Y-97952114D01*
X174587886Y-97759201D01*
X174361043Y-97607629D01*
X174261721Y-97566489D01*
X174303832Y-97551277D01*
X174416863Y-97490860D01*
X174482388Y-97251993D01*
X173705000Y-96474605D01*
X172927612Y-97251993D01*
X172993137Y-97490860D01*
X173151477Y-97565164D01*
X173048957Y-97607629D01*
X172822114Y-97759201D01*
X172629201Y-97952114D01*
X172477629Y-98178957D01*
X172373225Y-98431011D01*
X172320000Y-98698589D01*
X172320000Y-98971411D01*
X172348833Y-99116365D01*
X171750199Y-99715000D01*
X171425470Y-99715000D01*
X171435000Y-99667089D01*
X171435000Y-99482911D01*
X171399068Y-99302271D01*
X171328586Y-99132111D01*
X171260000Y-99029465D01*
X171260000Y-96367492D01*
X172315188Y-96367492D01*
X172356035Y-96637238D01*
X172448723Y-96893832D01*
X172509140Y-97006863D01*
X172748007Y-97072388D01*
X173525395Y-96295000D01*
X173884605Y-96295000D01*
X174661993Y-97072388D01*
X174900860Y-97006863D01*
X175016760Y-96759884D01*
X175082250Y-96495040D01*
X175094812Y-96222508D01*
X175053965Y-95952762D01*
X174961277Y-95696168D01*
X174900860Y-95583137D01*
X174661993Y-95517612D01*
X173884605Y-96295000D01*
X173525395Y-96295000D01*
X172748007Y-95517612D01*
X172509140Y-95583137D01*
X172393240Y-95830116D01*
X172327750Y-96094960D01*
X172315188Y-96367492D01*
X171260000Y-96367492D01*
X171260000Y-95667322D01*
X171263676Y-95629999D01*
X171260000Y-95592676D01*
X171260000Y-95592667D01*
X171249003Y-95481014D01*
X171205546Y-95337753D01*
X171134974Y-95205724D01*
X171097471Y-95160026D01*
X171063799Y-95118996D01*
X171063795Y-95118992D01*
X171040001Y-95089999D01*
X171011009Y-95066206D01*
X169981167Y-94036365D01*
X170010000Y-93891411D01*
X170010000Y-93618589D01*
X172320000Y-93618589D01*
X172320000Y-93891411D01*
X172373225Y-94158989D01*
X172477629Y-94411043D01*
X172629201Y-94637886D01*
X172822114Y-94830799D01*
X173048957Y-94982371D01*
X173148279Y-95023511D01*
X173106168Y-95038723D01*
X172993137Y-95099140D01*
X172927612Y-95338007D01*
X173705000Y-96115395D01*
X174482388Y-95338007D01*
X174416863Y-95099140D01*
X174258523Y-95024836D01*
X174361043Y-94982371D01*
X174587886Y-94830799D01*
X174780799Y-94637886D01*
X174932371Y-94411043D01*
X175036775Y-94158989D01*
X175090000Y-93891411D01*
X175090000Y-93618589D01*
X175036775Y-93351011D01*
X174932371Y-93098957D01*
X174780799Y-92872114D01*
X174587886Y-92679201D01*
X174361043Y-92527629D01*
X174108989Y-92423225D01*
X173841411Y-92370000D01*
X173568589Y-92370000D01*
X173301011Y-92423225D01*
X173048957Y-92527629D01*
X172822114Y-92679201D01*
X172629201Y-92872114D01*
X172477629Y-93098957D01*
X172373225Y-93351011D01*
X172320000Y-93618589D01*
X170010000Y-93618589D01*
X169956775Y-93351011D01*
X169852371Y-93098957D01*
X169700799Y-92872114D01*
X169507886Y-92679201D01*
X169281043Y-92527629D01*
X169028989Y-92423225D01*
X168761411Y-92370000D01*
X168488589Y-92370000D01*
X168221011Y-92423225D01*
X167968957Y-92527629D01*
X167742114Y-92679201D01*
X167549201Y-92872114D01*
X167397629Y-93098957D01*
X167293225Y-93351011D01*
X167240000Y-93618589D01*
X167240000Y-93891411D01*
X167293225Y-94158989D01*
X167397629Y-94411043D01*
X167549201Y-94637886D01*
X167742114Y-94830799D01*
X167968957Y-94982371D01*
X168071873Y-95025000D01*
X167968957Y-95067629D01*
X167742114Y-95219201D01*
X167549201Y-95412114D01*
X167397629Y-95638957D01*
X167293225Y-95891011D01*
X167240000Y-96158589D01*
X167240000Y-96431411D01*
X167293225Y-96698989D01*
X167397629Y-96951043D01*
X167549201Y-97177886D01*
X167742114Y-97370799D01*
X167968957Y-97522371D01*
X168071873Y-97565000D01*
X167968957Y-97607629D01*
X167742114Y-97759201D01*
X167549201Y-97952114D01*
X167397629Y-98178957D01*
X167293225Y-98431011D01*
X167240000Y-98698589D01*
X167240000Y-98971411D01*
X167293225Y-99238989D01*
X167397629Y-99491043D01*
X167547273Y-99715000D01*
X166495535Y-99715000D01*
X166392889Y-99646414D01*
X166222729Y-99575932D01*
X166042089Y-99540000D01*
X165857911Y-99540000D01*
X165677271Y-99575932D01*
X165507111Y-99646414D01*
X165353972Y-99748738D01*
X165223738Y-99878972D01*
X165121414Y-100032111D01*
X165050932Y-100202271D01*
X165015000Y-100382911D01*
X159116890Y-100382911D01*
X159276649Y-100223153D01*
X159397729Y-100199068D01*
X159567889Y-100128586D01*
X159721028Y-100026262D01*
X159851262Y-99896028D01*
X159953586Y-99742889D01*
X160024068Y-99572729D01*
X160060000Y-99392089D01*
X160060000Y-99207911D01*
X160024068Y-99027271D01*
X159953586Y-98857111D01*
X159851262Y-98703972D01*
X159721028Y-98573738D01*
X159567889Y-98471414D01*
X159397729Y-98400932D01*
X159217089Y-98365000D01*
X159032911Y-98365000D01*
X158852271Y-98400932D01*
X158735000Y-98449507D01*
X158735000Y-94720537D01*
X158803586Y-94617891D01*
X158874068Y-94447731D01*
X158910000Y-94267091D01*
X158910000Y-94082913D01*
X158874068Y-93902273D01*
X158815137Y-93760000D01*
X163515000Y-93760000D01*
X163515001Y-95067709D01*
X163451238Y-95131472D01*
X163348914Y-95284611D01*
X163278432Y-95454771D01*
X163242500Y-95635411D01*
X163242500Y-95819589D01*
X163278432Y-96000229D01*
X163348914Y-96170389D01*
X163451238Y-96323528D01*
X163581472Y-96453762D01*
X163734611Y-96556086D01*
X163904771Y-96626568D01*
X164085411Y-96662500D01*
X164269589Y-96662500D01*
X164450229Y-96626568D01*
X164620389Y-96556086D01*
X164773528Y-96453762D01*
X164903762Y-96323528D01*
X165006086Y-96170389D01*
X165076568Y-96000229D01*
X165112500Y-95819589D01*
X165112500Y-95635411D01*
X165076568Y-95454771D01*
X165035000Y-95354416D01*
X165035000Y-93037332D01*
X165038677Y-93000000D01*
X165035000Y-92962667D01*
X165035000Y-89425000D01*
X167236928Y-89425000D01*
X167249188Y-89549482D01*
X167285498Y-89669180D01*
X167344463Y-89779494D01*
X167423815Y-89876185D01*
X167520506Y-89955537D01*
X167630820Y-90014502D01*
X167750518Y-90050812D01*
X167875000Y-90063072D01*
X168339250Y-90060000D01*
X168498000Y-89901250D01*
X168498000Y-88802000D01*
X168752000Y-88802000D01*
X168752000Y-89901250D01*
X168910750Y-90060000D01*
X169375000Y-90063072D01*
X169499482Y-90050812D01*
X169619180Y-90014502D01*
X169729494Y-89955537D01*
X169826185Y-89876185D01*
X169905537Y-89779494D01*
X169964502Y-89669180D01*
X170000812Y-89549482D01*
X170013072Y-89425000D01*
X170010000Y-88960750D01*
X169851250Y-88802000D01*
X168752000Y-88802000D01*
X168498000Y-88802000D01*
X167398750Y-88802000D01*
X167240000Y-88960750D01*
X167236928Y-89425000D01*
X165035000Y-89425000D01*
X165035000Y-87925000D01*
X167236928Y-87925000D01*
X167240000Y-88389250D01*
X167398750Y-88548000D01*
X168498000Y-88548000D01*
X168498000Y-87448750D01*
X168752000Y-87448750D01*
X168752000Y-88548000D01*
X169851250Y-88548000D01*
X170010000Y-88389250D01*
X170013072Y-87925000D01*
X170000812Y-87800518D01*
X169964502Y-87680820D01*
X169905537Y-87570506D01*
X169826185Y-87473815D01*
X169729494Y-87394463D01*
X169619180Y-87335498D01*
X169499482Y-87299188D01*
X169375000Y-87286928D01*
X168910750Y-87290000D01*
X168752000Y-87448750D01*
X168498000Y-87448750D01*
X168339250Y-87290000D01*
X167875000Y-87286928D01*
X167750518Y-87299188D01*
X167630820Y-87335498D01*
X167520506Y-87394463D01*
X167423815Y-87473815D01*
X167344463Y-87570506D01*
X167285498Y-87680820D01*
X167249188Y-87800518D01*
X167236928Y-87925000D01*
X165035000Y-87925000D01*
X165035000Y-87457951D01*
X165128586Y-87317889D01*
X165199068Y-87147729D01*
X165235000Y-86967089D01*
X165235000Y-86782911D01*
X165200190Y-86607909D01*
X170165000Y-86607909D01*
X170165000Y-86792087D01*
X170200932Y-86972727D01*
X170271414Y-87142887D01*
X170373738Y-87296026D01*
X170503972Y-87426260D01*
X170657111Y-87528584D01*
X170827271Y-87599066D01*
X171007911Y-87634998D01*
X171192089Y-87634998D01*
X171372729Y-87599066D01*
X171542889Y-87528584D01*
X171696028Y-87426260D01*
X171826262Y-87296026D01*
X171928586Y-87142887D01*
X171999068Y-86972727D01*
X172023153Y-86851647D01*
X172945001Y-85929799D01*
X172945000Y-87517091D01*
X172822114Y-87599201D01*
X172629201Y-87792114D01*
X172477629Y-88018957D01*
X172373225Y-88271011D01*
X172320000Y-88538589D01*
X172320000Y-88811411D01*
X172373225Y-89078989D01*
X172477629Y-89331043D01*
X172629201Y-89557886D01*
X172822114Y-89750799D01*
X173048957Y-89902371D01*
X173301011Y-90006775D01*
X173568589Y-90060000D01*
X173841411Y-90060000D01*
X174108989Y-90006775D01*
X174361043Y-89902371D01*
X174587886Y-89750799D01*
X174780799Y-89557886D01*
X174932371Y-89331043D01*
X175036775Y-89078989D01*
X175090000Y-88811411D01*
X175090000Y-88538589D01*
X175036775Y-88271011D01*
X174932371Y-88018957D01*
X174780799Y-87792114D01*
X174587886Y-87599201D01*
X174465000Y-87517091D01*
X174465000Y-84163052D01*
X174528586Y-84067889D01*
X174599068Y-83897729D01*
X174635000Y-83717089D01*
X174635000Y-83532911D01*
X174599068Y-83352271D01*
X174528586Y-83182111D01*
X174426262Y-83028972D01*
X174296028Y-82898738D01*
X174142889Y-82796414D01*
X173972729Y-82725932D01*
X173792089Y-82690000D01*
X173607911Y-82690000D01*
X173427271Y-82725932D01*
X173340000Y-82762081D01*
X173340000Y-81338313D01*
X173558505Y-81192312D01*
X173772312Y-80978505D01*
X173940299Y-80727095D01*
X174056011Y-80447743D01*
X174115000Y-80151184D01*
X174115000Y-79848816D01*
X174056011Y-79552257D01*
X173940299Y-79272905D01*
X173772312Y-79021495D01*
X173558505Y-78807688D01*
X173307095Y-78639701D01*
X173027743Y-78523989D01*
X172731184Y-78465000D01*
X172428816Y-78465000D01*
X172132257Y-78523989D01*
X171852905Y-78639701D01*
X171601495Y-78807688D01*
X171387688Y-79021495D01*
X171219701Y-79272905D01*
X171103989Y-79552257D01*
X171045000Y-79848816D01*
X171045000Y-80151184D01*
X171103989Y-80447743D01*
X171219701Y-80727095D01*
X171387688Y-80978505D01*
X171601495Y-81192312D01*
X171820000Y-81338313D01*
X171820001Y-84905195D01*
X170948351Y-85776845D01*
X170827271Y-85800930D01*
X170657111Y-85871412D01*
X170503972Y-85973736D01*
X170373738Y-86103970D01*
X170271414Y-86257109D01*
X170200932Y-86427269D01*
X170165000Y-86607909D01*
X165200190Y-86607909D01*
X165199068Y-86602271D01*
X165128586Y-86432111D01*
X165026262Y-86278972D01*
X164896028Y-86148738D01*
X164742889Y-86046414D01*
X164572729Y-85975932D01*
X164392089Y-85940000D01*
X164207911Y-85940000D01*
X164027271Y-85975932D01*
X163857111Y-86046414D01*
X163703972Y-86148738D01*
X163573738Y-86278972D01*
X163471414Y-86432111D01*
X163400932Y-86602271D01*
X163365000Y-86782911D01*
X163365000Y-86967089D01*
X163400932Y-87147729D01*
X163471414Y-87317889D01*
X163515001Y-87383122D01*
X163515000Y-92240000D01*
X158881437Y-92240000D01*
X158849068Y-92077271D01*
X158778586Y-91907111D01*
X158710000Y-91804465D01*
X158710000Y-87239317D01*
X158713676Y-87201994D01*
X158710000Y-87164671D01*
X158710000Y-87164661D01*
X158699003Y-87053008D01*
X158655546Y-86909747D01*
X158630381Y-86862667D01*
X158584974Y-86777717D01*
X158513799Y-86690991D01*
X158490001Y-86661993D01*
X158461003Y-86638195D01*
X157107808Y-85285000D01*
X167804465Y-85285000D01*
X167907111Y-85353586D01*
X168077271Y-85424068D01*
X168257911Y-85460000D01*
X168442089Y-85460000D01*
X168622729Y-85424068D01*
X168792889Y-85353586D01*
X168946028Y-85251262D01*
X169076262Y-85121028D01*
X169178586Y-84967889D01*
X169249068Y-84797729D01*
X169285000Y-84617089D01*
X169285000Y-84432911D01*
X169249068Y-84252271D01*
X169178586Y-84082111D01*
X169076262Y-83928972D01*
X168946028Y-83798738D01*
X168792889Y-83696414D01*
X168622729Y-83625932D01*
X168442089Y-83590000D01*
X168257911Y-83590000D01*
X168077271Y-83625932D01*
X167907111Y-83696414D01*
X167804465Y-83765000D01*
X156505197Y-83765000D01*
X156038538Y-83298341D01*
X156014453Y-83177261D01*
X155943971Y-83007101D01*
X155841647Y-82853962D01*
X155711413Y-82723728D01*
X155558274Y-82621404D01*
X155388114Y-82550922D01*
X155207474Y-82514990D01*
X155023296Y-82514990D01*
X154842656Y-82550922D01*
X154672496Y-82621404D01*
X154663958Y-82627109D01*
X154649068Y-82552251D01*
X154578586Y-82382091D01*
X154476262Y-82228952D01*
X154346028Y-82098718D01*
X154192889Y-81996394D01*
X154022729Y-81925912D01*
X153842089Y-81889980D01*
X153657911Y-81889980D01*
X153477271Y-81925912D01*
X153307111Y-81996394D01*
X153153972Y-82098718D01*
X153023738Y-82228952D01*
X152943784Y-82348612D01*
X152960000Y-82267089D01*
X152960000Y-82082911D01*
X152924068Y-81902271D01*
X152853586Y-81732111D01*
X152751262Y-81578972D01*
X152621028Y-81448738D01*
X152467889Y-81346414D01*
X152297729Y-81275932D01*
X152117089Y-81240000D01*
X151932911Y-81240000D01*
X151752271Y-81275932D01*
X151582111Y-81346414D01*
X151479465Y-81415000D01*
X150329800Y-81415000D01*
X150297431Y-81252271D01*
X150226949Y-81082111D01*
X150158363Y-80979465D01*
X150158363Y-80807911D01*
X154240000Y-80807911D01*
X154240000Y-80992089D01*
X154275932Y-81172729D01*
X154346414Y-81342889D01*
X154448738Y-81496028D01*
X154578972Y-81626262D01*
X154732111Y-81728586D01*
X154902271Y-81799068D01*
X155082911Y-81835000D01*
X155267089Y-81835000D01*
X155447729Y-81799068D01*
X155617889Y-81728586D01*
X155757951Y-81635000D01*
X157579465Y-81635000D01*
X157682111Y-81703586D01*
X157852271Y-81774068D01*
X158032911Y-81810000D01*
X158217089Y-81810000D01*
X158397729Y-81774068D01*
X158567889Y-81703586D01*
X158721028Y-81601262D01*
X158851262Y-81471028D01*
X158953586Y-81317889D01*
X159024068Y-81147729D01*
X159060000Y-80967089D01*
X159060000Y-80782911D01*
X159024068Y-80602271D01*
X158953586Y-80432111D01*
X158851262Y-80278972D01*
X158721028Y-80148738D01*
X158567889Y-80046414D01*
X158397729Y-79975932D01*
X158217089Y-79940000D01*
X158032911Y-79940000D01*
X157852271Y-79975932D01*
X157682111Y-80046414D01*
X157579465Y-80115000D01*
X155683120Y-80115000D01*
X155617889Y-80071414D01*
X155447729Y-80000932D01*
X155267089Y-79965000D01*
X155082911Y-79965000D01*
X154902271Y-80000932D01*
X154732111Y-80071414D01*
X154578972Y-80173738D01*
X154448738Y-80303972D01*
X154346414Y-80457111D01*
X154275932Y-80627271D01*
X154240000Y-80807911D01*
X150158363Y-80807911D01*
X150158363Y-80545407D01*
X150243279Y-80528516D01*
X150413439Y-80458034D01*
X150522742Y-80385000D01*
X151304465Y-80385000D01*
X151407111Y-80453586D01*
X151577271Y-80524068D01*
X151757911Y-80560000D01*
X151942089Y-80560000D01*
X152122729Y-80524068D01*
X152292889Y-80453586D01*
X152446028Y-80351262D01*
X152576262Y-80221028D01*
X152678586Y-80067889D01*
X152749068Y-79897729D01*
X152758797Y-79848816D01*
X160885000Y-79848816D01*
X160885000Y-80151184D01*
X160943989Y-80447743D01*
X161059701Y-80727095D01*
X161227688Y-80978505D01*
X161441495Y-81192312D01*
X161692905Y-81360299D01*
X161972257Y-81476011D01*
X162268816Y-81535000D01*
X162571184Y-81535000D01*
X162867743Y-81476011D01*
X163147095Y-81360299D01*
X163398505Y-81192312D01*
X163612312Y-80978505D01*
X163780299Y-80727095D01*
X163896011Y-80447743D01*
X163955000Y-80151184D01*
X163955000Y-79848816D01*
X165965000Y-79848816D01*
X165965000Y-80151184D01*
X166023989Y-80447743D01*
X166139701Y-80727095D01*
X166307688Y-80978505D01*
X166521495Y-81192312D01*
X166772905Y-81360299D01*
X167052257Y-81476011D01*
X167348816Y-81535000D01*
X167651184Y-81535000D01*
X167947743Y-81476011D01*
X168227095Y-81360299D01*
X168478505Y-81192312D01*
X168692312Y-80978505D01*
X168860299Y-80727095D01*
X168976011Y-80447743D01*
X169035000Y-80151184D01*
X169035000Y-79848816D01*
X168976011Y-79552257D01*
X168860299Y-79272905D01*
X168692312Y-79021495D01*
X168478505Y-78807688D01*
X168227095Y-78639701D01*
X167947743Y-78523989D01*
X167651184Y-78465000D01*
X167348816Y-78465000D01*
X167052257Y-78523989D01*
X166772905Y-78639701D01*
X166521495Y-78807688D01*
X166307688Y-79021495D01*
X166139701Y-79272905D01*
X166023989Y-79552257D01*
X165965000Y-79848816D01*
X163955000Y-79848816D01*
X163896011Y-79552257D01*
X163780299Y-79272905D01*
X163612312Y-79021495D01*
X163398505Y-78807688D01*
X163147095Y-78639701D01*
X162867743Y-78523989D01*
X162571184Y-78465000D01*
X162268816Y-78465000D01*
X161972257Y-78523989D01*
X161692905Y-78639701D01*
X161441495Y-78807688D01*
X161227688Y-79021495D01*
X161059701Y-79272905D01*
X160943989Y-79552257D01*
X160885000Y-79848816D01*
X152758797Y-79848816D01*
X152785000Y-79717089D01*
X152785000Y-79532911D01*
X152749068Y-79352271D01*
X152678586Y-79182111D01*
X152576262Y-79028972D01*
X152446028Y-78898738D01*
X152292889Y-78796414D01*
X152122729Y-78725932D01*
X151942089Y-78690000D01*
X151757911Y-78690000D01*
X151577271Y-78725932D01*
X151407111Y-78796414D01*
X151304465Y-78865000D01*
X150509428Y-78865000D01*
X150413439Y-78800862D01*
X150243279Y-78730380D01*
X150062639Y-78694448D01*
X149878461Y-78694448D01*
X149697821Y-78730380D01*
X149527661Y-78800862D01*
X149374522Y-78903186D01*
X149244288Y-79033420D01*
X149141964Y-79186559D01*
X149071482Y-79356719D01*
X149047397Y-79477799D01*
X148887361Y-79637836D01*
X148858363Y-79661634D01*
X148834565Y-79690632D01*
X148834564Y-79690633D01*
X148763389Y-79777359D01*
X148692817Y-79909389D01*
X148672632Y-79975932D01*
X148649361Y-80052649D01*
X148648900Y-80057332D01*
X148634687Y-80201635D01*
X148638364Y-80238967D01*
X148638363Y-80979464D01*
X148569777Y-81082111D01*
X148499295Y-81252271D01*
X148466926Y-81415000D01*
X146289802Y-81415000D01*
X141473153Y-76598352D01*
X141449068Y-76477271D01*
X141378586Y-76307111D01*
X141276262Y-76153972D01*
X141146028Y-76023738D01*
X140992889Y-75921414D01*
X140822729Y-75850932D01*
X140642089Y-75815000D01*
X140457911Y-75815000D01*
X140277271Y-75850932D01*
X140107111Y-75921414D01*
X139953972Y-76023738D01*
X139823738Y-76153972D01*
X139721414Y-76307111D01*
X139650932Y-76477271D01*
X139615000Y-76657911D01*
X139615000Y-76790000D01*
X135807109Y-76790000D01*
X135995178Y-76581355D01*
X136144157Y-76331252D01*
X136241481Y-76056891D01*
X136120814Y-75827000D01*
X134927000Y-75827000D01*
X134927000Y-75847000D01*
X134673000Y-75847000D01*
X134673000Y-75827000D01*
X134653000Y-75827000D01*
X134653000Y-75573000D01*
X134673000Y-75573000D01*
X134673000Y-75553000D01*
X134927000Y-75553000D01*
X134927000Y-75573000D01*
X136120814Y-75573000D01*
X136241481Y-75343109D01*
X136153470Y-75095001D01*
X140245200Y-75095001D01*
X143651847Y-78501649D01*
X143675932Y-78622729D01*
X143746414Y-78792889D01*
X143848738Y-78946028D01*
X143978972Y-79076262D01*
X144132111Y-79178586D01*
X144302271Y-79249068D01*
X144482911Y-79285000D01*
X144667089Y-79285000D01*
X144847729Y-79249068D01*
X145017889Y-79178586D01*
X145171028Y-79076262D01*
X145301262Y-78946028D01*
X145403586Y-78792889D01*
X145474068Y-78622729D01*
X145510000Y-78442089D01*
X145510000Y-78257911D01*
X145474068Y-78077271D01*
X145403586Y-77907111D01*
X145301262Y-77753972D01*
X145171028Y-77623738D01*
X145017889Y-77521414D01*
X144847729Y-77450932D01*
X144726649Y-77426847D01*
X141123805Y-73824004D01*
X141100002Y-73795000D01*
X140984277Y-73700027D01*
X140852248Y-73629455D01*
X140708987Y-73585998D01*
X140597334Y-73575001D01*
X140597323Y-73575001D01*
X140560001Y-73571325D01*
X140522679Y-73575001D01*
X136288072Y-73575001D01*
X136288072Y-72310000D01*
X136275812Y-72185518D01*
X136239502Y-72065820D01*
X136180537Y-71955506D01*
X136101185Y-71858815D01*
X136004494Y-71779463D01*
X135894180Y-71720498D01*
X135774482Y-71684188D01*
X135650000Y-71671928D01*
X133950000Y-71671928D01*
X133825518Y-71684188D01*
X133705820Y-71720498D01*
X133595506Y-71779463D01*
X133498815Y-71858815D01*
X133419463Y-71955506D01*
X133360498Y-72065820D01*
X133338487Y-72138380D01*
X133206632Y-72006525D01*
X132963411Y-71844010D01*
X132693158Y-71732068D01*
X132406260Y-71675000D01*
X132113740Y-71675000D01*
X131826842Y-71732068D01*
X131556589Y-71844010D01*
X131313368Y-72006525D01*
X131106525Y-72213368D01*
X130990000Y-72387760D01*
X130873475Y-72213368D01*
X130666632Y-72006525D01*
X130423411Y-71844010D01*
X130153158Y-71732068D01*
X129866260Y-71675000D01*
X129573740Y-71675000D01*
X129286842Y-71732068D01*
X129016589Y-71844010D01*
X128773368Y-72006525D01*
X128566525Y-72213368D01*
X128404010Y-72456589D01*
X128292068Y-72726842D01*
X128235000Y-73013740D01*
X128235000Y-73306260D01*
X128292068Y-73593158D01*
X128404010Y-73863411D01*
X128566525Y-74106632D01*
X128773368Y-74313475D01*
X128947760Y-74430000D01*
X128773368Y-74546525D01*
X128566525Y-74753368D01*
X128404010Y-74996589D01*
X128292068Y-75266842D01*
X128235000Y-75553740D01*
X128235000Y-75846260D01*
X128292068Y-76133158D01*
X128404010Y-76403411D01*
X128566525Y-76646632D01*
X128709893Y-76790000D01*
X123189802Y-76790000D01*
X117238803Y-70839002D01*
X117215000Y-70809998D01*
X117099275Y-70715025D01*
X116967246Y-70644453D01*
X116823985Y-70600996D01*
X116712332Y-70589999D01*
X116712321Y-70589999D01*
X116674999Y-70586323D01*
X116637677Y-70589999D01*
X111862324Y-70589999D01*
X111825001Y-70586323D01*
X111787678Y-70589999D01*
X111787668Y-70589999D01*
X111676015Y-70600996D01*
X111570804Y-70632911D01*
X111532754Y-70644453D01*
X111400724Y-70715025D01*
X111388570Y-70725000D01*
X111285000Y-70809998D01*
X111261201Y-70838997D01*
X111048351Y-71051847D01*
X110927271Y-71075932D01*
X110757111Y-71146414D01*
X110603972Y-71248738D01*
X110473738Y-71378972D01*
X110371414Y-71532111D01*
X110300932Y-71702271D01*
X110265000Y-71882911D01*
X110265000Y-72067089D01*
X110300932Y-72247729D01*
X110371414Y-72417889D01*
X110473738Y-72571028D01*
X110603972Y-72701262D01*
X110757111Y-72803586D01*
X110927271Y-72874068D01*
X111107911Y-72910000D01*
X111292089Y-72910000D01*
X111472729Y-72874068D01*
X111642889Y-72803586D01*
X111796028Y-72701262D01*
X111926262Y-72571028D01*
X112028586Y-72417889D01*
X112099068Y-72247729D01*
X112123153Y-72126649D01*
X112139803Y-72109999D01*
X115473535Y-72109999D01*
X115500932Y-72247729D01*
X115571414Y-72417889D01*
X115673738Y-72571028D01*
X115803972Y-72701262D01*
X115957111Y-72803586D01*
X116127271Y-72874068D01*
X116248352Y-72898153D01*
X122061205Y-78711008D01*
X122084999Y-78740001D01*
X122113992Y-78763795D01*
X122113996Y-78763799D01*
X122149443Y-78792889D01*
X122200724Y-78834974D01*
X122332753Y-78905546D01*
X122476014Y-78949003D01*
X122587667Y-78960000D01*
X122587676Y-78960000D01*
X122624999Y-78963676D01*
X122662322Y-78960000D01*
X126289183Y-78960000D01*
X126227688Y-79021495D01*
X126059701Y-79272905D01*
X125943989Y-79552257D01*
X125885000Y-79848816D01*
X125885000Y-80151184D01*
X125943989Y-80447743D01*
X126059701Y-80727095D01*
X126227688Y-80978505D01*
X126441495Y-81192312D01*
X126692905Y-81360299D01*
X126715001Y-81369451D01*
X126715000Y-84079464D01*
X126646414Y-84182111D01*
X126575932Y-84352271D01*
X126540000Y-84532911D01*
X126540000Y-84717089D01*
X126559476Y-84815000D01*
X124339802Y-84815000D01*
X120548153Y-81023352D01*
X120524068Y-80902271D01*
X120453586Y-80732111D01*
X120351262Y-80578972D01*
X120221028Y-80448738D01*
X120067889Y-80346414D01*
X119897729Y-80275932D01*
X119717089Y-80240000D01*
X119532911Y-80240000D01*
X119352271Y-80275932D01*
X119182111Y-80346414D01*
X119028972Y-80448738D01*
X118898738Y-80578972D01*
X118796414Y-80732111D01*
X118725932Y-80902271D01*
X118690000Y-81082911D01*
X118690000Y-81267089D01*
X118694462Y-81289522D01*
X118557111Y-81346414D01*
X118403972Y-81448738D01*
X118273738Y-81578972D01*
X118171414Y-81732111D01*
X118100932Y-81902271D01*
X118065000Y-82082911D01*
X118065000Y-82267089D01*
X118100932Y-82447729D01*
X118171414Y-82617889D01*
X118273738Y-82771028D01*
X118403972Y-82901262D01*
X118557111Y-83003586D01*
X118727271Y-83074068D01*
X118854593Y-83099394D01*
X124148833Y-88393636D01*
X124120000Y-88538589D01*
X124120000Y-88811411D01*
X124165470Y-89040000D01*
X121810524Y-89040000D01*
X121810000Y-88960750D01*
X121651250Y-88802000D01*
X120552000Y-88802000D01*
X120552000Y-88822000D01*
X120298000Y-88822000D01*
X120298000Y-88802000D01*
X119198750Y-88802000D01*
X119040000Y-88960750D01*
X119039476Y-89040000D01*
X116537323Y-89040000D01*
X116500000Y-89036324D01*
X116462677Y-89040000D01*
X116462667Y-89040000D01*
X116351014Y-89050997D01*
X116207753Y-89094454D01*
X116075723Y-89165026D01*
X116014830Y-89215000D01*
X115959999Y-89259999D01*
X115936201Y-89288997D01*
X115085199Y-90140000D01*
X106320535Y-90140000D01*
X106217889Y-90071414D01*
X106047729Y-90000932D01*
X105867089Y-89965000D01*
X105682911Y-89965000D01*
X105502271Y-90000932D01*
X105332111Y-90071414D01*
X105178972Y-90173738D01*
X105048738Y-90303972D01*
X104946414Y-90457111D01*
X104875932Y-90627271D01*
X104840000Y-90807911D01*
X104840000Y-90992089D01*
X104875932Y-91172729D01*
X104946414Y-91342889D01*
X105048738Y-91496028D01*
X105178972Y-91626262D01*
X105332111Y-91728586D01*
X105502271Y-91799068D01*
X105682911Y-91835000D01*
X105867089Y-91835000D01*
X106047729Y-91799068D01*
X106217889Y-91728586D01*
X106320535Y-91660000D01*
X113390000Y-91660000D01*
X113390000Y-91692089D01*
X113425932Y-91872729D01*
X113496414Y-92042889D01*
X113573140Y-92157718D01*
X112344605Y-92157718D01*
X112307282Y-92154042D01*
X112269959Y-92157718D01*
X112269949Y-92157718D01*
X112158296Y-92168715D01*
X112015035Y-92212172D01*
X111883006Y-92282744D01*
X111767281Y-92377717D01*
X111743483Y-92406715D01*
X106798352Y-97351847D01*
X106677271Y-97375932D01*
X106507111Y-97446414D01*
X106365701Y-97540901D01*
X96749800Y-87925000D01*
X119036928Y-87925000D01*
X119040000Y-88389250D01*
X119198750Y-88548000D01*
X120298000Y-88548000D01*
X120298000Y-87448750D01*
X120552000Y-87448750D01*
X120552000Y-88548000D01*
X121651250Y-88548000D01*
X121810000Y-88389250D01*
X121813072Y-87925000D01*
X121800812Y-87800518D01*
X121764502Y-87680820D01*
X121705537Y-87570506D01*
X121626185Y-87473815D01*
X121529494Y-87394463D01*
X121419180Y-87335498D01*
X121299482Y-87299188D01*
X121175000Y-87286928D01*
X120710750Y-87290000D01*
X120552000Y-87448750D01*
X120298000Y-87448750D01*
X120139250Y-87290000D01*
X119675000Y-87286928D01*
X119550518Y-87299188D01*
X119430820Y-87335498D01*
X119320506Y-87394463D01*
X119223815Y-87473815D01*
X119144463Y-87570506D01*
X119085498Y-87680820D01*
X119049188Y-87800518D01*
X119036928Y-87925000D01*
X96749800Y-87925000D01*
X93180000Y-84355201D01*
X93180000Y-81338313D01*
X93398505Y-81192312D01*
X93612312Y-80978505D01*
X93780299Y-80727095D01*
X93896011Y-80447743D01*
X93955000Y-80151184D01*
X93955000Y-79848816D01*
X95965000Y-79848816D01*
X95965000Y-80151184D01*
X96023989Y-80447743D01*
X96139701Y-80727095D01*
X96307688Y-80978505D01*
X96521495Y-81192312D01*
X96772905Y-81360299D01*
X97052257Y-81476011D01*
X97348816Y-81535000D01*
X97651184Y-81535000D01*
X97947743Y-81476011D01*
X98227095Y-81360299D01*
X98478505Y-81192312D01*
X98692312Y-80978505D01*
X98838313Y-80760000D01*
X100062678Y-80760000D01*
X100100000Y-80763676D01*
X100137322Y-80760000D01*
X100137333Y-80760000D01*
X100248986Y-80749003D01*
X100392247Y-80705546D01*
X100524276Y-80634974D01*
X100640001Y-80540001D01*
X100663804Y-80510997D01*
X101045000Y-80129801D01*
X101045000Y-80151184D01*
X101103989Y-80447743D01*
X101219701Y-80727095D01*
X101387688Y-80978505D01*
X101601495Y-81192312D01*
X101852905Y-81360299D01*
X102132257Y-81476011D01*
X102428816Y-81535000D01*
X102731184Y-81535000D01*
X103027743Y-81476011D01*
X103307095Y-81360299D01*
X103558505Y-81192312D01*
X103772312Y-80978505D01*
X103940299Y-80727095D01*
X104056011Y-80447743D01*
X104115000Y-80151184D01*
X104115000Y-79848816D01*
X104056011Y-79552257D01*
X103940299Y-79272905D01*
X103772312Y-79021495D01*
X103558505Y-78807688D01*
X103307095Y-78639701D01*
X103027743Y-78523989D01*
X102731184Y-78465000D01*
X102709801Y-78465000D01*
X104876649Y-76298153D01*
X104997729Y-76274068D01*
X105167889Y-76203586D01*
X105321028Y-76101262D01*
X105451262Y-75971028D01*
X105553586Y-75817889D01*
X105624068Y-75647729D01*
X105660000Y-75467089D01*
X105660000Y-75282911D01*
X105624068Y-75102271D01*
X105553586Y-74932111D01*
X105451262Y-74778972D01*
X105321028Y-74648738D01*
X105167889Y-74546414D01*
X104997729Y-74475932D01*
X104817089Y-74440000D01*
X104632911Y-74440000D01*
X104452271Y-74475932D01*
X104282111Y-74546414D01*
X104128972Y-74648738D01*
X103998738Y-74778972D01*
X103896414Y-74932111D01*
X103825932Y-75102271D01*
X103801847Y-75223351D01*
X99785199Y-79240000D01*
X98838313Y-79240000D01*
X98692312Y-79021495D01*
X98478505Y-78807688D01*
X98227095Y-78639701D01*
X97947743Y-78523989D01*
X97651184Y-78465000D01*
X97348816Y-78465000D01*
X97052257Y-78523989D01*
X96772905Y-78639701D01*
X96521495Y-78807688D01*
X96307688Y-79021495D01*
X96139701Y-79272905D01*
X96023989Y-79552257D01*
X95965000Y-79848816D01*
X93955000Y-79848816D01*
X93896011Y-79552257D01*
X93780299Y-79272905D01*
X93612312Y-79021495D01*
X93398505Y-78807688D01*
X93147095Y-78639701D01*
X92867743Y-78523989D01*
X92571184Y-78465000D01*
X92268816Y-78465000D01*
X91972257Y-78523989D01*
X91692905Y-78639701D01*
X91441495Y-78807688D01*
X91227688Y-79021495D01*
X91059701Y-79272905D01*
X90943989Y-79552257D01*
X90885000Y-79848816D01*
X90885000Y-80151184D01*
X90943989Y-80447743D01*
X91059701Y-80727095D01*
X91227688Y-80978505D01*
X91441495Y-81192312D01*
X91660001Y-81338313D01*
X91660000Y-84632679D01*
X91656324Y-84670002D01*
X91660000Y-84707324D01*
X91660000Y-84707334D01*
X91670997Y-84818987D01*
X91702935Y-84924275D01*
X91714454Y-84962248D01*
X91785026Y-85094278D01*
X91818425Y-85134974D01*
X91879999Y-85210003D01*
X91909003Y-85233806D01*
X106086200Y-99411004D01*
X106109998Y-99440002D01*
X106138996Y-99463800D01*
X106225723Y-99534975D01*
X106357752Y-99605547D01*
X106501013Y-99649004D01*
X106649999Y-99663678D01*
X106687332Y-99660001D01*
X115242677Y-99660001D01*
X115279999Y-99663677D01*
X115317321Y-99660001D01*
X115317332Y-99660001D01*
X115428985Y-99649004D01*
X115572246Y-99605547D01*
X115704275Y-99534975D01*
X115820000Y-99440002D01*
X115843803Y-99410998D01*
X119040000Y-96214802D01*
X119040000Y-96431411D01*
X119093225Y-96698989D01*
X119197629Y-96951043D01*
X119349201Y-97177886D01*
X119542114Y-97370799D01*
X119768957Y-97522371D01*
X119871873Y-97565000D01*
X119768957Y-97607629D01*
X119542114Y-97759201D01*
X119349201Y-97952114D01*
X119197629Y-98178957D01*
X119093225Y-98431011D01*
X119040000Y-98698589D01*
X119040000Y-98971411D01*
X119068833Y-99116365D01*
X109720198Y-108465001D01*
X104048862Y-108465001D01*
X104056011Y-108447743D01*
X104115000Y-108151184D01*
X104115000Y-107848816D01*
X104056011Y-107552257D01*
X103940299Y-107272905D01*
X103772312Y-107021495D01*
X103558505Y-106807688D01*
X103307095Y-106639701D01*
X103027743Y-106523989D01*
X102731184Y-106465000D01*
X102428816Y-106465000D01*
X102132257Y-106523989D01*
X101852905Y-106639701D01*
X101601495Y-106807688D01*
X101387688Y-107021495D01*
X101219701Y-107272905D01*
X101103989Y-107552257D01*
X101045000Y-107848816D01*
X101045000Y-108151184D01*
X101103989Y-108447743D01*
X101111138Y-108465001D01*
X98968862Y-108465001D01*
X98976011Y-108447743D01*
X99035000Y-108151184D01*
X99035000Y-107848816D01*
X98976011Y-107552257D01*
X98860299Y-107272905D01*
X98692312Y-107021495D01*
X98478505Y-106807688D01*
X98260000Y-106661687D01*
X98260000Y-92683120D01*
X98303586Y-92617889D01*
X98374068Y-92447729D01*
X98410000Y-92267089D01*
X98410000Y-92082911D01*
X98374068Y-91902271D01*
X98303586Y-91732111D01*
X98201262Y-91578972D01*
X98071028Y-91448738D01*
X97917889Y-91346414D01*
X97747729Y-91275932D01*
X97567089Y-91240000D01*
X97382911Y-91240000D01*
X97202271Y-91275932D01*
X97032111Y-91346414D01*
X96878972Y-91448738D01*
X96748738Y-91578972D01*
X96646414Y-91732111D01*
X96575932Y-91902271D01*
X96540000Y-92082911D01*
X96540000Y-92267089D01*
X96575932Y-92447729D01*
X96646414Y-92617889D01*
X96740001Y-92757952D01*
X96740000Y-106661687D01*
X96521495Y-106807688D01*
X96307688Y-107021495D01*
X96139701Y-107272905D01*
X96023989Y-107552257D01*
X95965000Y-107848816D01*
X95965000Y-108151184D01*
X96023989Y-108447743D01*
X96031138Y-108465001D01*
X93959803Y-108465001D01*
X93903731Y-108408930D01*
X93955000Y-108151184D01*
X93955000Y-107848816D01*
X93896011Y-107552257D01*
X93780299Y-107272905D01*
X93612312Y-107021495D01*
X93398505Y-106807688D01*
X93147095Y-106639701D01*
X92867743Y-106523989D01*
X92571184Y-106465000D01*
X92268816Y-106465000D01*
X91972257Y-106523989D01*
X91692905Y-106639701D01*
X91441495Y-106807688D01*
X91227688Y-107021495D01*
X91059701Y-107272905D01*
X90943989Y-107552257D01*
X90885000Y-107848816D01*
X90885000Y-108151184D01*
X90943989Y-108447743D01*
X91059701Y-108727095D01*
X91227688Y-108978505D01*
X91441495Y-109192312D01*
X91692905Y-109360299D01*
X91972257Y-109476011D01*
X92268816Y-109535000D01*
X92571184Y-109535000D01*
X92828930Y-109483731D01*
X93081202Y-109736004D01*
X93105000Y-109765002D01*
X93133998Y-109788800D01*
X93220724Y-109859975D01*
X93352754Y-109930547D01*
X93496015Y-109974004D01*
X93607668Y-109985001D01*
X93607677Y-109985001D01*
X93645000Y-109988677D01*
X93682323Y-109985001D01*
X109997677Y-109985001D01*
X110034999Y-109988677D01*
X110072321Y-109985001D01*
X110072332Y-109985001D01*
X110183985Y-109974004D01*
X110327246Y-109930547D01*
X110459275Y-109859975D01*
X110575000Y-109765002D01*
X110598803Y-109735998D01*
X110684801Y-109650000D01*
X111511928Y-109650000D01*
X111511928Y-111150000D01*
X111528992Y-111323254D01*
X111579528Y-111489850D01*
X111661595Y-111643386D01*
X111772038Y-111777962D01*
X111906614Y-111888405D01*
X112060150Y-111970472D01*
X112226746Y-112021008D01*
X112400000Y-112038072D01*
X113600000Y-112038072D01*
X113773254Y-112021008D01*
X113939850Y-111970472D01*
X114093386Y-111888405D01*
X114227962Y-111777962D01*
X114338405Y-111643386D01*
X114392777Y-111541663D01*
X114444866Y-111605134D01*
X114670987Y-111790706D01*
X114928967Y-111928599D01*
X115208890Y-112013513D01*
X115500000Y-112042185D01*
X115791111Y-112013513D01*
X116071034Y-111928599D01*
X116329014Y-111790706D01*
X116555134Y-111605134D01*
X116740706Y-111379014D01*
X116878599Y-111121033D01*
X116963513Y-110841110D01*
X116985000Y-110622949D01*
X116985000Y-110177050D01*
X116963513Y-109958889D01*
X116878599Y-109678966D01*
X116740706Y-109420986D01*
X116555134Y-109194866D01*
X116329013Y-109009294D01*
X116071033Y-108871401D01*
X115791110Y-108786487D01*
X115500000Y-108757815D01*
X115208889Y-108786487D01*
X114928966Y-108871401D01*
X114670986Y-109009294D01*
X114444866Y-109194866D01*
X114392777Y-109258337D01*
X114338405Y-109156614D01*
X114227962Y-109022038D01*
X114093386Y-108911595D01*
X113939850Y-108829528D01*
X113773254Y-108778992D01*
X113600000Y-108761928D01*
X112400000Y-108761928D01*
X112226746Y-108778992D01*
X112060150Y-108829528D01*
X111906614Y-108911595D01*
X111772038Y-109022038D01*
X111661595Y-109156614D01*
X111579528Y-109310150D01*
X111528992Y-109476746D01*
X111511928Y-109650000D01*
X110684801Y-109650000D01*
X120143635Y-100191167D01*
X120288589Y-100220000D01*
X120561411Y-100220000D01*
X120828989Y-100166775D01*
X121081043Y-100062371D01*
X121307886Y-99910799D01*
X121500799Y-99717886D01*
X121652371Y-99491043D01*
X121756775Y-99238989D01*
X121810000Y-98971411D01*
X121810000Y-98698589D01*
X121756775Y-98431011D01*
X121652371Y-98178957D01*
X121500799Y-97952114D01*
X121307886Y-97759201D01*
X121081043Y-97607629D01*
X120978127Y-97565000D01*
X121081043Y-97522371D01*
X121307886Y-97370799D01*
X121500799Y-97177886D01*
X121652371Y-96951043D01*
X121756775Y-96698989D01*
X121810000Y-96431411D01*
X121810000Y-96158589D01*
X121756775Y-95891011D01*
X121652371Y-95638957D01*
X121500799Y-95412114D01*
X121307886Y-95219201D01*
X121081043Y-95067629D01*
X120978127Y-95025000D01*
X121081043Y-94982371D01*
X121307886Y-94830799D01*
X121500799Y-94637886D01*
X121652371Y-94411043D01*
X121756775Y-94158989D01*
X121810000Y-93891411D01*
X121810000Y-93674801D01*
X124148833Y-96013635D01*
X124120000Y-96158589D01*
X124120000Y-96431411D01*
X124173225Y-96698989D01*
X124277629Y-96951043D01*
X124429201Y-97177886D01*
X124622114Y-97370799D01*
X124848957Y-97522371D01*
X124951873Y-97565000D01*
X124848957Y-97607629D01*
X124622114Y-97759201D01*
X124429201Y-97952114D01*
X124277629Y-98178957D01*
X124173225Y-98431011D01*
X124120000Y-98698589D01*
X124120000Y-98971411D01*
X124173225Y-99238989D01*
X124277629Y-99491043D01*
X124429201Y-99717886D01*
X124622114Y-99910799D01*
X124848957Y-100062371D01*
X125101011Y-100166775D01*
X125368589Y-100220000D01*
X125641411Y-100220000D01*
X125786365Y-100191167D01*
X127885001Y-102289803D01*
X127885002Y-106531138D01*
X127867743Y-106523989D01*
X127571184Y-106465000D01*
X127268816Y-106465000D01*
X126972257Y-106523989D01*
X126692905Y-106639701D01*
X126441495Y-106807688D01*
X126227688Y-107021495D01*
X126059701Y-107272905D01*
X125943989Y-107552257D01*
X125885000Y-107848816D01*
X125885000Y-108151184D01*
X125943989Y-108447743D01*
X126059701Y-108727095D01*
X126227688Y-108978505D01*
X126441495Y-109192312D01*
X126692905Y-109360299D01*
X126972257Y-109476011D01*
X127268816Y-109535000D01*
X127571184Y-109535000D01*
X127867743Y-109476011D01*
X128147095Y-109360299D01*
X128398505Y-109192312D01*
X128612312Y-108978505D01*
X128780299Y-108727095D01*
X128801386Y-108676187D01*
X129861202Y-109736004D01*
X129885000Y-109765002D01*
X129913998Y-109788800D01*
X130000724Y-109859975D01*
X130132754Y-109930547D01*
X130276015Y-109974004D01*
X130387668Y-109985001D01*
X130387677Y-109985001D01*
X130425000Y-109988677D01*
X130462323Y-109985001D01*
X136317677Y-109985001D01*
X136354999Y-109988677D01*
X136392321Y-109985001D01*
X136392332Y-109985001D01*
X136503985Y-109974004D01*
X136647246Y-109930547D01*
X136779275Y-109859975D01*
X136895000Y-109765002D01*
X136918803Y-109735998D01*
X137171070Y-109483731D01*
X137428816Y-109535000D01*
X137731184Y-109535000D01*
X138027743Y-109476011D01*
X138307095Y-109360299D01*
X138558505Y-109192312D01*
X138772312Y-108978505D01*
X138940299Y-108727095D01*
X139056011Y-108447743D01*
X139115000Y-108151184D01*
X139115000Y-107848816D01*
X139056011Y-107552257D01*
X138940299Y-107272905D01*
X138772312Y-107021495D01*
X138558505Y-106807688D01*
X138307095Y-106639701D01*
X138027743Y-106523989D01*
X137731184Y-106465000D01*
X137428816Y-106465000D01*
X137132257Y-106523989D01*
X136852905Y-106639701D01*
X136601495Y-106807688D01*
X136387688Y-107021495D01*
X136219701Y-107272905D01*
X136103989Y-107552257D01*
X136045000Y-107848816D01*
X136045000Y-108151184D01*
X136096269Y-108408930D01*
X136040198Y-108465001D01*
X133968862Y-108465001D01*
X133976011Y-108447743D01*
X134035000Y-108151184D01*
X134035000Y-107848816D01*
X133976011Y-107552257D01*
X133860299Y-107272905D01*
X133692312Y-107021495D01*
X133478505Y-106807688D01*
X133260000Y-106661687D01*
X133260000Y-94180578D01*
X133407911Y-94210000D01*
X133592089Y-94210000D01*
X133772729Y-94174068D01*
X133942889Y-94103586D01*
X134045535Y-94035000D01*
X135860199Y-94035000D01*
X137751847Y-95926649D01*
X137775932Y-96047729D01*
X137846414Y-96217889D01*
X137948738Y-96371028D01*
X138078972Y-96501262D01*
X138232111Y-96603586D01*
X138402271Y-96674068D01*
X138582911Y-96710000D01*
X138767089Y-96710000D01*
X138947729Y-96674068D01*
X139117889Y-96603586D01*
X139140001Y-96588811D01*
X139140000Y-98804464D01*
X139071414Y-98907111D01*
X139000932Y-99077271D01*
X138965000Y-99257911D01*
X138965000Y-99442089D01*
X139000932Y-99622729D01*
X139071414Y-99792889D01*
X139173738Y-99946028D01*
X139303972Y-100076262D01*
X139457111Y-100178586D01*
X139627271Y-100249068D01*
X139807911Y-100285000D01*
X139992089Y-100285000D01*
X140172729Y-100249068D01*
X140342889Y-100178586D01*
X140496028Y-100076262D01*
X140626262Y-99946028D01*
X140728586Y-99792889D01*
X140799068Y-99622729D01*
X140835000Y-99442089D01*
X140835000Y-99257911D01*
X140799068Y-99077271D01*
X140728586Y-98907111D01*
X140660000Y-98804465D01*
X140660000Y-96555000D01*
X147731957Y-96555000D01*
X147835363Y-96709759D01*
X148035241Y-96909637D01*
X148270273Y-97066680D01*
X148531426Y-97174853D01*
X148808665Y-97230000D01*
X149091335Y-97230000D01*
X149368574Y-97174853D01*
X149629727Y-97066680D01*
X149864759Y-96909637D01*
X150049797Y-96724599D01*
X152776847Y-99451649D01*
X152800932Y-99572729D01*
X152871414Y-99742889D01*
X152973738Y-99896028D01*
X153103972Y-100026262D01*
X153257111Y-100128586D01*
X153427271Y-100199068D01*
X153607911Y-100235000D01*
X153792089Y-100235000D01*
X153972729Y-100199068D01*
X154142889Y-100128586D01*
X154296028Y-100026262D01*
X154426262Y-99896028D01*
X154528586Y-99742889D01*
X154599068Y-99572729D01*
X154635000Y-99392089D01*
X154635000Y-99207911D01*
X154599068Y-99027271D01*
X154528586Y-98857111D01*
X154426262Y-98703972D01*
X154296028Y-98573738D01*
X154142889Y-98471414D01*
X153972729Y-98400932D01*
X153851649Y-98376847D01*
X151010000Y-95535199D01*
X151010000Y-94170535D01*
X151078586Y-94067889D01*
X151149068Y-93897729D01*
X151185000Y-93717089D01*
X151185000Y-93532911D01*
X151149068Y-93352271D01*
X151078586Y-93182111D01*
X150976262Y-93028972D01*
X150846028Y-92898738D01*
X150692889Y-92796414D01*
X150522729Y-92725932D01*
X150342089Y-92690000D01*
X150334801Y-92690000D01*
X151026649Y-91998153D01*
X151147729Y-91974068D01*
X151317889Y-91903586D01*
X151471028Y-91801262D01*
X151486244Y-91786046D01*
X152940001Y-93239804D01*
X152940000Y-94551956D01*
X152785241Y-94655363D01*
X152585363Y-94855241D01*
X152428320Y-95090273D01*
X152320147Y-95351426D01*
X152265000Y-95628665D01*
X152265000Y-95911335D01*
X152320147Y-96188574D01*
X152428320Y-96449727D01*
X152585363Y-96684759D01*
X152785241Y-96884637D01*
X153020273Y-97041680D01*
X153281426Y-97149853D01*
X153558665Y-97205000D01*
X153841335Y-97205000D01*
X154118574Y-97149853D01*
X154379727Y-97041680D01*
X154614759Y-96884637D01*
X154814637Y-96684759D01*
X154971680Y-96449727D01*
X155079853Y-96188574D01*
X155135000Y-95911335D01*
X155135000Y-95628665D01*
X155079853Y-95351426D01*
X154971680Y-95090273D01*
X154814637Y-94855241D01*
X154614759Y-94655363D01*
X154460000Y-94551957D01*
X154460000Y-93760000D01*
X157134863Y-93760000D01*
X157075932Y-93902273D01*
X157040000Y-94082913D01*
X157040000Y-94267091D01*
X157075932Y-94447731D01*
X157146414Y-94617891D01*
X157215001Y-94720539D01*
X157215000Y-99010197D01*
X153614299Y-102610899D01*
X153576262Y-102553972D01*
X153446028Y-102423738D01*
X153292889Y-102321414D01*
X153122729Y-102250932D01*
X152942089Y-102215000D01*
X152757911Y-102215000D01*
X152577271Y-102250932D01*
X152407111Y-102321414D01*
X152253972Y-102423738D01*
X152123738Y-102553972D01*
X152021414Y-102707111D01*
X151950932Y-102877271D01*
X151926847Y-102998351D01*
X142685199Y-112240000D01*
X100230579Y-112240000D01*
X100130299Y-111997905D01*
X99962312Y-111746495D01*
X99748505Y-111532688D01*
X99497095Y-111364701D01*
X99217743Y-111248989D01*
X98921184Y-111190000D01*
X98618816Y-111190000D01*
X98322257Y-111248989D01*
X98042905Y-111364701D01*
X97791495Y-111532688D01*
X97608728Y-111715455D01*
X97584699Y-111670500D01*
X97449383Y-111505617D01*
X97284500Y-111370301D01*
X97096387Y-111269753D01*
X96892272Y-111207835D01*
X96680000Y-111186928D01*
X95780000Y-111186928D01*
X95567728Y-111207835D01*
X95363613Y-111269753D01*
X95175500Y-111370301D01*
X95010617Y-111505617D01*
X94875301Y-111670500D01*
X94774753Y-111858613D01*
X94712835Y-112062728D01*
X94691928Y-112275000D01*
X94691928Y-113175000D01*
X94712835Y-113387272D01*
X94774753Y-113591387D01*
X94875301Y-113779500D01*
X95010617Y-113944383D01*
X95175500Y-114079699D01*
X95363613Y-114180247D01*
X95567728Y-114242165D01*
X95780000Y-114263072D01*
X96680000Y-114263072D01*
X96892272Y-114242165D01*
X97096387Y-114180247D01*
X97284500Y-114079699D01*
X97449383Y-113944383D01*
X97584699Y-113779500D01*
X97608728Y-113734545D01*
X97791495Y-113917312D01*
X98042905Y-114085299D01*
X98322257Y-114201011D01*
X98618816Y-114260000D01*
X98921184Y-114260000D01*
X99217743Y-114201011D01*
X99497095Y-114085299D01*
X99748505Y-113917312D01*
X99905817Y-113760000D01*
X114540000Y-113760000D01*
X114540000Y-113767091D01*
X114575932Y-113947731D01*
X114646414Y-114117891D01*
X114748738Y-114271030D01*
X114792708Y-114315000D01*
X85685000Y-114315000D01*
X85685000Y-70014722D01*
X86865000Y-70014722D01*
X86865000Y-70435280D01*
X86947047Y-70847757D01*
X87107988Y-71236303D01*
X87341637Y-71585984D01*
X87639017Y-71883364D01*
X87988698Y-72117013D01*
X88377244Y-72277954D01*
X88789721Y-72360001D01*
X89210279Y-72360001D01*
X89622756Y-72277954D01*
X90011302Y-72117013D01*
X90360983Y-71883364D01*
X90658363Y-71585984D01*
X90892012Y-71236303D01*
X91052953Y-70847757D01*
X91135000Y-70435280D01*
X91135000Y-70014722D01*
X103095000Y-70014722D01*
X103095000Y-70435280D01*
X103177047Y-70847757D01*
X103337988Y-71236303D01*
X103571637Y-71585984D01*
X103869017Y-71883364D01*
X104218698Y-72117013D01*
X104607244Y-72277954D01*
X105019721Y-72360001D01*
X105440279Y-72360001D01*
X105852756Y-72277954D01*
X106241302Y-72117013D01*
X106590983Y-71883364D01*
X106888363Y-71585984D01*
X107122012Y-71236303D01*
X107282953Y-70847757D01*
X107325688Y-70632911D01*
X108440000Y-70632911D01*
X108440000Y-70817089D01*
X108475932Y-70997729D01*
X108546414Y-71167889D01*
X108648738Y-71321028D01*
X108778972Y-71451262D01*
X108932111Y-71553586D01*
X109102271Y-71624068D01*
X109282911Y-71660000D01*
X109467089Y-71660000D01*
X109647729Y-71624068D01*
X109817889Y-71553586D01*
X109971028Y-71451262D01*
X110101262Y-71321028D01*
X110203586Y-71167889D01*
X110274068Y-70997729D01*
X110298153Y-70876648D01*
X112676649Y-68498153D01*
X112797729Y-68474068D01*
X112967889Y-68403586D01*
X113121028Y-68301262D01*
X113251262Y-68171028D01*
X113353586Y-68017889D01*
X113424068Y-67847729D01*
X113460000Y-67667089D01*
X113460000Y-67482911D01*
X113424068Y-67302271D01*
X113353586Y-67132111D01*
X113251262Y-66978972D01*
X113121028Y-66848738D01*
X112967889Y-66746414D01*
X112797729Y-66675932D01*
X112617089Y-66640000D01*
X112432911Y-66640000D01*
X112252271Y-66675932D01*
X112082111Y-66746414D01*
X111928972Y-66848738D01*
X111798738Y-66978972D01*
X111696414Y-67132111D01*
X111625932Y-67302271D01*
X111601847Y-67423351D01*
X109223352Y-69801847D01*
X109102271Y-69825932D01*
X108932111Y-69896414D01*
X108778972Y-69998738D01*
X108648738Y-70128972D01*
X108546414Y-70282111D01*
X108475932Y-70452271D01*
X108440000Y-70632911D01*
X107325688Y-70632911D01*
X107365000Y-70435280D01*
X107365000Y-70014722D01*
X107282953Y-69602245D01*
X107122012Y-69213699D01*
X106888363Y-68864018D01*
X106590983Y-68566638D01*
X106241302Y-68332989D01*
X105852756Y-68172048D01*
X105440279Y-68090001D01*
X105019721Y-68090001D01*
X104607244Y-68172048D01*
X104218698Y-68332989D01*
X103869017Y-68566638D01*
X103571637Y-68864018D01*
X103337988Y-69213699D01*
X103177047Y-69602245D01*
X103095000Y-70014722D01*
X91135000Y-70014722D01*
X91052953Y-69602245D01*
X90892012Y-69213699D01*
X90658363Y-68864018D01*
X90360983Y-68566638D01*
X90104524Y-68395278D01*
X96301649Y-62198153D01*
X96422729Y-62174068D01*
X96592889Y-62103586D01*
X96746028Y-62001262D01*
X96876262Y-61871028D01*
X96978586Y-61717889D01*
X97049068Y-61547729D01*
X97085000Y-61367089D01*
X97085000Y-61182911D01*
X97049068Y-61002271D01*
X96978586Y-60832111D01*
X96876262Y-60678972D01*
X96746028Y-60548738D01*
X96592889Y-60446414D01*
X96422729Y-60375932D01*
X96242089Y-60340000D01*
X96057911Y-60340000D01*
X95877271Y-60375932D01*
X95707111Y-60446414D01*
X95553972Y-60548738D01*
X95423738Y-60678972D01*
X95321414Y-60832111D01*
X95250932Y-61002271D01*
X95226847Y-61123351D01*
X88488998Y-67861201D01*
X88460000Y-67884999D01*
X88436202Y-67913997D01*
X88436201Y-67913998D01*
X88365026Y-68000724D01*
X88294454Y-68132754D01*
X88282535Y-68172048D01*
X88268925Y-68216915D01*
X87988698Y-68332989D01*
X87639017Y-68566638D01*
X87341637Y-68864018D01*
X87107988Y-69213699D01*
X86947047Y-69602245D01*
X86865000Y-70014722D01*
X85685000Y-70014722D01*
X85685000Y-57314722D01*
X86865000Y-57314722D01*
X86865000Y-57735280D01*
X86947047Y-58147757D01*
X87107988Y-58536303D01*
X87341637Y-58885984D01*
X87639017Y-59183364D01*
X87988698Y-59417013D01*
X88377244Y-59577954D01*
X88789721Y-59660001D01*
X89210279Y-59660001D01*
X89622756Y-59577954D01*
X90011302Y-59417013D01*
X90360983Y-59183364D01*
X90658363Y-58885984D01*
X90892012Y-58536303D01*
X91052953Y-58147757D01*
X91135000Y-57735280D01*
X91135000Y-57314722D01*
X103095000Y-57314722D01*
X103095000Y-57735280D01*
X103177047Y-58147757D01*
X103337988Y-58536303D01*
X103571637Y-58885984D01*
X103869017Y-59183364D01*
X104218698Y-59417013D01*
X104607244Y-59577954D01*
X105019721Y-59660001D01*
X105440279Y-59660001D01*
X105852756Y-59577954D01*
X106241302Y-59417013D01*
X106590983Y-59183364D01*
X106888363Y-58885984D01*
X107122012Y-58536303D01*
X107129349Y-58518589D01*
X110015000Y-58518589D01*
X110015000Y-58791411D01*
X110068225Y-59058989D01*
X110172629Y-59311043D01*
X110324201Y-59537886D01*
X110517114Y-59730799D01*
X110743957Y-59882371D01*
X110846873Y-59925000D01*
X110743957Y-59967629D01*
X110517114Y-60119201D01*
X110324201Y-60312114D01*
X110172629Y-60538957D01*
X110068225Y-60791011D01*
X110015000Y-61058589D01*
X110015000Y-61331411D01*
X110068225Y-61598989D01*
X110172629Y-61851043D01*
X110324201Y-62077886D01*
X110517114Y-62270799D01*
X110743957Y-62422371D01*
X110846873Y-62465000D01*
X110743957Y-62507629D01*
X110517114Y-62659201D01*
X110324201Y-62852114D01*
X110172629Y-63078957D01*
X110068225Y-63331011D01*
X110015000Y-63598589D01*
X110015000Y-63871411D01*
X110068225Y-64138989D01*
X110172629Y-64391043D01*
X110324201Y-64617886D01*
X110517114Y-64810799D01*
X110743957Y-64962371D01*
X110996011Y-65066775D01*
X111263589Y-65120000D01*
X111536411Y-65120000D01*
X111803989Y-65066775D01*
X112056043Y-64962371D01*
X112282886Y-64810799D01*
X112475799Y-64617886D01*
X112627371Y-64391043D01*
X112731775Y-64138989D01*
X112785000Y-63871411D01*
X112785000Y-63598589D01*
X112731775Y-63331011D01*
X112627371Y-63078957D01*
X112475799Y-62852114D01*
X112282886Y-62659201D01*
X112056043Y-62507629D01*
X111953127Y-62465000D01*
X112056043Y-62422371D01*
X112282886Y-62270799D01*
X112283684Y-62270001D01*
X114641323Y-62270001D01*
X114644999Y-62307324D01*
X114645000Y-64213669D01*
X114641323Y-64251001D01*
X114655997Y-64399986D01*
X114699453Y-64543247D01*
X114770025Y-64675277D01*
X114841200Y-64762003D01*
X114864999Y-64791002D01*
X114893997Y-64814800D01*
X120815203Y-70736008D01*
X120838997Y-70765001D01*
X120867990Y-70788795D01*
X120867994Y-70788799D01*
X120902466Y-70817089D01*
X120954722Y-70859974D01*
X121086751Y-70930546D01*
X121230012Y-70974003D01*
X121341665Y-70985000D01*
X121341674Y-70985000D01*
X121378997Y-70988676D01*
X121416320Y-70985000D01*
X157778895Y-70985000D01*
X157882988Y-71236302D01*
X158116637Y-71585983D01*
X158414017Y-71883363D01*
X158763698Y-72117012D01*
X159152244Y-72277953D01*
X159564721Y-72360000D01*
X159985279Y-72360000D01*
X160397756Y-72277953D01*
X160786302Y-72117012D01*
X161135983Y-71883363D01*
X161433363Y-71585983D01*
X161667012Y-71236302D01*
X161827953Y-70847756D01*
X161910000Y-70435279D01*
X161910000Y-70014721D01*
X173870000Y-70014721D01*
X173870000Y-70435279D01*
X173952047Y-70847756D01*
X174112988Y-71236302D01*
X174346637Y-71585983D01*
X174644017Y-71883363D01*
X174993698Y-72117012D01*
X175382244Y-72277953D01*
X175794721Y-72360000D01*
X176215279Y-72360000D01*
X176627756Y-72277953D01*
X177016302Y-72117012D01*
X177365983Y-71883363D01*
X177663363Y-71585983D01*
X177897012Y-71236302D01*
X178057953Y-70847756D01*
X178140000Y-70435279D01*
X178140000Y-70014721D01*
X178057953Y-69602244D01*
X177897012Y-69213698D01*
X177663363Y-68864017D01*
X177365983Y-68566637D01*
X177016302Y-68332988D01*
X176627756Y-68172047D01*
X176215279Y-68090000D01*
X175794721Y-68090000D01*
X175382244Y-68172047D01*
X174993698Y-68332988D01*
X174644017Y-68566637D01*
X174346637Y-68864017D01*
X174112988Y-69213698D01*
X173952047Y-69602244D01*
X173870000Y-70014721D01*
X161910000Y-70014721D01*
X161827953Y-69602244D01*
X161667012Y-69213698D01*
X161433363Y-68864017D01*
X161135983Y-68566637D01*
X160786302Y-68332988D01*
X160397756Y-68172047D01*
X159985279Y-68090000D01*
X159564721Y-68090000D01*
X159152244Y-68172047D01*
X158763698Y-68332988D01*
X158414017Y-68566637D01*
X158116637Y-68864017D01*
X157882988Y-69213698D01*
X157778895Y-69465000D01*
X134469384Y-69465000D01*
X134486632Y-69453475D01*
X134693475Y-69246632D01*
X134734656Y-69185000D01*
X146906531Y-69185000D01*
X146950000Y-69189281D01*
X146993469Y-69185000D01*
X146993477Y-69185000D01*
X147123490Y-69172195D01*
X147290313Y-69121589D01*
X147444059Y-69039411D01*
X147578817Y-68928817D01*
X147606534Y-68895044D01*
X149270044Y-67231535D01*
X149326898Y-67220226D01*
X149515256Y-67142205D01*
X149684774Y-67028937D01*
X149828937Y-66884774D01*
X149942205Y-66715256D01*
X150020226Y-66526898D01*
X150060000Y-66326939D01*
X150060000Y-66123061D01*
X150020226Y-65923102D01*
X149942205Y-65734744D01*
X149828937Y-65565226D01*
X149684774Y-65421063D01*
X149515256Y-65307795D01*
X149326898Y-65229774D01*
X149126939Y-65190000D01*
X148923061Y-65190000D01*
X148723102Y-65229774D01*
X148534744Y-65307795D01*
X148365226Y-65421063D01*
X148221063Y-65565226D01*
X148107795Y-65734744D01*
X148029774Y-65923102D01*
X148018465Y-65979956D01*
X146583422Y-67415000D01*
X134734656Y-67415000D01*
X134693475Y-67353368D01*
X134486632Y-67146525D01*
X134243411Y-66984010D01*
X133973158Y-66872068D01*
X133686260Y-66815000D01*
X133393740Y-66815000D01*
X133106842Y-66872068D01*
X132836589Y-66984010D01*
X132593368Y-67146525D01*
X132461513Y-67278380D01*
X132439502Y-67205820D01*
X132380537Y-67095506D01*
X132301185Y-66998815D01*
X132204494Y-66919463D01*
X132094180Y-66860498D01*
X131974482Y-66824188D01*
X131850000Y-66811928D01*
X130150000Y-66811928D01*
X130025518Y-66824188D01*
X129905820Y-66860498D01*
X129795506Y-66919463D01*
X129698815Y-66998815D01*
X129619463Y-67095506D01*
X129560498Y-67205820D01*
X129524188Y-67325518D01*
X129511928Y-67450000D01*
X129511928Y-69150000D01*
X129524188Y-69274482D01*
X129560498Y-69394180D01*
X129598353Y-69465000D01*
X121693801Y-69465000D01*
X117169089Y-64940290D01*
X117362886Y-64810799D01*
X117555799Y-64617886D01*
X117707371Y-64391043D01*
X117811775Y-64138989D01*
X117865000Y-63871411D01*
X117865000Y-63598589D01*
X117811775Y-63331011D01*
X117707371Y-63078957D01*
X117555799Y-62852114D01*
X117362886Y-62659201D01*
X117136043Y-62507629D01*
X117033127Y-62465000D01*
X117136043Y-62422371D01*
X117362886Y-62270799D01*
X117555799Y-62077886D01*
X117707371Y-61851043D01*
X117811775Y-61598989D01*
X117865000Y-61331411D01*
X117865000Y-61058589D01*
X117811775Y-60791011D01*
X117707371Y-60538957D01*
X117555799Y-60312114D01*
X117362886Y-60119201D01*
X117136043Y-59967629D01*
X117033127Y-59925000D01*
X117136043Y-59882371D01*
X117362886Y-59730799D01*
X117555799Y-59537886D01*
X117707371Y-59311043D01*
X117811775Y-59058989D01*
X117865000Y-58791411D01*
X117865000Y-58518589D01*
X117811775Y-58251011D01*
X117707371Y-57998957D01*
X117555799Y-57772114D01*
X117362886Y-57579201D01*
X117136043Y-57427629D01*
X116883989Y-57323225D01*
X116616411Y-57270000D01*
X116343589Y-57270000D01*
X116076011Y-57323225D01*
X115823957Y-57427629D01*
X115597114Y-57579201D01*
X115404201Y-57772114D01*
X115252629Y-57998957D01*
X115148225Y-58251011D01*
X115095000Y-58518589D01*
X115095000Y-58791411D01*
X115148225Y-59058989D01*
X115252629Y-59311043D01*
X115404201Y-59537886D01*
X115597114Y-59730799D01*
X115823957Y-59882371D01*
X115926873Y-59925000D01*
X115823957Y-59967629D01*
X115597114Y-60119201D01*
X115404201Y-60312114D01*
X115252629Y-60538957D01*
X115148225Y-60791011D01*
X115095000Y-61058589D01*
X115095000Y-61331411D01*
X115123833Y-61476365D01*
X114894001Y-61706197D01*
X114864998Y-61730000D01*
X114819038Y-61786003D01*
X114770025Y-61845725D01*
X114699454Y-61977754D01*
X114699453Y-61977755D01*
X114655996Y-62121016D01*
X114644999Y-62232669D01*
X114644999Y-62232679D01*
X114641323Y-62270001D01*
X112283684Y-62270001D01*
X112475799Y-62077886D01*
X112627371Y-61851043D01*
X112731775Y-61598989D01*
X112785000Y-61331411D01*
X112785000Y-61058589D01*
X112731775Y-60791011D01*
X112627371Y-60538957D01*
X112475799Y-60312114D01*
X112282886Y-60119201D01*
X112056043Y-59967629D01*
X111953127Y-59925000D01*
X112056043Y-59882371D01*
X112282886Y-59730799D01*
X112475799Y-59537886D01*
X112627371Y-59311043D01*
X112731775Y-59058989D01*
X112785000Y-58791411D01*
X112785000Y-58518589D01*
X112731775Y-58251011D01*
X112627371Y-57998957D01*
X112475799Y-57772114D01*
X112282886Y-57579201D01*
X112056043Y-57427629D01*
X111803989Y-57323225D01*
X111536411Y-57270000D01*
X111263589Y-57270000D01*
X110996011Y-57323225D01*
X110743957Y-57427629D01*
X110517114Y-57579201D01*
X110324201Y-57772114D01*
X110172629Y-57998957D01*
X110068225Y-58251011D01*
X110015000Y-58518589D01*
X107129349Y-58518589D01*
X107282953Y-58147757D01*
X107365000Y-57735280D01*
X107365000Y-57314722D01*
X107282953Y-56902245D01*
X107122012Y-56513699D01*
X106888363Y-56164018D01*
X106590983Y-55866638D01*
X106241302Y-55632989D01*
X105852756Y-55472048D01*
X105440279Y-55390001D01*
X105019721Y-55390001D01*
X104607244Y-55472048D01*
X104218698Y-55632989D01*
X103869017Y-55866638D01*
X103571637Y-56164018D01*
X103337988Y-56513699D01*
X103177047Y-56902245D01*
X103095000Y-57314722D01*
X91135000Y-57314722D01*
X91052953Y-56902245D01*
X90892012Y-56513699D01*
X90658363Y-56164018D01*
X90360983Y-55866638D01*
X90011302Y-55632989D01*
X89622756Y-55472048D01*
X89210279Y-55390001D01*
X88789721Y-55390001D01*
X88377244Y-55472048D01*
X87988698Y-55632989D01*
X87639017Y-55866638D01*
X87341637Y-56164018D01*
X87107988Y-56513699D01*
X86947047Y-56902245D01*
X86865000Y-57314722D01*
X85685000Y-57314722D01*
X85685000Y-54325000D01*
X110011928Y-54325000D01*
X110024188Y-54449482D01*
X110060498Y-54569180D01*
X110119463Y-54679494D01*
X110198815Y-54776185D01*
X110295506Y-54855537D01*
X110405820Y-54914502D01*
X110525518Y-54950812D01*
X110650000Y-54963072D01*
X111114250Y-54960000D01*
X111273000Y-54801250D01*
X111273000Y-53702000D01*
X111527000Y-53702000D01*
X111527000Y-54801250D01*
X111685750Y-54960000D01*
X112150000Y-54963072D01*
X112274482Y-54950812D01*
X112394180Y-54914502D01*
X112504494Y-54855537D01*
X112601185Y-54776185D01*
X112680537Y-54679494D01*
X112739502Y-54569180D01*
X112775812Y-54449482D01*
X112788072Y-54325000D01*
X112785000Y-53860750D01*
X112626250Y-53702000D01*
X111527000Y-53702000D01*
X111273000Y-53702000D01*
X110173750Y-53702000D01*
X110015000Y-53860750D01*
X110011928Y-54325000D01*
X85685000Y-54325000D01*
X85685000Y-52825000D01*
X110011928Y-52825000D01*
X110015000Y-53289250D01*
X110173750Y-53448000D01*
X111273000Y-53448000D01*
X111273000Y-52348750D01*
X111527000Y-52348750D01*
X111527000Y-53448000D01*
X112626250Y-53448000D01*
X112635661Y-53438589D01*
X115095000Y-53438589D01*
X115095000Y-53711411D01*
X115148225Y-53978989D01*
X115252629Y-54231043D01*
X115404201Y-54457886D01*
X115597114Y-54650799D01*
X115823957Y-54802371D01*
X116076011Y-54906775D01*
X116343589Y-54960000D01*
X116616411Y-54960000D01*
X116883989Y-54906775D01*
X117136043Y-54802371D01*
X117362886Y-54650799D01*
X117555799Y-54457886D01*
X117707371Y-54231043D01*
X117811775Y-53978989D01*
X117865000Y-53711411D01*
X117865000Y-53438589D01*
X117811775Y-53171011D01*
X117707371Y-52918957D01*
X117555799Y-52692114D01*
X117362886Y-52499201D01*
X117136043Y-52347629D01*
X116883989Y-52243225D01*
X116616411Y-52190000D01*
X116343589Y-52190000D01*
X116076011Y-52243225D01*
X115823957Y-52347629D01*
X115597114Y-52499201D01*
X115404201Y-52692114D01*
X115252629Y-52918957D01*
X115148225Y-53171011D01*
X115095000Y-53438589D01*
X112635661Y-53438589D01*
X112785000Y-53289250D01*
X112788072Y-52825000D01*
X112775812Y-52700518D01*
X112739502Y-52580820D01*
X112680537Y-52470506D01*
X112601185Y-52373815D01*
X112504494Y-52294463D01*
X112394180Y-52235498D01*
X112274482Y-52199188D01*
X112150000Y-52186928D01*
X111685750Y-52190000D01*
X111527000Y-52348750D01*
X111273000Y-52348750D01*
X111114250Y-52190000D01*
X110650000Y-52186928D01*
X110525518Y-52199188D01*
X110405820Y-52235498D01*
X110295506Y-52294463D01*
X110198815Y-52373815D01*
X110119463Y-52470506D01*
X110060498Y-52580820D01*
X110024188Y-52700518D01*
X110011928Y-52825000D01*
X85685000Y-52825000D01*
X85685000Y-50660000D01*
X120315001Y-50660000D01*
X120315000Y-64966353D01*
%TA.AperFunction,Conductor*%
D23*
G36*
X120315000Y-64966353D02*
G01*
X120311686Y-65000000D01*
X120324912Y-65134283D01*
X120364081Y-65263406D01*
X120427688Y-65382407D01*
X120513289Y-65486711D01*
X120608959Y-65565226D01*
X120617593Y-65572312D01*
X120736594Y-65635919D01*
X120865717Y-65675088D01*
X121000000Y-65688314D01*
X121033647Y-65685000D01*
X143966353Y-65685000D01*
X144000000Y-65688314D01*
X144134283Y-65675088D01*
X144263406Y-65635919D01*
X144382407Y-65572312D01*
X144486711Y-65486711D01*
X144572312Y-65382407D01*
X144635919Y-65263406D01*
X144675088Y-65134283D01*
X144685000Y-65033647D01*
X144685000Y-65033646D01*
X144688314Y-65000000D01*
X144685000Y-64966353D01*
X144685000Y-57314721D01*
X157640000Y-57314721D01*
X157640000Y-57735279D01*
X157722047Y-58147756D01*
X157882988Y-58536302D01*
X158116637Y-58885983D01*
X158414017Y-59183363D01*
X158763698Y-59417012D01*
X159152244Y-59577953D01*
X159564721Y-59660000D01*
X159985279Y-59660000D01*
X160397756Y-59577953D01*
X160786302Y-59417012D01*
X161135983Y-59183363D01*
X161433363Y-58885983D01*
X161667012Y-58536302D01*
X161827953Y-58147756D01*
X161910000Y-57735279D01*
X161910000Y-57314721D01*
X173870000Y-57314721D01*
X173870000Y-57735279D01*
X173952047Y-58147756D01*
X174112988Y-58536302D01*
X174346637Y-58885983D01*
X174644017Y-59183363D01*
X174993698Y-59417012D01*
X175382244Y-59577953D01*
X175794721Y-59660000D01*
X176215279Y-59660000D01*
X176627756Y-59577953D01*
X177016302Y-59417012D01*
X177365983Y-59183363D01*
X177663363Y-58885983D01*
X177897012Y-58536302D01*
X178057953Y-58147756D01*
X178140000Y-57735279D01*
X178140000Y-57314721D01*
X178057953Y-56902244D01*
X177897012Y-56513698D01*
X177663363Y-56164017D01*
X177365983Y-55866637D01*
X177016302Y-55632988D01*
X176627756Y-55472047D01*
X176215279Y-55390000D01*
X175794721Y-55390000D01*
X175382244Y-55472047D01*
X174993698Y-55632988D01*
X174644017Y-55866637D01*
X174346637Y-56164017D01*
X174112988Y-56513698D01*
X173952047Y-56902244D01*
X173870000Y-57314721D01*
X161910000Y-57314721D01*
X161827953Y-56902244D01*
X161667012Y-56513698D01*
X161433363Y-56164017D01*
X161135983Y-55866637D01*
X160786302Y-55632988D01*
X160397756Y-55472047D01*
X159985279Y-55390000D01*
X159564721Y-55390000D01*
X159152244Y-55472047D01*
X158763698Y-55632988D01*
X158414017Y-55866637D01*
X158116637Y-56164017D01*
X157882988Y-56513698D01*
X157722047Y-56902244D01*
X157640000Y-57314721D01*
X144685000Y-57314721D01*
X144685000Y-50660000D01*
X179315000Y-50660000D01*
X179315001Y-114315000D01*
X144039875Y-114315000D01*
X144049274Y-114309976D01*
X144164999Y-114215003D01*
X144188802Y-114185999D01*
X148211928Y-110162874D01*
X148211928Y-111150000D01*
X148228992Y-111323254D01*
X148279528Y-111489850D01*
X148361595Y-111643386D01*
X148472038Y-111777962D01*
X148606614Y-111888405D01*
X148760150Y-111970472D01*
X148926746Y-112021008D01*
X149100000Y-112038072D01*
X150300000Y-112038072D01*
X150473254Y-112021008D01*
X150639850Y-111970472D01*
X150793386Y-111888405D01*
X150927962Y-111777962D01*
X151038405Y-111643386D01*
X151092777Y-111541663D01*
X151144866Y-111605134D01*
X151370987Y-111790706D01*
X151628967Y-111928599D01*
X151908890Y-112013513D01*
X152200000Y-112042185D01*
X152491111Y-112013513D01*
X152771034Y-111928599D01*
X153029014Y-111790706D01*
X153255134Y-111605134D01*
X153440706Y-111379014D01*
X153578599Y-111121033D01*
X153663513Y-110841110D01*
X153685000Y-110622949D01*
X153685000Y-110177050D01*
X153663513Y-109958889D01*
X153578599Y-109678966D01*
X153440706Y-109420986D01*
X153255134Y-109194866D01*
X153029013Y-109009294D01*
X152960000Y-108972406D01*
X152960000Y-107848816D01*
X160885000Y-107848816D01*
X160885000Y-108151184D01*
X160943989Y-108447743D01*
X161059701Y-108727095D01*
X161227688Y-108978505D01*
X161441495Y-109192312D01*
X161692905Y-109360299D01*
X161972257Y-109476011D01*
X162268816Y-109535000D01*
X162571184Y-109535000D01*
X162867743Y-109476011D01*
X163147095Y-109360299D01*
X163398505Y-109192312D01*
X163612312Y-108978505D01*
X163780299Y-108727095D01*
X163896011Y-108447743D01*
X163955000Y-108151184D01*
X163955000Y-107987009D01*
X167646087Y-111678096D01*
X167608728Y-111715455D01*
X167584699Y-111670500D01*
X167449383Y-111505617D01*
X167284500Y-111370301D01*
X167096387Y-111269753D01*
X166892272Y-111207835D01*
X166680000Y-111186928D01*
X165780000Y-111186928D01*
X165567728Y-111207835D01*
X165363613Y-111269753D01*
X165175500Y-111370301D01*
X165010617Y-111505617D01*
X164875301Y-111670500D01*
X164774753Y-111858613D01*
X164712835Y-112062728D01*
X164691928Y-112275000D01*
X164691928Y-113175000D01*
X164712835Y-113387272D01*
X164774753Y-113591387D01*
X164875301Y-113779500D01*
X165010617Y-113944383D01*
X165175500Y-114079699D01*
X165363613Y-114180247D01*
X165567728Y-114242165D01*
X165780000Y-114263072D01*
X166680000Y-114263072D01*
X166892272Y-114242165D01*
X167096387Y-114180247D01*
X167284500Y-114079699D01*
X167449383Y-113944383D01*
X167584699Y-113779500D01*
X167608728Y-113734545D01*
X167791495Y-113917312D01*
X168042905Y-114085299D01*
X168322257Y-114201011D01*
X168618816Y-114260000D01*
X168921184Y-114260000D01*
X169217743Y-114201011D01*
X169497095Y-114085299D01*
X169748505Y-113917312D01*
X169962312Y-113703505D01*
X170130299Y-113452095D01*
X170246011Y-113172743D01*
X170305000Y-112876184D01*
X170305000Y-112573816D01*
X170246011Y-112277257D01*
X170130299Y-111997905D01*
X169962312Y-111746495D01*
X169748505Y-111532688D01*
X169497095Y-111364701D01*
X169421183Y-111333257D01*
X169404974Y-111302932D01*
X169333799Y-111216205D01*
X169310001Y-111187207D01*
X169281003Y-111163409D01*
X167652360Y-109534766D01*
X167947743Y-109476011D01*
X168227095Y-109360299D01*
X168478505Y-109192312D01*
X168692312Y-108978505D01*
X168860299Y-108727095D01*
X168976011Y-108447743D01*
X169035000Y-108151184D01*
X169035000Y-107848816D01*
X171045000Y-107848816D01*
X171045000Y-108151184D01*
X171103989Y-108447743D01*
X171219701Y-108727095D01*
X171387688Y-108978505D01*
X171601495Y-109192312D01*
X171852905Y-109360299D01*
X172132257Y-109476011D01*
X172428816Y-109535000D01*
X172731184Y-109535000D01*
X173027743Y-109476011D01*
X173307095Y-109360299D01*
X173558505Y-109192312D01*
X173772312Y-108978505D01*
X173940299Y-108727095D01*
X174056011Y-108447743D01*
X174115000Y-108151184D01*
X174115000Y-107848816D01*
X174056011Y-107552257D01*
X173940299Y-107272905D01*
X173772312Y-107021495D01*
X173558505Y-106807688D01*
X173307095Y-106639701D01*
X173027743Y-106523989D01*
X172731184Y-106465000D01*
X172428816Y-106465000D01*
X172132257Y-106523989D01*
X171852905Y-106639701D01*
X171601495Y-106807688D01*
X171387688Y-107021495D01*
X171219701Y-107272905D01*
X171103989Y-107552257D01*
X171045000Y-107848816D01*
X169035000Y-107848816D01*
X168976011Y-107552257D01*
X168860299Y-107272905D01*
X168692312Y-107021495D01*
X168478505Y-106807688D01*
X168227095Y-106639701D01*
X167947743Y-106523989D01*
X167651184Y-106465000D01*
X167348816Y-106465000D01*
X167052257Y-106523989D01*
X166772905Y-106639701D01*
X166521495Y-106807688D01*
X166307688Y-107021495D01*
X166139701Y-107272905D01*
X166023989Y-107552257D01*
X165965234Y-107847640D01*
X163660000Y-105542407D01*
X163660000Y-103895535D01*
X163728586Y-103792889D01*
X163799068Y-103622729D01*
X163835000Y-103442089D01*
X163835000Y-103257911D01*
X163799068Y-103077271D01*
X163728586Y-102907111D01*
X163626262Y-102753972D01*
X163496028Y-102623738D01*
X163342889Y-102521414D01*
X163172729Y-102450932D01*
X162992089Y-102415000D01*
X162807911Y-102415000D01*
X162627271Y-102450932D01*
X162457111Y-102521414D01*
X162303972Y-102623738D01*
X162173738Y-102753972D01*
X162071414Y-102907111D01*
X162000932Y-103077271D01*
X161965000Y-103257911D01*
X161965000Y-103442089D01*
X162000932Y-103622729D01*
X162071414Y-103792889D01*
X162140001Y-103895537D01*
X162140000Y-105819885D01*
X162136324Y-105857208D01*
X162140000Y-105894530D01*
X162140000Y-105894540D01*
X162150997Y-106006193D01*
X162172177Y-106076014D01*
X162194454Y-106149454D01*
X162265026Y-106281484D01*
X162304871Y-106330034D01*
X162359999Y-106397209D01*
X162389003Y-106421012D01*
X162432991Y-106465000D01*
X162268816Y-106465000D01*
X161972257Y-106523989D01*
X161692905Y-106639701D01*
X161441495Y-106807688D01*
X161227688Y-107021495D01*
X161059701Y-107272905D01*
X160943989Y-107552257D01*
X160885000Y-107848816D01*
X152960000Y-107848816D01*
X152960000Y-106539801D01*
X159116890Y-100382911D01*
X165015000Y-100382911D01*
X165015000Y-100567089D01*
X165050932Y-100747729D01*
X165121414Y-100917889D01*
X165223738Y-101071028D01*
X165353972Y-101201262D01*
X165507111Y-101303586D01*
X165677271Y-101374068D01*
X165857911Y-101410000D01*
X166042089Y-101410000D01*
X166222729Y-101374068D01*
X166392889Y-101303586D01*
X166495535Y-101235000D01*
X172027678Y-101235000D01*
X172065000Y-101238676D01*
X172102322Y-101235000D01*
X172102333Y-101235000D01*
X172213986Y-101224003D01*
X172357247Y-101180546D01*
X172489276Y-101109974D01*
X172605001Y-101015001D01*
X172628804Y-100985997D01*
X173423635Y-100191167D01*
X173568589Y-100220000D01*
X173841411Y-100220000D01*
X174108989Y-100166775D01*
X174361043Y-100062371D01*
X174587886Y-99910799D01*
X174780799Y-99717886D01*
X174932371Y-99491043D01*
X175036775Y-99238989D01*
X175090000Y-98971411D01*
X175090000Y-98698589D01*
X175036775Y-98431011D01*
X174932371Y-98178957D01*
X174780799Y-97952114D01*
X174587886Y-97759201D01*
X174361043Y-97607629D01*
X174261721Y-97566489D01*
X174303832Y-97551277D01*
X174416863Y-97490860D01*
X174482388Y-97251993D01*
X173705000Y-96474605D01*
X172927612Y-97251993D01*
X172993137Y-97490860D01*
X173151477Y-97565164D01*
X173048957Y-97607629D01*
X172822114Y-97759201D01*
X172629201Y-97952114D01*
X172477629Y-98178957D01*
X172373225Y-98431011D01*
X172320000Y-98698589D01*
X172320000Y-98971411D01*
X172348833Y-99116365D01*
X171750199Y-99715000D01*
X171425470Y-99715000D01*
X171435000Y-99667089D01*
X171435000Y-99482911D01*
X171399068Y-99302271D01*
X171328586Y-99132111D01*
X171260000Y-99029465D01*
X171260000Y-96367492D01*
X172315188Y-96367492D01*
X172356035Y-96637238D01*
X172448723Y-96893832D01*
X172509140Y-97006863D01*
X172748007Y-97072388D01*
X173525395Y-96295000D01*
X173884605Y-96295000D01*
X174661993Y-97072388D01*
X174900860Y-97006863D01*
X175016760Y-96759884D01*
X175082250Y-96495040D01*
X175094812Y-96222508D01*
X175053965Y-95952762D01*
X174961277Y-95696168D01*
X174900860Y-95583137D01*
X174661993Y-95517612D01*
X173884605Y-96295000D01*
X173525395Y-96295000D01*
X172748007Y-95517612D01*
X172509140Y-95583137D01*
X172393240Y-95830116D01*
X172327750Y-96094960D01*
X172315188Y-96367492D01*
X171260000Y-96367492D01*
X171260000Y-95667322D01*
X171263676Y-95629999D01*
X171260000Y-95592676D01*
X171260000Y-95592667D01*
X171249003Y-95481014D01*
X171205546Y-95337753D01*
X171134974Y-95205724D01*
X171097471Y-95160026D01*
X171063799Y-95118996D01*
X171063795Y-95118992D01*
X171040001Y-95089999D01*
X171011009Y-95066206D01*
X169981167Y-94036365D01*
X170010000Y-93891411D01*
X170010000Y-93618589D01*
X172320000Y-93618589D01*
X172320000Y-93891411D01*
X172373225Y-94158989D01*
X172477629Y-94411043D01*
X172629201Y-94637886D01*
X172822114Y-94830799D01*
X173048957Y-94982371D01*
X173148279Y-95023511D01*
X173106168Y-95038723D01*
X172993137Y-95099140D01*
X172927612Y-95338007D01*
X173705000Y-96115395D01*
X174482388Y-95338007D01*
X174416863Y-95099140D01*
X174258523Y-95024836D01*
X174361043Y-94982371D01*
X174587886Y-94830799D01*
X174780799Y-94637886D01*
X174932371Y-94411043D01*
X175036775Y-94158989D01*
X175090000Y-93891411D01*
X175090000Y-93618589D01*
X175036775Y-93351011D01*
X174932371Y-93098957D01*
X174780799Y-92872114D01*
X174587886Y-92679201D01*
X174361043Y-92527629D01*
X174108989Y-92423225D01*
X173841411Y-92370000D01*
X173568589Y-92370000D01*
X173301011Y-92423225D01*
X173048957Y-92527629D01*
X172822114Y-92679201D01*
X172629201Y-92872114D01*
X172477629Y-93098957D01*
X172373225Y-93351011D01*
X172320000Y-93618589D01*
X170010000Y-93618589D01*
X169956775Y-93351011D01*
X169852371Y-93098957D01*
X169700799Y-92872114D01*
X169507886Y-92679201D01*
X169281043Y-92527629D01*
X169028989Y-92423225D01*
X168761411Y-92370000D01*
X168488589Y-92370000D01*
X168221011Y-92423225D01*
X167968957Y-92527629D01*
X167742114Y-92679201D01*
X167549201Y-92872114D01*
X167397629Y-93098957D01*
X167293225Y-93351011D01*
X167240000Y-93618589D01*
X167240000Y-93891411D01*
X167293225Y-94158989D01*
X167397629Y-94411043D01*
X167549201Y-94637886D01*
X167742114Y-94830799D01*
X167968957Y-94982371D01*
X168071873Y-95025000D01*
X167968957Y-95067629D01*
X167742114Y-95219201D01*
X167549201Y-95412114D01*
X167397629Y-95638957D01*
X167293225Y-95891011D01*
X167240000Y-96158589D01*
X167240000Y-96431411D01*
X167293225Y-96698989D01*
X167397629Y-96951043D01*
X167549201Y-97177886D01*
X167742114Y-97370799D01*
X167968957Y-97522371D01*
X168071873Y-97565000D01*
X167968957Y-97607629D01*
X167742114Y-97759201D01*
X167549201Y-97952114D01*
X167397629Y-98178957D01*
X167293225Y-98431011D01*
X167240000Y-98698589D01*
X167240000Y-98971411D01*
X167293225Y-99238989D01*
X167397629Y-99491043D01*
X167547273Y-99715000D01*
X166495535Y-99715000D01*
X166392889Y-99646414D01*
X166222729Y-99575932D01*
X166042089Y-99540000D01*
X165857911Y-99540000D01*
X165677271Y-99575932D01*
X165507111Y-99646414D01*
X165353972Y-99748738D01*
X165223738Y-99878972D01*
X165121414Y-100032111D01*
X165050932Y-100202271D01*
X165015000Y-100382911D01*
X159116890Y-100382911D01*
X159276649Y-100223153D01*
X159397729Y-100199068D01*
X159567889Y-100128586D01*
X159721028Y-100026262D01*
X159851262Y-99896028D01*
X159953586Y-99742889D01*
X160024068Y-99572729D01*
X160060000Y-99392089D01*
X160060000Y-99207911D01*
X160024068Y-99027271D01*
X159953586Y-98857111D01*
X159851262Y-98703972D01*
X159721028Y-98573738D01*
X159567889Y-98471414D01*
X159397729Y-98400932D01*
X159217089Y-98365000D01*
X159032911Y-98365000D01*
X158852271Y-98400932D01*
X158735000Y-98449507D01*
X158735000Y-94720537D01*
X158803586Y-94617891D01*
X158874068Y-94447731D01*
X158910000Y-94267091D01*
X158910000Y-94082913D01*
X158874068Y-93902273D01*
X158815137Y-93760000D01*
X163515000Y-93760000D01*
X163515001Y-95067709D01*
X163451238Y-95131472D01*
X163348914Y-95284611D01*
X163278432Y-95454771D01*
X163242500Y-95635411D01*
X163242500Y-95819589D01*
X163278432Y-96000229D01*
X163348914Y-96170389D01*
X163451238Y-96323528D01*
X163581472Y-96453762D01*
X163734611Y-96556086D01*
X163904771Y-96626568D01*
X164085411Y-96662500D01*
X164269589Y-96662500D01*
X164450229Y-96626568D01*
X164620389Y-96556086D01*
X164773528Y-96453762D01*
X164903762Y-96323528D01*
X165006086Y-96170389D01*
X165076568Y-96000229D01*
X165112500Y-95819589D01*
X165112500Y-95635411D01*
X165076568Y-95454771D01*
X165035000Y-95354416D01*
X165035000Y-93037332D01*
X165038677Y-93000000D01*
X165035000Y-92962667D01*
X165035000Y-89425000D01*
X167236928Y-89425000D01*
X167249188Y-89549482D01*
X167285498Y-89669180D01*
X167344463Y-89779494D01*
X167423815Y-89876185D01*
X167520506Y-89955537D01*
X167630820Y-90014502D01*
X167750518Y-90050812D01*
X167875000Y-90063072D01*
X168339250Y-90060000D01*
X168498000Y-89901250D01*
X168498000Y-88802000D01*
X168752000Y-88802000D01*
X168752000Y-89901250D01*
X168910750Y-90060000D01*
X169375000Y-90063072D01*
X169499482Y-90050812D01*
X169619180Y-90014502D01*
X169729494Y-89955537D01*
X169826185Y-89876185D01*
X169905537Y-89779494D01*
X169964502Y-89669180D01*
X170000812Y-89549482D01*
X170013072Y-89425000D01*
X170010000Y-88960750D01*
X169851250Y-88802000D01*
X168752000Y-88802000D01*
X168498000Y-88802000D01*
X167398750Y-88802000D01*
X167240000Y-88960750D01*
X167236928Y-89425000D01*
X165035000Y-89425000D01*
X165035000Y-87925000D01*
X167236928Y-87925000D01*
X167240000Y-88389250D01*
X167398750Y-88548000D01*
X168498000Y-88548000D01*
X168498000Y-87448750D01*
X168752000Y-87448750D01*
X168752000Y-88548000D01*
X169851250Y-88548000D01*
X170010000Y-88389250D01*
X170013072Y-87925000D01*
X170000812Y-87800518D01*
X169964502Y-87680820D01*
X169905537Y-87570506D01*
X169826185Y-87473815D01*
X169729494Y-87394463D01*
X169619180Y-87335498D01*
X169499482Y-87299188D01*
X169375000Y-87286928D01*
X168910750Y-87290000D01*
X168752000Y-87448750D01*
X168498000Y-87448750D01*
X168339250Y-87290000D01*
X167875000Y-87286928D01*
X167750518Y-87299188D01*
X167630820Y-87335498D01*
X167520506Y-87394463D01*
X167423815Y-87473815D01*
X167344463Y-87570506D01*
X167285498Y-87680820D01*
X167249188Y-87800518D01*
X167236928Y-87925000D01*
X165035000Y-87925000D01*
X165035000Y-87457951D01*
X165128586Y-87317889D01*
X165199068Y-87147729D01*
X165235000Y-86967089D01*
X165235000Y-86782911D01*
X165200190Y-86607909D01*
X170165000Y-86607909D01*
X170165000Y-86792087D01*
X170200932Y-86972727D01*
X170271414Y-87142887D01*
X170373738Y-87296026D01*
X170503972Y-87426260D01*
X170657111Y-87528584D01*
X170827271Y-87599066D01*
X171007911Y-87634998D01*
X171192089Y-87634998D01*
X171372729Y-87599066D01*
X171542889Y-87528584D01*
X171696028Y-87426260D01*
X171826262Y-87296026D01*
X171928586Y-87142887D01*
X171999068Y-86972727D01*
X172023153Y-86851647D01*
X172945001Y-85929799D01*
X172945000Y-87517091D01*
X172822114Y-87599201D01*
X172629201Y-87792114D01*
X172477629Y-88018957D01*
X172373225Y-88271011D01*
X172320000Y-88538589D01*
X172320000Y-88811411D01*
X172373225Y-89078989D01*
X172477629Y-89331043D01*
X172629201Y-89557886D01*
X172822114Y-89750799D01*
X173048957Y-89902371D01*
X173301011Y-90006775D01*
X173568589Y-90060000D01*
X173841411Y-90060000D01*
X174108989Y-90006775D01*
X174361043Y-89902371D01*
X174587886Y-89750799D01*
X174780799Y-89557886D01*
X174932371Y-89331043D01*
X175036775Y-89078989D01*
X175090000Y-88811411D01*
X175090000Y-88538589D01*
X175036775Y-88271011D01*
X174932371Y-88018957D01*
X174780799Y-87792114D01*
X174587886Y-87599201D01*
X174465000Y-87517091D01*
X174465000Y-84163052D01*
X174528586Y-84067889D01*
X174599068Y-83897729D01*
X174635000Y-83717089D01*
X174635000Y-83532911D01*
X174599068Y-83352271D01*
X174528586Y-83182111D01*
X174426262Y-83028972D01*
X174296028Y-82898738D01*
X174142889Y-82796414D01*
X173972729Y-82725932D01*
X173792089Y-82690000D01*
X173607911Y-82690000D01*
X173427271Y-82725932D01*
X173340000Y-82762081D01*
X173340000Y-81338313D01*
X173558505Y-81192312D01*
X173772312Y-80978505D01*
X173940299Y-80727095D01*
X174056011Y-80447743D01*
X174115000Y-80151184D01*
X174115000Y-79848816D01*
X174056011Y-79552257D01*
X173940299Y-79272905D01*
X173772312Y-79021495D01*
X173558505Y-78807688D01*
X173307095Y-78639701D01*
X173027743Y-78523989D01*
X172731184Y-78465000D01*
X172428816Y-78465000D01*
X172132257Y-78523989D01*
X171852905Y-78639701D01*
X171601495Y-78807688D01*
X171387688Y-79021495D01*
X171219701Y-79272905D01*
X171103989Y-79552257D01*
X171045000Y-79848816D01*
X171045000Y-80151184D01*
X171103989Y-80447743D01*
X171219701Y-80727095D01*
X171387688Y-80978505D01*
X171601495Y-81192312D01*
X171820000Y-81338313D01*
X171820001Y-84905195D01*
X170948351Y-85776845D01*
X170827271Y-85800930D01*
X170657111Y-85871412D01*
X170503972Y-85973736D01*
X170373738Y-86103970D01*
X170271414Y-86257109D01*
X170200932Y-86427269D01*
X170165000Y-86607909D01*
X165200190Y-86607909D01*
X165199068Y-86602271D01*
X165128586Y-86432111D01*
X165026262Y-86278972D01*
X164896028Y-86148738D01*
X164742889Y-86046414D01*
X164572729Y-85975932D01*
X164392089Y-85940000D01*
X164207911Y-85940000D01*
X164027271Y-85975932D01*
X163857111Y-86046414D01*
X163703972Y-86148738D01*
X163573738Y-86278972D01*
X163471414Y-86432111D01*
X163400932Y-86602271D01*
X163365000Y-86782911D01*
X163365000Y-86967089D01*
X163400932Y-87147729D01*
X163471414Y-87317889D01*
X163515001Y-87383122D01*
X163515000Y-92240000D01*
X158881437Y-92240000D01*
X158849068Y-92077271D01*
X158778586Y-91907111D01*
X158710000Y-91804465D01*
X158710000Y-87239317D01*
X158713676Y-87201994D01*
X158710000Y-87164671D01*
X158710000Y-87164661D01*
X158699003Y-87053008D01*
X158655546Y-86909747D01*
X158630381Y-86862667D01*
X158584974Y-86777717D01*
X158513799Y-86690991D01*
X158490001Y-86661993D01*
X158461003Y-86638195D01*
X157107808Y-85285000D01*
X167804465Y-85285000D01*
X167907111Y-85353586D01*
X168077271Y-85424068D01*
X168257911Y-85460000D01*
X168442089Y-85460000D01*
X168622729Y-85424068D01*
X168792889Y-85353586D01*
X168946028Y-85251262D01*
X169076262Y-85121028D01*
X169178586Y-84967889D01*
X169249068Y-84797729D01*
X169285000Y-84617089D01*
X169285000Y-84432911D01*
X169249068Y-84252271D01*
X169178586Y-84082111D01*
X169076262Y-83928972D01*
X168946028Y-83798738D01*
X168792889Y-83696414D01*
X168622729Y-83625932D01*
X168442089Y-83590000D01*
X168257911Y-83590000D01*
X168077271Y-83625932D01*
X167907111Y-83696414D01*
X167804465Y-83765000D01*
X156505197Y-83765000D01*
X156038538Y-83298341D01*
X156014453Y-83177261D01*
X155943971Y-83007101D01*
X155841647Y-82853962D01*
X155711413Y-82723728D01*
X155558274Y-82621404D01*
X155388114Y-82550922D01*
X155207474Y-82514990D01*
X155023296Y-82514990D01*
X154842656Y-82550922D01*
X154672496Y-82621404D01*
X154663958Y-82627109D01*
X154649068Y-82552251D01*
X154578586Y-82382091D01*
X154476262Y-82228952D01*
X154346028Y-82098718D01*
X154192889Y-81996394D01*
X154022729Y-81925912D01*
X153842089Y-81889980D01*
X153657911Y-81889980D01*
X153477271Y-81925912D01*
X153307111Y-81996394D01*
X153153972Y-82098718D01*
X153023738Y-82228952D01*
X152943784Y-82348612D01*
X152960000Y-82267089D01*
X152960000Y-82082911D01*
X152924068Y-81902271D01*
X152853586Y-81732111D01*
X152751262Y-81578972D01*
X152621028Y-81448738D01*
X152467889Y-81346414D01*
X152297729Y-81275932D01*
X152117089Y-81240000D01*
X151932911Y-81240000D01*
X151752271Y-81275932D01*
X151582111Y-81346414D01*
X151479465Y-81415000D01*
X150329800Y-81415000D01*
X150297431Y-81252271D01*
X150226949Y-81082111D01*
X150158363Y-80979465D01*
X150158363Y-80807911D01*
X154240000Y-80807911D01*
X154240000Y-80992089D01*
X154275932Y-81172729D01*
X154346414Y-81342889D01*
X154448738Y-81496028D01*
X154578972Y-81626262D01*
X154732111Y-81728586D01*
X154902271Y-81799068D01*
X155082911Y-81835000D01*
X155267089Y-81835000D01*
X155447729Y-81799068D01*
X155617889Y-81728586D01*
X155757951Y-81635000D01*
X157579465Y-81635000D01*
X157682111Y-81703586D01*
X157852271Y-81774068D01*
X158032911Y-81810000D01*
X158217089Y-81810000D01*
X158397729Y-81774068D01*
X158567889Y-81703586D01*
X158721028Y-81601262D01*
X158851262Y-81471028D01*
X158953586Y-81317889D01*
X159024068Y-81147729D01*
X159060000Y-80967089D01*
X159060000Y-80782911D01*
X159024068Y-80602271D01*
X158953586Y-80432111D01*
X158851262Y-80278972D01*
X158721028Y-80148738D01*
X158567889Y-80046414D01*
X158397729Y-79975932D01*
X158217089Y-79940000D01*
X158032911Y-79940000D01*
X157852271Y-79975932D01*
X157682111Y-80046414D01*
X157579465Y-80115000D01*
X155683120Y-80115000D01*
X155617889Y-80071414D01*
X155447729Y-80000932D01*
X155267089Y-79965000D01*
X155082911Y-79965000D01*
X154902271Y-80000932D01*
X154732111Y-80071414D01*
X154578972Y-80173738D01*
X154448738Y-80303972D01*
X154346414Y-80457111D01*
X154275932Y-80627271D01*
X154240000Y-80807911D01*
X150158363Y-80807911D01*
X150158363Y-80545407D01*
X150243279Y-80528516D01*
X150413439Y-80458034D01*
X150522742Y-80385000D01*
X151304465Y-80385000D01*
X151407111Y-80453586D01*
X151577271Y-80524068D01*
X151757911Y-80560000D01*
X151942089Y-80560000D01*
X152122729Y-80524068D01*
X152292889Y-80453586D01*
X152446028Y-80351262D01*
X152576262Y-80221028D01*
X152678586Y-80067889D01*
X152749068Y-79897729D01*
X152758797Y-79848816D01*
X160885000Y-79848816D01*
X160885000Y-80151184D01*
X160943989Y-80447743D01*
X161059701Y-80727095D01*
X161227688Y-80978505D01*
X161441495Y-81192312D01*
X161692905Y-81360299D01*
X161972257Y-81476011D01*
X162268816Y-81535000D01*
X162571184Y-81535000D01*
X162867743Y-81476011D01*
X163147095Y-81360299D01*
X163398505Y-81192312D01*
X163612312Y-80978505D01*
X163780299Y-80727095D01*
X163896011Y-80447743D01*
X163955000Y-80151184D01*
X163955000Y-79848816D01*
X165965000Y-79848816D01*
X165965000Y-80151184D01*
X166023989Y-80447743D01*
X166139701Y-80727095D01*
X166307688Y-80978505D01*
X166521495Y-81192312D01*
X166772905Y-81360299D01*
X167052257Y-81476011D01*
X167348816Y-81535000D01*
X167651184Y-81535000D01*
X167947743Y-81476011D01*
X168227095Y-81360299D01*
X168478505Y-81192312D01*
X168692312Y-80978505D01*
X168860299Y-80727095D01*
X168976011Y-80447743D01*
X169035000Y-80151184D01*
X169035000Y-79848816D01*
X168976011Y-79552257D01*
X168860299Y-79272905D01*
X168692312Y-79021495D01*
X168478505Y-78807688D01*
X168227095Y-78639701D01*
X167947743Y-78523989D01*
X167651184Y-78465000D01*
X167348816Y-78465000D01*
X167052257Y-78523989D01*
X166772905Y-78639701D01*
X166521495Y-78807688D01*
X166307688Y-79021495D01*
X166139701Y-79272905D01*
X166023989Y-79552257D01*
X165965000Y-79848816D01*
X163955000Y-79848816D01*
X163896011Y-79552257D01*
X163780299Y-79272905D01*
X163612312Y-79021495D01*
X163398505Y-78807688D01*
X163147095Y-78639701D01*
X162867743Y-78523989D01*
X162571184Y-78465000D01*
X162268816Y-78465000D01*
X161972257Y-78523989D01*
X161692905Y-78639701D01*
X161441495Y-78807688D01*
X161227688Y-79021495D01*
X161059701Y-79272905D01*
X160943989Y-79552257D01*
X160885000Y-79848816D01*
X152758797Y-79848816D01*
X152785000Y-79717089D01*
X152785000Y-79532911D01*
X152749068Y-79352271D01*
X152678586Y-79182111D01*
X152576262Y-79028972D01*
X152446028Y-78898738D01*
X152292889Y-78796414D01*
X152122729Y-78725932D01*
X151942089Y-78690000D01*
X151757911Y-78690000D01*
X151577271Y-78725932D01*
X151407111Y-78796414D01*
X151304465Y-78865000D01*
X150509428Y-78865000D01*
X150413439Y-78800862D01*
X150243279Y-78730380D01*
X150062639Y-78694448D01*
X149878461Y-78694448D01*
X149697821Y-78730380D01*
X149527661Y-78800862D01*
X149374522Y-78903186D01*
X149244288Y-79033420D01*
X149141964Y-79186559D01*
X149071482Y-79356719D01*
X149047397Y-79477799D01*
X148887361Y-79637836D01*
X148858363Y-79661634D01*
X148834565Y-79690632D01*
X148834564Y-79690633D01*
X148763389Y-79777359D01*
X148692817Y-79909389D01*
X148672632Y-79975932D01*
X148649361Y-80052649D01*
X148648900Y-80057332D01*
X148634687Y-80201635D01*
X148638364Y-80238967D01*
X148638363Y-80979464D01*
X148569777Y-81082111D01*
X148499295Y-81252271D01*
X148466926Y-81415000D01*
X146289802Y-81415000D01*
X141473153Y-76598352D01*
X141449068Y-76477271D01*
X141378586Y-76307111D01*
X141276262Y-76153972D01*
X141146028Y-76023738D01*
X140992889Y-75921414D01*
X140822729Y-75850932D01*
X140642089Y-75815000D01*
X140457911Y-75815000D01*
X140277271Y-75850932D01*
X140107111Y-75921414D01*
X139953972Y-76023738D01*
X139823738Y-76153972D01*
X139721414Y-76307111D01*
X139650932Y-76477271D01*
X139615000Y-76657911D01*
X139615000Y-76790000D01*
X135807109Y-76790000D01*
X135995178Y-76581355D01*
X136144157Y-76331252D01*
X136241481Y-76056891D01*
X136120814Y-75827000D01*
X134927000Y-75827000D01*
X134927000Y-75847000D01*
X134673000Y-75847000D01*
X134673000Y-75827000D01*
X134653000Y-75827000D01*
X134653000Y-75573000D01*
X134673000Y-75573000D01*
X134673000Y-75553000D01*
X134927000Y-75553000D01*
X134927000Y-75573000D01*
X136120814Y-75573000D01*
X136241481Y-75343109D01*
X136153470Y-75095001D01*
X140245200Y-75095001D01*
X143651847Y-78501649D01*
X143675932Y-78622729D01*
X143746414Y-78792889D01*
X143848738Y-78946028D01*
X143978972Y-79076262D01*
X144132111Y-79178586D01*
X144302271Y-79249068D01*
X144482911Y-79285000D01*
X144667089Y-79285000D01*
X144847729Y-79249068D01*
X145017889Y-79178586D01*
X145171028Y-79076262D01*
X145301262Y-78946028D01*
X145403586Y-78792889D01*
X145474068Y-78622729D01*
X145510000Y-78442089D01*
X145510000Y-78257911D01*
X145474068Y-78077271D01*
X145403586Y-77907111D01*
X145301262Y-77753972D01*
X145171028Y-77623738D01*
X145017889Y-77521414D01*
X144847729Y-77450932D01*
X144726649Y-77426847D01*
X141123805Y-73824004D01*
X141100002Y-73795000D01*
X140984277Y-73700027D01*
X140852248Y-73629455D01*
X140708987Y-73585998D01*
X140597334Y-73575001D01*
X140597323Y-73575001D01*
X140560001Y-73571325D01*
X140522679Y-73575001D01*
X136288072Y-73575001D01*
X136288072Y-72310000D01*
X136275812Y-72185518D01*
X136239502Y-72065820D01*
X136180537Y-71955506D01*
X136101185Y-71858815D01*
X136004494Y-71779463D01*
X135894180Y-71720498D01*
X135774482Y-71684188D01*
X135650000Y-71671928D01*
X133950000Y-71671928D01*
X133825518Y-71684188D01*
X133705820Y-71720498D01*
X133595506Y-71779463D01*
X133498815Y-71858815D01*
X133419463Y-71955506D01*
X133360498Y-72065820D01*
X133338487Y-72138380D01*
X133206632Y-72006525D01*
X132963411Y-71844010D01*
X132693158Y-71732068D01*
X132406260Y-71675000D01*
X132113740Y-71675000D01*
X131826842Y-71732068D01*
X131556589Y-71844010D01*
X131313368Y-72006525D01*
X131106525Y-72213368D01*
X130990000Y-72387760D01*
X130873475Y-72213368D01*
X130666632Y-72006525D01*
X130423411Y-71844010D01*
X130153158Y-71732068D01*
X129866260Y-71675000D01*
X129573740Y-71675000D01*
X129286842Y-71732068D01*
X129016589Y-71844010D01*
X128773368Y-72006525D01*
X128566525Y-72213368D01*
X128404010Y-72456589D01*
X128292068Y-72726842D01*
X128235000Y-73013740D01*
X128235000Y-73306260D01*
X128292068Y-73593158D01*
X128404010Y-73863411D01*
X128566525Y-74106632D01*
X128773368Y-74313475D01*
X128947760Y-74430000D01*
X128773368Y-74546525D01*
X128566525Y-74753368D01*
X128404010Y-74996589D01*
X128292068Y-75266842D01*
X128235000Y-75553740D01*
X128235000Y-75846260D01*
X128292068Y-76133158D01*
X128404010Y-76403411D01*
X128566525Y-76646632D01*
X128709893Y-76790000D01*
X123189802Y-76790000D01*
X117238803Y-70839002D01*
X117215000Y-70809998D01*
X117099275Y-70715025D01*
X116967246Y-70644453D01*
X116823985Y-70600996D01*
X116712332Y-70589999D01*
X116712321Y-70589999D01*
X116674999Y-70586323D01*
X116637677Y-70589999D01*
X111862324Y-70589999D01*
X111825001Y-70586323D01*
X111787678Y-70589999D01*
X111787668Y-70589999D01*
X111676015Y-70600996D01*
X111570804Y-70632911D01*
X111532754Y-70644453D01*
X111400724Y-70715025D01*
X111388570Y-70725000D01*
X111285000Y-70809998D01*
X111261201Y-70838997D01*
X111048351Y-71051847D01*
X110927271Y-71075932D01*
X110757111Y-71146414D01*
X110603972Y-71248738D01*
X110473738Y-71378972D01*
X110371414Y-71532111D01*
X110300932Y-71702271D01*
X110265000Y-71882911D01*
X110265000Y-72067089D01*
X110300932Y-72247729D01*
X110371414Y-72417889D01*
X110473738Y-72571028D01*
X110603972Y-72701262D01*
X110757111Y-72803586D01*
X110927271Y-72874068D01*
X111107911Y-72910000D01*
X111292089Y-72910000D01*
X111472729Y-72874068D01*
X111642889Y-72803586D01*
X111796028Y-72701262D01*
X111926262Y-72571028D01*
X112028586Y-72417889D01*
X112099068Y-72247729D01*
X112123153Y-72126649D01*
X112139803Y-72109999D01*
X115473535Y-72109999D01*
X115500932Y-72247729D01*
X115571414Y-72417889D01*
X115673738Y-72571028D01*
X115803972Y-72701262D01*
X115957111Y-72803586D01*
X116127271Y-72874068D01*
X116248352Y-72898153D01*
X122061205Y-78711008D01*
X122084999Y-78740001D01*
X122113992Y-78763795D01*
X122113996Y-78763799D01*
X122149443Y-78792889D01*
X122200724Y-78834974D01*
X122332753Y-78905546D01*
X122476014Y-78949003D01*
X122587667Y-78960000D01*
X122587676Y-78960000D01*
X122624999Y-78963676D01*
X122662322Y-78960000D01*
X126289183Y-78960000D01*
X126227688Y-79021495D01*
X126059701Y-79272905D01*
X125943989Y-79552257D01*
X125885000Y-79848816D01*
X125885000Y-80151184D01*
X125943989Y-80447743D01*
X126059701Y-80727095D01*
X126227688Y-80978505D01*
X126441495Y-81192312D01*
X126692905Y-81360299D01*
X126715001Y-81369451D01*
X126715000Y-84079464D01*
X126646414Y-84182111D01*
X126575932Y-84352271D01*
X126540000Y-84532911D01*
X126540000Y-84717089D01*
X126559476Y-84815000D01*
X124339802Y-84815000D01*
X120548153Y-81023352D01*
X120524068Y-80902271D01*
X120453586Y-80732111D01*
X120351262Y-80578972D01*
X120221028Y-80448738D01*
X120067889Y-80346414D01*
X119897729Y-80275932D01*
X119717089Y-80240000D01*
X119532911Y-80240000D01*
X119352271Y-80275932D01*
X119182111Y-80346414D01*
X119028972Y-80448738D01*
X118898738Y-80578972D01*
X118796414Y-80732111D01*
X118725932Y-80902271D01*
X118690000Y-81082911D01*
X118690000Y-81267089D01*
X118694462Y-81289522D01*
X118557111Y-81346414D01*
X118403972Y-81448738D01*
X118273738Y-81578972D01*
X118171414Y-81732111D01*
X118100932Y-81902271D01*
X118065000Y-82082911D01*
X118065000Y-82267089D01*
X118100932Y-82447729D01*
X118171414Y-82617889D01*
X118273738Y-82771028D01*
X118403972Y-82901262D01*
X118557111Y-83003586D01*
X118727271Y-83074068D01*
X118854593Y-83099394D01*
X124148833Y-88393636D01*
X124120000Y-88538589D01*
X124120000Y-88811411D01*
X124165470Y-89040000D01*
X121810524Y-89040000D01*
X121810000Y-88960750D01*
X121651250Y-88802000D01*
X120552000Y-88802000D01*
X120552000Y-88822000D01*
X120298000Y-88822000D01*
X120298000Y-88802000D01*
X119198750Y-88802000D01*
X119040000Y-88960750D01*
X119039476Y-89040000D01*
X116537323Y-89040000D01*
X116500000Y-89036324D01*
X116462677Y-89040000D01*
X116462667Y-89040000D01*
X116351014Y-89050997D01*
X116207753Y-89094454D01*
X116075723Y-89165026D01*
X116014830Y-89215000D01*
X115959999Y-89259999D01*
X115936201Y-89288997D01*
X115085199Y-90140000D01*
X106320535Y-90140000D01*
X106217889Y-90071414D01*
X106047729Y-90000932D01*
X105867089Y-89965000D01*
X105682911Y-89965000D01*
X105502271Y-90000932D01*
X105332111Y-90071414D01*
X105178972Y-90173738D01*
X105048738Y-90303972D01*
X104946414Y-90457111D01*
X104875932Y-90627271D01*
X104840000Y-90807911D01*
X104840000Y-90992089D01*
X104875932Y-91172729D01*
X104946414Y-91342889D01*
X105048738Y-91496028D01*
X105178972Y-91626262D01*
X105332111Y-91728586D01*
X105502271Y-91799068D01*
X105682911Y-91835000D01*
X105867089Y-91835000D01*
X106047729Y-91799068D01*
X106217889Y-91728586D01*
X106320535Y-91660000D01*
X113390000Y-91660000D01*
X113390000Y-91692089D01*
X113425932Y-91872729D01*
X113496414Y-92042889D01*
X113573140Y-92157718D01*
X112344605Y-92157718D01*
X112307282Y-92154042D01*
X112269959Y-92157718D01*
X112269949Y-92157718D01*
X112158296Y-92168715D01*
X112015035Y-92212172D01*
X111883006Y-92282744D01*
X111767281Y-92377717D01*
X111743483Y-92406715D01*
X106798352Y-97351847D01*
X106677271Y-97375932D01*
X106507111Y-97446414D01*
X106365701Y-97540901D01*
X96749800Y-87925000D01*
X119036928Y-87925000D01*
X119040000Y-88389250D01*
X119198750Y-88548000D01*
X120298000Y-88548000D01*
X120298000Y-87448750D01*
X120552000Y-87448750D01*
X120552000Y-88548000D01*
X121651250Y-88548000D01*
X121810000Y-88389250D01*
X121813072Y-87925000D01*
X121800812Y-87800518D01*
X121764502Y-87680820D01*
X121705537Y-87570506D01*
X121626185Y-87473815D01*
X121529494Y-87394463D01*
X121419180Y-87335498D01*
X121299482Y-87299188D01*
X121175000Y-87286928D01*
X120710750Y-87290000D01*
X120552000Y-87448750D01*
X120298000Y-87448750D01*
X120139250Y-87290000D01*
X119675000Y-87286928D01*
X119550518Y-87299188D01*
X119430820Y-87335498D01*
X119320506Y-87394463D01*
X119223815Y-87473815D01*
X119144463Y-87570506D01*
X119085498Y-87680820D01*
X119049188Y-87800518D01*
X119036928Y-87925000D01*
X96749800Y-87925000D01*
X93180000Y-84355201D01*
X93180000Y-81338313D01*
X93398505Y-81192312D01*
X93612312Y-80978505D01*
X93780299Y-80727095D01*
X93896011Y-80447743D01*
X93955000Y-80151184D01*
X93955000Y-79848816D01*
X95965000Y-79848816D01*
X95965000Y-80151184D01*
X96023989Y-80447743D01*
X96139701Y-80727095D01*
X96307688Y-80978505D01*
X96521495Y-81192312D01*
X96772905Y-81360299D01*
X97052257Y-81476011D01*
X97348816Y-81535000D01*
X97651184Y-81535000D01*
X97947743Y-81476011D01*
X98227095Y-81360299D01*
X98478505Y-81192312D01*
X98692312Y-80978505D01*
X98838313Y-80760000D01*
X100062678Y-80760000D01*
X100100000Y-80763676D01*
X100137322Y-80760000D01*
X100137333Y-80760000D01*
X100248986Y-80749003D01*
X100392247Y-80705546D01*
X100524276Y-80634974D01*
X100640001Y-80540001D01*
X100663804Y-80510997D01*
X101045000Y-80129801D01*
X101045000Y-80151184D01*
X101103989Y-80447743D01*
X101219701Y-80727095D01*
X101387688Y-80978505D01*
X101601495Y-81192312D01*
X101852905Y-81360299D01*
X102132257Y-81476011D01*
X102428816Y-81535000D01*
X102731184Y-81535000D01*
X103027743Y-81476011D01*
X103307095Y-81360299D01*
X103558505Y-81192312D01*
X103772312Y-80978505D01*
X103940299Y-80727095D01*
X104056011Y-80447743D01*
X104115000Y-80151184D01*
X104115000Y-79848816D01*
X104056011Y-79552257D01*
X103940299Y-79272905D01*
X103772312Y-79021495D01*
X103558505Y-78807688D01*
X103307095Y-78639701D01*
X103027743Y-78523989D01*
X102731184Y-78465000D01*
X102709801Y-78465000D01*
X104876649Y-76298153D01*
X104997729Y-76274068D01*
X105167889Y-76203586D01*
X105321028Y-76101262D01*
X105451262Y-75971028D01*
X105553586Y-75817889D01*
X105624068Y-75647729D01*
X105660000Y-75467089D01*
X105660000Y-75282911D01*
X105624068Y-75102271D01*
X105553586Y-74932111D01*
X105451262Y-74778972D01*
X105321028Y-74648738D01*
X105167889Y-74546414D01*
X104997729Y-74475932D01*
X104817089Y-74440000D01*
X104632911Y-74440000D01*
X104452271Y-74475932D01*
X104282111Y-74546414D01*
X104128972Y-74648738D01*
X103998738Y-74778972D01*
X103896414Y-74932111D01*
X103825932Y-75102271D01*
X103801847Y-75223351D01*
X99785199Y-79240000D01*
X98838313Y-79240000D01*
X98692312Y-79021495D01*
X98478505Y-78807688D01*
X98227095Y-78639701D01*
X97947743Y-78523989D01*
X97651184Y-78465000D01*
X97348816Y-78465000D01*
X97052257Y-78523989D01*
X96772905Y-78639701D01*
X96521495Y-78807688D01*
X96307688Y-79021495D01*
X96139701Y-79272905D01*
X96023989Y-79552257D01*
X95965000Y-79848816D01*
X93955000Y-79848816D01*
X93896011Y-79552257D01*
X93780299Y-79272905D01*
X93612312Y-79021495D01*
X93398505Y-78807688D01*
X93147095Y-78639701D01*
X92867743Y-78523989D01*
X92571184Y-78465000D01*
X92268816Y-78465000D01*
X91972257Y-78523989D01*
X91692905Y-78639701D01*
X91441495Y-78807688D01*
X91227688Y-79021495D01*
X91059701Y-79272905D01*
X90943989Y-79552257D01*
X90885000Y-79848816D01*
X90885000Y-80151184D01*
X90943989Y-80447743D01*
X91059701Y-80727095D01*
X91227688Y-80978505D01*
X91441495Y-81192312D01*
X91660001Y-81338313D01*
X91660000Y-84632679D01*
X91656324Y-84670002D01*
X91660000Y-84707324D01*
X91660000Y-84707334D01*
X91670997Y-84818987D01*
X91702935Y-84924275D01*
X91714454Y-84962248D01*
X91785026Y-85094278D01*
X91818425Y-85134974D01*
X91879999Y-85210003D01*
X91909003Y-85233806D01*
X106086200Y-99411004D01*
X106109998Y-99440002D01*
X106138996Y-99463800D01*
X106225723Y-99534975D01*
X106357752Y-99605547D01*
X106501013Y-99649004D01*
X106649999Y-99663678D01*
X106687332Y-99660001D01*
X115242677Y-99660001D01*
X115279999Y-99663677D01*
X115317321Y-99660001D01*
X115317332Y-99660001D01*
X115428985Y-99649004D01*
X115572246Y-99605547D01*
X115704275Y-99534975D01*
X115820000Y-99440002D01*
X115843803Y-99410998D01*
X119040000Y-96214802D01*
X119040000Y-96431411D01*
X119093225Y-96698989D01*
X119197629Y-96951043D01*
X119349201Y-97177886D01*
X119542114Y-97370799D01*
X119768957Y-97522371D01*
X119871873Y-97565000D01*
X119768957Y-97607629D01*
X119542114Y-97759201D01*
X119349201Y-97952114D01*
X119197629Y-98178957D01*
X119093225Y-98431011D01*
X119040000Y-98698589D01*
X119040000Y-98971411D01*
X119068833Y-99116365D01*
X109720198Y-108465001D01*
X104048862Y-108465001D01*
X104056011Y-108447743D01*
X104115000Y-108151184D01*
X104115000Y-107848816D01*
X104056011Y-107552257D01*
X103940299Y-107272905D01*
X103772312Y-107021495D01*
X103558505Y-106807688D01*
X103307095Y-106639701D01*
X103027743Y-106523989D01*
X102731184Y-106465000D01*
X102428816Y-106465000D01*
X102132257Y-106523989D01*
X101852905Y-106639701D01*
X101601495Y-106807688D01*
X101387688Y-107021495D01*
X101219701Y-107272905D01*
X101103989Y-107552257D01*
X101045000Y-107848816D01*
X101045000Y-108151184D01*
X101103989Y-108447743D01*
X101111138Y-108465001D01*
X98968862Y-108465001D01*
X98976011Y-108447743D01*
X99035000Y-108151184D01*
X99035000Y-107848816D01*
X98976011Y-107552257D01*
X98860299Y-107272905D01*
X98692312Y-107021495D01*
X98478505Y-106807688D01*
X98260000Y-106661687D01*
X98260000Y-92683120D01*
X98303586Y-92617889D01*
X98374068Y-92447729D01*
X98410000Y-92267089D01*
X98410000Y-92082911D01*
X98374068Y-91902271D01*
X98303586Y-91732111D01*
X98201262Y-91578972D01*
X98071028Y-91448738D01*
X97917889Y-91346414D01*
X97747729Y-91275932D01*
X97567089Y-91240000D01*
X97382911Y-91240000D01*
X97202271Y-91275932D01*
X97032111Y-91346414D01*
X96878972Y-91448738D01*
X96748738Y-91578972D01*
X96646414Y-91732111D01*
X96575932Y-91902271D01*
X96540000Y-92082911D01*
X96540000Y-92267089D01*
X96575932Y-92447729D01*
X96646414Y-92617889D01*
X96740001Y-92757952D01*
X96740000Y-106661687D01*
X96521495Y-106807688D01*
X96307688Y-107021495D01*
X96139701Y-107272905D01*
X96023989Y-107552257D01*
X95965000Y-107848816D01*
X95965000Y-108151184D01*
X96023989Y-108447743D01*
X96031138Y-108465001D01*
X93959803Y-108465001D01*
X93903731Y-108408930D01*
X93955000Y-108151184D01*
X93955000Y-107848816D01*
X93896011Y-107552257D01*
X93780299Y-107272905D01*
X93612312Y-107021495D01*
X93398505Y-106807688D01*
X93147095Y-106639701D01*
X92867743Y-106523989D01*
X92571184Y-106465000D01*
X92268816Y-106465000D01*
X91972257Y-106523989D01*
X91692905Y-106639701D01*
X91441495Y-106807688D01*
X91227688Y-107021495D01*
X91059701Y-107272905D01*
X90943989Y-107552257D01*
X90885000Y-107848816D01*
X90885000Y-108151184D01*
X90943989Y-108447743D01*
X91059701Y-108727095D01*
X91227688Y-108978505D01*
X91441495Y-109192312D01*
X91692905Y-109360299D01*
X91972257Y-109476011D01*
X92268816Y-109535000D01*
X92571184Y-109535000D01*
X92828930Y-109483731D01*
X93081202Y-109736004D01*
X93105000Y-109765002D01*
X93133998Y-109788800D01*
X93220724Y-109859975D01*
X93352754Y-109930547D01*
X93496015Y-109974004D01*
X93607668Y-109985001D01*
X93607677Y-109985001D01*
X93645000Y-109988677D01*
X93682323Y-109985001D01*
X109997677Y-109985001D01*
X110034999Y-109988677D01*
X110072321Y-109985001D01*
X110072332Y-109985001D01*
X110183985Y-109974004D01*
X110327246Y-109930547D01*
X110459275Y-109859975D01*
X110575000Y-109765002D01*
X110598803Y-109735998D01*
X110684801Y-109650000D01*
X111511928Y-109650000D01*
X111511928Y-111150000D01*
X111528992Y-111323254D01*
X111579528Y-111489850D01*
X111661595Y-111643386D01*
X111772038Y-111777962D01*
X111906614Y-111888405D01*
X112060150Y-111970472D01*
X112226746Y-112021008D01*
X112400000Y-112038072D01*
X113600000Y-112038072D01*
X113773254Y-112021008D01*
X113939850Y-111970472D01*
X114093386Y-111888405D01*
X114227962Y-111777962D01*
X114338405Y-111643386D01*
X114392777Y-111541663D01*
X114444866Y-111605134D01*
X114670987Y-111790706D01*
X114928967Y-111928599D01*
X115208890Y-112013513D01*
X115500000Y-112042185D01*
X115791111Y-112013513D01*
X116071034Y-111928599D01*
X116329014Y-111790706D01*
X116555134Y-111605134D01*
X116740706Y-111379014D01*
X116878599Y-111121033D01*
X116963513Y-110841110D01*
X116985000Y-110622949D01*
X116985000Y-110177050D01*
X116963513Y-109958889D01*
X116878599Y-109678966D01*
X116740706Y-109420986D01*
X116555134Y-109194866D01*
X116329013Y-109009294D01*
X116071033Y-108871401D01*
X115791110Y-108786487D01*
X115500000Y-108757815D01*
X115208889Y-108786487D01*
X114928966Y-108871401D01*
X114670986Y-109009294D01*
X114444866Y-109194866D01*
X114392777Y-109258337D01*
X114338405Y-109156614D01*
X114227962Y-109022038D01*
X114093386Y-108911595D01*
X113939850Y-108829528D01*
X113773254Y-108778992D01*
X113600000Y-108761928D01*
X112400000Y-108761928D01*
X112226746Y-108778992D01*
X112060150Y-108829528D01*
X111906614Y-108911595D01*
X111772038Y-109022038D01*
X111661595Y-109156614D01*
X111579528Y-109310150D01*
X111528992Y-109476746D01*
X111511928Y-109650000D01*
X110684801Y-109650000D01*
X120143635Y-100191167D01*
X120288589Y-100220000D01*
X120561411Y-100220000D01*
X120828989Y-100166775D01*
X121081043Y-100062371D01*
X121307886Y-99910799D01*
X121500799Y-99717886D01*
X121652371Y-99491043D01*
X121756775Y-99238989D01*
X121810000Y-98971411D01*
X121810000Y-98698589D01*
X121756775Y-98431011D01*
X121652371Y-98178957D01*
X121500799Y-97952114D01*
X121307886Y-97759201D01*
X121081043Y-97607629D01*
X120978127Y-97565000D01*
X121081043Y-97522371D01*
X121307886Y-97370799D01*
X121500799Y-97177886D01*
X121652371Y-96951043D01*
X121756775Y-96698989D01*
X121810000Y-96431411D01*
X121810000Y-96158589D01*
X121756775Y-95891011D01*
X121652371Y-95638957D01*
X121500799Y-95412114D01*
X121307886Y-95219201D01*
X121081043Y-95067629D01*
X120978127Y-95025000D01*
X121081043Y-94982371D01*
X121307886Y-94830799D01*
X121500799Y-94637886D01*
X121652371Y-94411043D01*
X121756775Y-94158989D01*
X121810000Y-93891411D01*
X121810000Y-93674801D01*
X124148833Y-96013635D01*
X124120000Y-96158589D01*
X124120000Y-96431411D01*
X124173225Y-96698989D01*
X124277629Y-96951043D01*
X124429201Y-97177886D01*
X124622114Y-97370799D01*
X124848957Y-97522371D01*
X124951873Y-97565000D01*
X124848957Y-97607629D01*
X124622114Y-97759201D01*
X124429201Y-97952114D01*
X124277629Y-98178957D01*
X124173225Y-98431011D01*
X124120000Y-98698589D01*
X124120000Y-98971411D01*
X124173225Y-99238989D01*
X124277629Y-99491043D01*
X124429201Y-99717886D01*
X124622114Y-99910799D01*
X124848957Y-100062371D01*
X125101011Y-100166775D01*
X125368589Y-100220000D01*
X125641411Y-100220000D01*
X125786365Y-100191167D01*
X127885001Y-102289803D01*
X127885002Y-106531138D01*
X127867743Y-106523989D01*
X127571184Y-106465000D01*
X127268816Y-106465000D01*
X126972257Y-106523989D01*
X126692905Y-106639701D01*
X126441495Y-106807688D01*
X126227688Y-107021495D01*
X126059701Y-107272905D01*
X125943989Y-107552257D01*
X125885000Y-107848816D01*
X125885000Y-108151184D01*
X125943989Y-108447743D01*
X126059701Y-108727095D01*
X126227688Y-108978505D01*
X126441495Y-109192312D01*
X126692905Y-109360299D01*
X126972257Y-109476011D01*
X127268816Y-109535000D01*
X127571184Y-109535000D01*
X127867743Y-109476011D01*
X128147095Y-109360299D01*
X128398505Y-109192312D01*
X128612312Y-108978505D01*
X128780299Y-108727095D01*
X128801386Y-108676187D01*
X129861202Y-109736004D01*
X129885000Y-109765002D01*
X129913998Y-109788800D01*
X130000724Y-109859975D01*
X130132754Y-109930547D01*
X130276015Y-109974004D01*
X130387668Y-109985001D01*
X130387677Y-109985001D01*
X130425000Y-109988677D01*
X130462323Y-109985001D01*
X136317677Y-109985001D01*
X136354999Y-109988677D01*
X136392321Y-109985001D01*
X136392332Y-109985001D01*
X136503985Y-109974004D01*
X136647246Y-109930547D01*
X136779275Y-109859975D01*
X136895000Y-109765002D01*
X136918803Y-109735998D01*
X137171070Y-109483731D01*
X137428816Y-109535000D01*
X137731184Y-109535000D01*
X138027743Y-109476011D01*
X138307095Y-109360299D01*
X138558505Y-109192312D01*
X138772312Y-108978505D01*
X138940299Y-108727095D01*
X139056011Y-108447743D01*
X139115000Y-108151184D01*
X139115000Y-107848816D01*
X139056011Y-107552257D01*
X138940299Y-107272905D01*
X138772312Y-107021495D01*
X138558505Y-106807688D01*
X138307095Y-106639701D01*
X138027743Y-106523989D01*
X137731184Y-106465000D01*
X137428816Y-106465000D01*
X137132257Y-106523989D01*
X136852905Y-106639701D01*
X136601495Y-106807688D01*
X136387688Y-107021495D01*
X136219701Y-107272905D01*
X136103989Y-107552257D01*
X136045000Y-107848816D01*
X136045000Y-108151184D01*
X136096269Y-108408930D01*
X136040198Y-108465001D01*
X133968862Y-108465001D01*
X133976011Y-108447743D01*
X134035000Y-108151184D01*
X134035000Y-107848816D01*
X133976011Y-107552257D01*
X133860299Y-107272905D01*
X133692312Y-107021495D01*
X133478505Y-106807688D01*
X133260000Y-106661687D01*
X133260000Y-94180578D01*
X133407911Y-94210000D01*
X133592089Y-94210000D01*
X133772729Y-94174068D01*
X133942889Y-94103586D01*
X134045535Y-94035000D01*
X135860199Y-94035000D01*
X137751847Y-95926649D01*
X137775932Y-96047729D01*
X137846414Y-96217889D01*
X137948738Y-96371028D01*
X138078972Y-96501262D01*
X138232111Y-96603586D01*
X138402271Y-96674068D01*
X138582911Y-96710000D01*
X138767089Y-96710000D01*
X138947729Y-96674068D01*
X139117889Y-96603586D01*
X139140001Y-96588811D01*
X139140000Y-98804464D01*
X139071414Y-98907111D01*
X139000932Y-99077271D01*
X138965000Y-99257911D01*
X138965000Y-99442089D01*
X139000932Y-99622729D01*
X139071414Y-99792889D01*
X139173738Y-99946028D01*
X139303972Y-100076262D01*
X139457111Y-100178586D01*
X139627271Y-100249068D01*
X139807911Y-100285000D01*
X139992089Y-100285000D01*
X140172729Y-100249068D01*
X140342889Y-100178586D01*
X140496028Y-100076262D01*
X140626262Y-99946028D01*
X140728586Y-99792889D01*
X140799068Y-99622729D01*
X140835000Y-99442089D01*
X140835000Y-99257911D01*
X140799068Y-99077271D01*
X140728586Y-98907111D01*
X140660000Y-98804465D01*
X140660000Y-96555000D01*
X147731957Y-96555000D01*
X147835363Y-96709759D01*
X148035241Y-96909637D01*
X148270273Y-97066680D01*
X148531426Y-97174853D01*
X148808665Y-97230000D01*
X149091335Y-97230000D01*
X149368574Y-97174853D01*
X149629727Y-97066680D01*
X149864759Y-96909637D01*
X150049797Y-96724599D01*
X152776847Y-99451649D01*
X152800932Y-99572729D01*
X152871414Y-99742889D01*
X152973738Y-99896028D01*
X153103972Y-100026262D01*
X153257111Y-100128586D01*
X153427271Y-100199068D01*
X153607911Y-100235000D01*
X153792089Y-100235000D01*
X153972729Y-100199068D01*
X154142889Y-100128586D01*
X154296028Y-100026262D01*
X154426262Y-99896028D01*
X154528586Y-99742889D01*
X154599068Y-99572729D01*
X154635000Y-99392089D01*
X154635000Y-99207911D01*
X154599068Y-99027271D01*
X154528586Y-98857111D01*
X154426262Y-98703972D01*
X154296028Y-98573738D01*
X154142889Y-98471414D01*
X153972729Y-98400932D01*
X153851649Y-98376847D01*
X151010000Y-95535199D01*
X151010000Y-94170535D01*
X151078586Y-94067889D01*
X151149068Y-93897729D01*
X151185000Y-93717089D01*
X151185000Y-93532911D01*
X151149068Y-93352271D01*
X151078586Y-93182111D01*
X150976262Y-93028972D01*
X150846028Y-92898738D01*
X150692889Y-92796414D01*
X150522729Y-92725932D01*
X150342089Y-92690000D01*
X150334801Y-92690000D01*
X151026649Y-91998153D01*
X151147729Y-91974068D01*
X151317889Y-91903586D01*
X151471028Y-91801262D01*
X151486244Y-91786046D01*
X152940001Y-93239804D01*
X152940000Y-94551956D01*
X152785241Y-94655363D01*
X152585363Y-94855241D01*
X152428320Y-95090273D01*
X152320147Y-95351426D01*
X152265000Y-95628665D01*
X152265000Y-95911335D01*
X152320147Y-96188574D01*
X152428320Y-96449727D01*
X152585363Y-96684759D01*
X152785241Y-96884637D01*
X153020273Y-97041680D01*
X153281426Y-97149853D01*
X153558665Y-97205000D01*
X153841335Y-97205000D01*
X154118574Y-97149853D01*
X154379727Y-97041680D01*
X154614759Y-96884637D01*
X154814637Y-96684759D01*
X154971680Y-96449727D01*
X155079853Y-96188574D01*
X155135000Y-95911335D01*
X155135000Y-95628665D01*
X155079853Y-95351426D01*
X154971680Y-95090273D01*
X154814637Y-94855241D01*
X154614759Y-94655363D01*
X154460000Y-94551957D01*
X154460000Y-93760000D01*
X157134863Y-93760000D01*
X157075932Y-93902273D01*
X157040000Y-94082913D01*
X157040000Y-94267091D01*
X157075932Y-94447731D01*
X157146414Y-94617891D01*
X157215001Y-94720539D01*
X157215000Y-99010197D01*
X153614299Y-102610899D01*
X153576262Y-102553972D01*
X153446028Y-102423738D01*
X153292889Y-102321414D01*
X153122729Y-102250932D01*
X152942089Y-102215000D01*
X152757911Y-102215000D01*
X152577271Y-102250932D01*
X152407111Y-102321414D01*
X152253972Y-102423738D01*
X152123738Y-102553972D01*
X152021414Y-102707111D01*
X151950932Y-102877271D01*
X151926847Y-102998351D01*
X142685199Y-112240000D01*
X100230579Y-112240000D01*
X100130299Y-111997905D01*
X99962312Y-111746495D01*
X99748505Y-111532688D01*
X99497095Y-111364701D01*
X99217743Y-111248989D01*
X98921184Y-111190000D01*
X98618816Y-111190000D01*
X98322257Y-111248989D01*
X98042905Y-111364701D01*
X97791495Y-111532688D01*
X97608728Y-111715455D01*
X97584699Y-111670500D01*
X97449383Y-111505617D01*
X97284500Y-111370301D01*
X97096387Y-111269753D01*
X96892272Y-111207835D01*
X96680000Y-111186928D01*
X95780000Y-111186928D01*
X95567728Y-111207835D01*
X95363613Y-111269753D01*
X95175500Y-111370301D01*
X95010617Y-111505617D01*
X94875301Y-111670500D01*
X94774753Y-111858613D01*
X94712835Y-112062728D01*
X94691928Y-112275000D01*
X94691928Y-113175000D01*
X94712835Y-113387272D01*
X94774753Y-113591387D01*
X94875301Y-113779500D01*
X95010617Y-113944383D01*
X95175500Y-114079699D01*
X95363613Y-114180247D01*
X95567728Y-114242165D01*
X95780000Y-114263072D01*
X96680000Y-114263072D01*
X96892272Y-114242165D01*
X97096387Y-114180247D01*
X97284500Y-114079699D01*
X97449383Y-113944383D01*
X97584699Y-113779500D01*
X97608728Y-113734545D01*
X97791495Y-113917312D01*
X98042905Y-114085299D01*
X98322257Y-114201011D01*
X98618816Y-114260000D01*
X98921184Y-114260000D01*
X99217743Y-114201011D01*
X99497095Y-114085299D01*
X99748505Y-113917312D01*
X99905817Y-113760000D01*
X114540000Y-113760000D01*
X114540000Y-113767091D01*
X114575932Y-113947731D01*
X114646414Y-114117891D01*
X114748738Y-114271030D01*
X114792708Y-114315000D01*
X85685000Y-114315000D01*
X85685000Y-70014722D01*
X86865000Y-70014722D01*
X86865000Y-70435280D01*
X86947047Y-70847757D01*
X87107988Y-71236303D01*
X87341637Y-71585984D01*
X87639017Y-71883364D01*
X87988698Y-72117013D01*
X88377244Y-72277954D01*
X88789721Y-72360001D01*
X89210279Y-72360001D01*
X89622756Y-72277954D01*
X90011302Y-72117013D01*
X90360983Y-71883364D01*
X90658363Y-71585984D01*
X90892012Y-71236303D01*
X91052953Y-70847757D01*
X91135000Y-70435280D01*
X91135000Y-70014722D01*
X103095000Y-70014722D01*
X103095000Y-70435280D01*
X103177047Y-70847757D01*
X103337988Y-71236303D01*
X103571637Y-71585984D01*
X103869017Y-71883364D01*
X104218698Y-72117013D01*
X104607244Y-72277954D01*
X105019721Y-72360001D01*
X105440279Y-72360001D01*
X105852756Y-72277954D01*
X106241302Y-72117013D01*
X106590983Y-71883364D01*
X106888363Y-71585984D01*
X107122012Y-71236303D01*
X107282953Y-70847757D01*
X107325688Y-70632911D01*
X108440000Y-70632911D01*
X108440000Y-70817089D01*
X108475932Y-70997729D01*
X108546414Y-71167889D01*
X108648738Y-71321028D01*
X108778972Y-71451262D01*
X108932111Y-71553586D01*
X109102271Y-71624068D01*
X109282911Y-71660000D01*
X109467089Y-71660000D01*
X109647729Y-71624068D01*
X109817889Y-71553586D01*
X109971028Y-71451262D01*
X110101262Y-71321028D01*
X110203586Y-71167889D01*
X110274068Y-70997729D01*
X110298153Y-70876648D01*
X112676649Y-68498153D01*
X112797729Y-68474068D01*
X112967889Y-68403586D01*
X113121028Y-68301262D01*
X113251262Y-68171028D01*
X113353586Y-68017889D01*
X113424068Y-67847729D01*
X113460000Y-67667089D01*
X113460000Y-67482911D01*
X113424068Y-67302271D01*
X113353586Y-67132111D01*
X113251262Y-66978972D01*
X113121028Y-66848738D01*
X112967889Y-66746414D01*
X112797729Y-66675932D01*
X112617089Y-66640000D01*
X112432911Y-66640000D01*
X112252271Y-66675932D01*
X112082111Y-66746414D01*
X111928972Y-66848738D01*
X111798738Y-66978972D01*
X111696414Y-67132111D01*
X111625932Y-67302271D01*
X111601847Y-67423351D01*
X109223352Y-69801847D01*
X109102271Y-69825932D01*
X108932111Y-69896414D01*
X108778972Y-69998738D01*
X108648738Y-70128972D01*
X108546414Y-70282111D01*
X108475932Y-70452271D01*
X108440000Y-70632911D01*
X107325688Y-70632911D01*
X107365000Y-70435280D01*
X107365000Y-70014722D01*
X107282953Y-69602245D01*
X107122012Y-69213699D01*
X106888363Y-68864018D01*
X106590983Y-68566638D01*
X106241302Y-68332989D01*
X105852756Y-68172048D01*
X105440279Y-68090001D01*
X105019721Y-68090001D01*
X104607244Y-68172048D01*
X104218698Y-68332989D01*
X103869017Y-68566638D01*
X103571637Y-68864018D01*
X103337988Y-69213699D01*
X103177047Y-69602245D01*
X103095000Y-70014722D01*
X91135000Y-70014722D01*
X91052953Y-69602245D01*
X90892012Y-69213699D01*
X90658363Y-68864018D01*
X90360983Y-68566638D01*
X90104524Y-68395278D01*
X96301649Y-62198153D01*
X96422729Y-62174068D01*
X96592889Y-62103586D01*
X96746028Y-62001262D01*
X96876262Y-61871028D01*
X96978586Y-61717889D01*
X97049068Y-61547729D01*
X97085000Y-61367089D01*
X97085000Y-61182911D01*
X97049068Y-61002271D01*
X96978586Y-60832111D01*
X96876262Y-60678972D01*
X96746028Y-60548738D01*
X96592889Y-60446414D01*
X96422729Y-60375932D01*
X96242089Y-60340000D01*
X96057911Y-60340000D01*
X95877271Y-60375932D01*
X95707111Y-60446414D01*
X95553972Y-60548738D01*
X95423738Y-60678972D01*
X95321414Y-60832111D01*
X95250932Y-61002271D01*
X95226847Y-61123351D01*
X88488998Y-67861201D01*
X88460000Y-67884999D01*
X88436202Y-67913997D01*
X88436201Y-67913998D01*
X88365026Y-68000724D01*
X88294454Y-68132754D01*
X88282535Y-68172048D01*
X88268925Y-68216915D01*
X87988698Y-68332989D01*
X87639017Y-68566638D01*
X87341637Y-68864018D01*
X87107988Y-69213699D01*
X86947047Y-69602245D01*
X86865000Y-70014722D01*
X85685000Y-70014722D01*
X85685000Y-57314722D01*
X86865000Y-57314722D01*
X86865000Y-57735280D01*
X86947047Y-58147757D01*
X87107988Y-58536303D01*
X87341637Y-58885984D01*
X87639017Y-59183364D01*
X87988698Y-59417013D01*
X88377244Y-59577954D01*
X88789721Y-59660001D01*
X89210279Y-59660001D01*
X89622756Y-59577954D01*
X90011302Y-59417013D01*
X90360983Y-59183364D01*
X90658363Y-58885984D01*
X90892012Y-58536303D01*
X91052953Y-58147757D01*
X91135000Y-57735280D01*
X91135000Y-57314722D01*
X103095000Y-57314722D01*
X103095000Y-57735280D01*
X103177047Y-58147757D01*
X103337988Y-58536303D01*
X103571637Y-58885984D01*
X103869017Y-59183364D01*
X104218698Y-59417013D01*
X104607244Y-59577954D01*
X105019721Y-59660001D01*
X105440279Y-59660001D01*
X105852756Y-59577954D01*
X106241302Y-59417013D01*
X106590983Y-59183364D01*
X106888363Y-58885984D01*
X107122012Y-58536303D01*
X107129349Y-58518589D01*
X110015000Y-58518589D01*
X110015000Y-58791411D01*
X110068225Y-59058989D01*
X110172629Y-59311043D01*
X110324201Y-59537886D01*
X110517114Y-59730799D01*
X110743957Y-59882371D01*
X110846873Y-59925000D01*
X110743957Y-59967629D01*
X110517114Y-60119201D01*
X110324201Y-60312114D01*
X110172629Y-60538957D01*
X110068225Y-60791011D01*
X110015000Y-61058589D01*
X110015000Y-61331411D01*
X110068225Y-61598989D01*
X110172629Y-61851043D01*
X110324201Y-62077886D01*
X110517114Y-62270799D01*
X110743957Y-62422371D01*
X110846873Y-62465000D01*
X110743957Y-62507629D01*
X110517114Y-62659201D01*
X110324201Y-62852114D01*
X110172629Y-63078957D01*
X110068225Y-63331011D01*
X110015000Y-63598589D01*
X110015000Y-63871411D01*
X110068225Y-64138989D01*
X110172629Y-64391043D01*
X110324201Y-64617886D01*
X110517114Y-64810799D01*
X110743957Y-64962371D01*
X110996011Y-65066775D01*
X111263589Y-65120000D01*
X111536411Y-65120000D01*
X111803989Y-65066775D01*
X112056043Y-64962371D01*
X112282886Y-64810799D01*
X112475799Y-64617886D01*
X112627371Y-64391043D01*
X112731775Y-64138989D01*
X112785000Y-63871411D01*
X112785000Y-63598589D01*
X112731775Y-63331011D01*
X112627371Y-63078957D01*
X112475799Y-62852114D01*
X112282886Y-62659201D01*
X112056043Y-62507629D01*
X111953127Y-62465000D01*
X112056043Y-62422371D01*
X112282886Y-62270799D01*
X112283684Y-62270001D01*
X114641323Y-62270001D01*
X114644999Y-62307324D01*
X114645000Y-64213669D01*
X114641323Y-64251001D01*
X114655997Y-64399986D01*
X114699453Y-64543247D01*
X114770025Y-64675277D01*
X114841200Y-64762003D01*
X114864999Y-64791002D01*
X114893997Y-64814800D01*
X120815203Y-70736008D01*
X120838997Y-70765001D01*
X120867990Y-70788795D01*
X120867994Y-70788799D01*
X120902466Y-70817089D01*
X120954722Y-70859974D01*
X121086751Y-70930546D01*
X121230012Y-70974003D01*
X121341665Y-70985000D01*
X121341674Y-70985000D01*
X121378997Y-70988676D01*
X121416320Y-70985000D01*
X157778895Y-70985000D01*
X157882988Y-71236302D01*
X158116637Y-71585983D01*
X158414017Y-71883363D01*
X158763698Y-72117012D01*
X159152244Y-72277953D01*
X159564721Y-72360000D01*
X159985279Y-72360000D01*
X160397756Y-72277953D01*
X160786302Y-72117012D01*
X161135983Y-71883363D01*
X161433363Y-71585983D01*
X161667012Y-71236302D01*
X161827953Y-70847756D01*
X161910000Y-70435279D01*
X161910000Y-70014721D01*
X173870000Y-70014721D01*
X173870000Y-70435279D01*
X173952047Y-70847756D01*
X174112988Y-71236302D01*
X174346637Y-71585983D01*
X174644017Y-71883363D01*
X174993698Y-72117012D01*
X175382244Y-72277953D01*
X175794721Y-72360000D01*
X176215279Y-72360000D01*
X176627756Y-72277953D01*
X177016302Y-72117012D01*
X177365983Y-71883363D01*
X177663363Y-71585983D01*
X177897012Y-71236302D01*
X178057953Y-70847756D01*
X178140000Y-70435279D01*
X178140000Y-70014721D01*
X178057953Y-69602244D01*
X177897012Y-69213698D01*
X177663363Y-68864017D01*
X177365983Y-68566637D01*
X177016302Y-68332988D01*
X176627756Y-68172047D01*
X176215279Y-68090000D01*
X175794721Y-68090000D01*
X175382244Y-68172047D01*
X174993698Y-68332988D01*
X174644017Y-68566637D01*
X174346637Y-68864017D01*
X174112988Y-69213698D01*
X173952047Y-69602244D01*
X173870000Y-70014721D01*
X161910000Y-70014721D01*
X161827953Y-69602244D01*
X161667012Y-69213698D01*
X161433363Y-68864017D01*
X161135983Y-68566637D01*
X160786302Y-68332988D01*
X160397756Y-68172047D01*
X159985279Y-68090000D01*
X159564721Y-68090000D01*
X159152244Y-68172047D01*
X158763698Y-68332988D01*
X158414017Y-68566637D01*
X158116637Y-68864017D01*
X157882988Y-69213698D01*
X157778895Y-69465000D01*
X134469384Y-69465000D01*
X134486632Y-69453475D01*
X134693475Y-69246632D01*
X134734656Y-69185000D01*
X146906531Y-69185000D01*
X146950000Y-69189281D01*
X146993469Y-69185000D01*
X146993477Y-69185000D01*
X147123490Y-69172195D01*
X147290313Y-69121589D01*
X147444059Y-69039411D01*
X147578817Y-68928817D01*
X147606534Y-68895044D01*
X149270044Y-67231535D01*
X149326898Y-67220226D01*
X149515256Y-67142205D01*
X149684774Y-67028937D01*
X149828937Y-66884774D01*
X149942205Y-66715256D01*
X150020226Y-66526898D01*
X150060000Y-66326939D01*
X150060000Y-66123061D01*
X150020226Y-65923102D01*
X149942205Y-65734744D01*
X149828937Y-65565226D01*
X149684774Y-65421063D01*
X149515256Y-65307795D01*
X149326898Y-65229774D01*
X149126939Y-65190000D01*
X148923061Y-65190000D01*
X148723102Y-65229774D01*
X148534744Y-65307795D01*
X148365226Y-65421063D01*
X148221063Y-65565226D01*
X148107795Y-65734744D01*
X148029774Y-65923102D01*
X148018465Y-65979956D01*
X146583422Y-67415000D01*
X134734656Y-67415000D01*
X134693475Y-67353368D01*
X134486632Y-67146525D01*
X134243411Y-66984010D01*
X133973158Y-66872068D01*
X133686260Y-66815000D01*
X133393740Y-66815000D01*
X133106842Y-66872068D01*
X132836589Y-66984010D01*
X132593368Y-67146525D01*
X132461513Y-67278380D01*
X132439502Y-67205820D01*
X132380537Y-67095506D01*
X132301185Y-66998815D01*
X132204494Y-66919463D01*
X132094180Y-66860498D01*
X131974482Y-66824188D01*
X131850000Y-66811928D01*
X130150000Y-66811928D01*
X130025518Y-66824188D01*
X129905820Y-66860498D01*
X129795506Y-66919463D01*
X129698815Y-66998815D01*
X129619463Y-67095506D01*
X129560498Y-67205820D01*
X129524188Y-67325518D01*
X129511928Y-67450000D01*
X129511928Y-69150000D01*
X129524188Y-69274482D01*
X129560498Y-69394180D01*
X129598353Y-69465000D01*
X121693801Y-69465000D01*
X117169089Y-64940290D01*
X117362886Y-64810799D01*
X117555799Y-64617886D01*
X117707371Y-64391043D01*
X117811775Y-64138989D01*
X117865000Y-63871411D01*
X117865000Y-63598589D01*
X117811775Y-63331011D01*
X117707371Y-63078957D01*
X117555799Y-62852114D01*
X117362886Y-62659201D01*
X117136043Y-62507629D01*
X117033127Y-62465000D01*
X117136043Y-62422371D01*
X117362886Y-62270799D01*
X117555799Y-62077886D01*
X117707371Y-61851043D01*
X117811775Y-61598989D01*
X117865000Y-61331411D01*
X117865000Y-61058589D01*
X117811775Y-60791011D01*
X117707371Y-60538957D01*
X117555799Y-60312114D01*
X117362886Y-60119201D01*
X117136043Y-59967629D01*
X117033127Y-59925000D01*
X117136043Y-59882371D01*
X117362886Y-59730799D01*
X117555799Y-59537886D01*
X117707371Y-59311043D01*
X117811775Y-59058989D01*
X117865000Y-58791411D01*
X117865000Y-58518589D01*
X117811775Y-58251011D01*
X117707371Y-57998957D01*
X117555799Y-57772114D01*
X117362886Y-57579201D01*
X117136043Y-57427629D01*
X116883989Y-57323225D01*
X116616411Y-57270000D01*
X116343589Y-57270000D01*
X116076011Y-57323225D01*
X115823957Y-57427629D01*
X115597114Y-57579201D01*
X115404201Y-57772114D01*
X115252629Y-57998957D01*
X115148225Y-58251011D01*
X115095000Y-58518589D01*
X115095000Y-58791411D01*
X115148225Y-59058989D01*
X115252629Y-59311043D01*
X115404201Y-59537886D01*
X115597114Y-59730799D01*
X115823957Y-59882371D01*
X115926873Y-59925000D01*
X115823957Y-59967629D01*
X115597114Y-60119201D01*
X115404201Y-60312114D01*
X115252629Y-60538957D01*
X115148225Y-60791011D01*
X115095000Y-61058589D01*
X115095000Y-61331411D01*
X115123833Y-61476365D01*
X114894001Y-61706197D01*
X114864998Y-61730000D01*
X114819038Y-61786003D01*
X114770025Y-61845725D01*
X114699454Y-61977754D01*
X114699453Y-61977755D01*
X114655996Y-62121016D01*
X114644999Y-62232669D01*
X114644999Y-62232679D01*
X114641323Y-62270001D01*
X112283684Y-62270001D01*
X112475799Y-62077886D01*
X112627371Y-61851043D01*
X112731775Y-61598989D01*
X112785000Y-61331411D01*
X112785000Y-61058589D01*
X112731775Y-60791011D01*
X112627371Y-60538957D01*
X112475799Y-60312114D01*
X112282886Y-60119201D01*
X112056043Y-59967629D01*
X111953127Y-59925000D01*
X112056043Y-59882371D01*
X112282886Y-59730799D01*
X112475799Y-59537886D01*
X112627371Y-59311043D01*
X112731775Y-59058989D01*
X112785000Y-58791411D01*
X112785000Y-58518589D01*
X112731775Y-58251011D01*
X112627371Y-57998957D01*
X112475799Y-57772114D01*
X112282886Y-57579201D01*
X112056043Y-57427629D01*
X111803989Y-57323225D01*
X111536411Y-57270000D01*
X111263589Y-57270000D01*
X110996011Y-57323225D01*
X110743957Y-57427629D01*
X110517114Y-57579201D01*
X110324201Y-57772114D01*
X110172629Y-57998957D01*
X110068225Y-58251011D01*
X110015000Y-58518589D01*
X107129349Y-58518589D01*
X107282953Y-58147757D01*
X107365000Y-57735280D01*
X107365000Y-57314722D01*
X107282953Y-56902245D01*
X107122012Y-56513699D01*
X106888363Y-56164018D01*
X106590983Y-55866638D01*
X106241302Y-55632989D01*
X105852756Y-55472048D01*
X105440279Y-55390001D01*
X105019721Y-55390001D01*
X104607244Y-55472048D01*
X104218698Y-55632989D01*
X103869017Y-55866638D01*
X103571637Y-56164018D01*
X103337988Y-56513699D01*
X103177047Y-56902245D01*
X103095000Y-57314722D01*
X91135000Y-57314722D01*
X91052953Y-56902245D01*
X90892012Y-56513699D01*
X90658363Y-56164018D01*
X90360983Y-55866638D01*
X90011302Y-55632989D01*
X89622756Y-55472048D01*
X89210279Y-55390001D01*
X88789721Y-55390001D01*
X88377244Y-55472048D01*
X87988698Y-55632989D01*
X87639017Y-55866638D01*
X87341637Y-56164018D01*
X87107988Y-56513699D01*
X86947047Y-56902245D01*
X86865000Y-57314722D01*
X85685000Y-57314722D01*
X85685000Y-54325000D01*
X110011928Y-54325000D01*
X110024188Y-54449482D01*
X110060498Y-54569180D01*
X110119463Y-54679494D01*
X110198815Y-54776185D01*
X110295506Y-54855537D01*
X110405820Y-54914502D01*
X110525518Y-54950812D01*
X110650000Y-54963072D01*
X111114250Y-54960000D01*
X111273000Y-54801250D01*
X111273000Y-53702000D01*
X111527000Y-53702000D01*
X111527000Y-54801250D01*
X111685750Y-54960000D01*
X112150000Y-54963072D01*
X112274482Y-54950812D01*
X112394180Y-54914502D01*
X112504494Y-54855537D01*
X112601185Y-54776185D01*
X112680537Y-54679494D01*
X112739502Y-54569180D01*
X112775812Y-54449482D01*
X112788072Y-54325000D01*
X112785000Y-53860750D01*
X112626250Y-53702000D01*
X111527000Y-53702000D01*
X111273000Y-53702000D01*
X110173750Y-53702000D01*
X110015000Y-53860750D01*
X110011928Y-54325000D01*
X85685000Y-54325000D01*
X85685000Y-52825000D01*
X110011928Y-52825000D01*
X110015000Y-53289250D01*
X110173750Y-53448000D01*
X111273000Y-53448000D01*
X111273000Y-52348750D01*
X111527000Y-52348750D01*
X111527000Y-53448000D01*
X112626250Y-53448000D01*
X112635661Y-53438589D01*
X115095000Y-53438589D01*
X115095000Y-53711411D01*
X115148225Y-53978989D01*
X115252629Y-54231043D01*
X115404201Y-54457886D01*
X115597114Y-54650799D01*
X115823957Y-54802371D01*
X116076011Y-54906775D01*
X116343589Y-54960000D01*
X116616411Y-54960000D01*
X116883989Y-54906775D01*
X117136043Y-54802371D01*
X117362886Y-54650799D01*
X117555799Y-54457886D01*
X117707371Y-54231043D01*
X117811775Y-53978989D01*
X117865000Y-53711411D01*
X117865000Y-53438589D01*
X117811775Y-53171011D01*
X117707371Y-52918957D01*
X117555799Y-52692114D01*
X117362886Y-52499201D01*
X117136043Y-52347629D01*
X116883989Y-52243225D01*
X116616411Y-52190000D01*
X116343589Y-52190000D01*
X116076011Y-52243225D01*
X115823957Y-52347629D01*
X115597114Y-52499201D01*
X115404201Y-52692114D01*
X115252629Y-52918957D01*
X115148225Y-53171011D01*
X115095000Y-53438589D01*
X112635661Y-53438589D01*
X112785000Y-53289250D01*
X112788072Y-52825000D01*
X112775812Y-52700518D01*
X112739502Y-52580820D01*
X112680537Y-52470506D01*
X112601185Y-52373815D01*
X112504494Y-52294463D01*
X112394180Y-52235498D01*
X112274482Y-52199188D01*
X112150000Y-52186928D01*
X111685750Y-52190000D01*
X111527000Y-52348750D01*
X111273000Y-52348750D01*
X111114250Y-52190000D01*
X110650000Y-52186928D01*
X110525518Y-52199188D01*
X110405820Y-52235498D01*
X110295506Y-52294463D01*
X110198815Y-52373815D01*
X110119463Y-52470506D01*
X110060498Y-52580820D01*
X110024188Y-52700518D01*
X110011928Y-52825000D01*
X85685000Y-52825000D01*
X85685000Y-50660000D01*
X120315001Y-50660000D01*
X120315000Y-64966353D01*
G37*
%TD.AperFunction*%
%TD*%
M02*
