M48
; DRILL file {KiCad (5.1.9-0-10_14)} date Saturday, June 12, 2021 at 10:18:16 AM
; FORMAT={-:-/ absolute / inch / decimal}
; #@! TF.CreationDate,2021-06-12T10:18:16-06:00
; #@! TF.GenerationSoftware,Kicad,Pcbnew,(5.1.9-0-10_14)
FMAT,2
INCH
T1C0.0118
T2C0.0157
T3C0.0315
T4C0.0354
T5C0.0394
T6C0.0551
%
G90
G05
T1
X3.7854Y-2.4124
X3.8376Y-3.6289
X4.123Y-2.9675
X4.1644Y-3.5787
X4.2106Y-3.8691
X4.3061Y-2.7844
X4.378Y-2.8337
X4.4301Y-2.6604
X4.501Y-3.6582
X4.501Y-3.6063
X4.5463Y-4.4754
X4.5827Y-2.8337
X4.685Y-3.2352
X4.7096Y-3.1959
X4.9469Y-3.4065
X5.0177Y-3.5354
X5.0187Y-3.3317
X5.0187Y-3.9035
X5.0433Y-3.628
X5.0443Y-3.4459
X5.2156Y-3.5118
X5.2165Y-3.3268
X5.2175Y-3.0787
X5.2559Y-3.6722
X5.4321Y-3.564
X5.435Y-3.5118
X5.4596Y-3.7707
X5.5059Y-3.4094
X5.5079Y-3.9114
X5.5236Y-3.0531
X5.5335Y-3.0217
X5.6919Y-3.0846
X5.8415Y-2.8868
X5.8818Y-3.2096
X5.9044Y-3.135
X5.9154Y-3.3445
X5.9154Y-3.686
X5.9154Y-3.4823
X5.937Y-2.8858
X5.94Y-3.5856
X5.9783Y-3.1348
X5.9852Y-3.2352
X6.0177Y-4.061
X6.0512Y-3.9094
X6.0531Y-3.2608
X6.1069Y-3.2854
X6.1093Y-3.185
X6.1142Y-3.0846
X6.1152Y-2.9026
X6.123Y-3.4094
X6.123Y-3.625
X6.2185Y-3.6358
X6.2195Y-3.7077
X6.2254Y-3.1841
X6.2648Y-3.9094
X6.4134Y-4.0689
X6.4637Y-3.7688
X6.4685Y-3.4203
X6.5335Y-3.9557
X6.628Y-3.3278
X6.7126Y-3.9203
X6.7362Y-3.4134
X6.8386Y-3.2923
T2
X5.5039Y-3.314
X5.8671Y-2.6073
X5.875Y-2.2018
X5.9508Y-2.2037
X5.9537Y-2.2677
X6.0236Y-2.2018
X6.0581Y-3.315
T3
X4.3858Y-2.1093
X4.3858Y-2.3093
X4.3858Y-2.4093
X4.3858Y-2.5093
X4.5858Y-2.1093
X4.5858Y-2.3093
X4.5858Y-2.4093
X4.5858Y-2.5093
X4.7411Y-3.4911
X4.7411Y-3.6911
X4.7411Y-3.7911
X4.7411Y-3.8911
X4.9411Y-3.4911
X4.9411Y-3.6911
X4.9411Y-3.7911
X4.9411Y-3.8911
X5.8642Y-3.4715
X5.8642Y-3.7715
X6.0512Y-3.4705
X6.0512Y-3.7705
X6.6388Y-3.4911
X6.6388Y-3.6911
X6.6388Y-3.7911
X6.6388Y-3.8911
X6.8388Y-3.4911
X6.8388Y-3.6911
X6.8388Y-3.7911
X6.8388Y-3.8911
T4
X3.7886Y-4.438
X3.8886Y-4.438
X6.5445Y-4.438
X6.6445Y-4.438
T5
X3.6386Y-3.1496
X3.6386Y-4.252
X3.8386Y-3.1496
X3.8386Y-4.252
X4.0386Y-3.1496
X4.0386Y-4.252
X4.4488Y-4.3465
X4.5472Y-4.3465
X5.0165Y-3.1496
X5.0165Y-4.252
X5.1071Y-2.8803
X5.1071Y-2.9803
X5.1575Y-2.689
X5.2071Y-2.8803
X5.2071Y-2.9803
X5.2165Y-3.1496
X5.2165Y-4.252
X5.2575Y-2.689
X5.3071Y-2.8803
X5.3071Y-2.9803
X5.4165Y-3.1496
X5.4165Y-4.252
X5.8937Y-4.3465
X5.9921Y-4.3465
X6.3945Y-3.1496
X6.3945Y-4.252
X6.5945Y-3.1496
X6.5945Y-4.252
X6.7945Y-3.1496
X6.7945Y-4.252
T6
X3.5039Y-2.2648
X3.5039Y-2.7648
X4.1429Y-2.2648
X4.1429Y-2.7648
X6.2904Y-2.2648
X6.2904Y-2.7648
X6.9293Y-2.2648
X6.9293Y-2.7648
T0
M30
