%TF.GenerationSoftware,KiCad,Pcbnew,(5.1.9-0-10_14)*%
%TF.CreationDate,2021-06-12T10:18:14-06:00*%
%TF.ProjectId,template,74656d70-6c61-4746-952e-6b696361645f,rev?*%
%TF.SameCoordinates,Original*%
%TF.FileFunction,Soldermask,Bot*%
%TF.FilePolarity,Negative*%
%FSLAX46Y46*%
G04 Gerber Fmt 4.6, Leading zero omitted, Abs format (unit mm)*
G04 Created by KiCad (PCBNEW (5.1.9-0-10_14)) date 2021-06-12 10:18:14*
%MOMM*%
%LPD*%
G01*
G04 APERTURE LIST*
%ADD10C,1.800000*%
%ADD11O,1.700000X1.700000*%
%ADD12R,1.700000X1.700000*%
%ADD13C,3.000000*%
%ADD14O,1.700000X2.000000*%
%ADD15O,1.600000X1.600000*%
%ADD16R,1.600000X1.600000*%
%ADD17C,1.500000*%
G04 APERTURE END LIST*
D10*
%TO.C,RV6*%
X102580000Y-108000000D03*
X92420000Y-108000000D03*
X97500000Y-108000000D03*
%TD*%
D11*
%TO.C,J4*%
X129720000Y-75700000D03*
X129720000Y-73160000D03*
X132260000Y-75700000D03*
X132260000Y-73160000D03*
X134800000Y-75700000D03*
D12*
X134800000Y-73160000D03*
%TD*%
D13*
%TO.C,J3*%
X176005000Y-70225000D03*
X176005000Y-57525000D03*
X159775000Y-70225000D03*
X159775000Y-57525000D03*
%TD*%
D10*
%TO.C,RV4*%
X137580000Y-108000000D03*
X127420000Y-108000000D03*
X132500000Y-108000000D03*
%TD*%
D14*
%TO.C,SW2*%
X152200000Y-110400000D03*
G36*
G01*
X148850000Y-111150000D02*
X148850000Y-109650000D01*
G75*
G02*
X149100000Y-109400000I250000J0D01*
G01*
X150300000Y-109400000D01*
G75*
G02*
X150550000Y-109650000I0J-250000D01*
G01*
X150550000Y-111150000D01*
G75*
G02*
X150300000Y-111400000I-250000J0D01*
G01*
X149100000Y-111400000D01*
G75*
G02*
X148850000Y-111150000I0J250000D01*
G01*
G37*
%TD*%
%TO.C,SW1*%
X115500000Y-110400000D03*
G36*
G01*
X112150000Y-111150000D02*
X112150000Y-109650000D01*
G75*
G02*
X112400000Y-109400000I250000J0D01*
G01*
X113600000Y-109400000D01*
G75*
G02*
X113850000Y-109650000I0J-250000D01*
G01*
X113850000Y-111150000D01*
G75*
G02*
X113600000Y-111400000I-250000J0D01*
G01*
X112400000Y-111400000D01*
G75*
G02*
X112150000Y-111150000I0J250000D01*
G01*
G37*
%TD*%
D10*
%TO.C,RV3*%
X137580000Y-80000000D03*
X127420000Y-80000000D03*
X132500000Y-80000000D03*
%TD*%
D15*
%TO.C,D5*%
X148950000Y-95795000D03*
D16*
X148950000Y-88175000D03*
%TD*%
D15*
%TO.C,D6*%
X153700000Y-95770000D03*
D16*
X153700000Y-88150000D03*
%TD*%
D10*
%TO.C,RV1*%
X172580000Y-108000000D03*
X162420000Y-108000000D03*
X167500000Y-108000000D03*
%TD*%
%TO.C,D3*%
X168770000Y-112725000D03*
G36*
G01*
X165330000Y-113175000D02*
X165330000Y-112275000D01*
G75*
G02*
X165780000Y-111825000I450000J0D01*
G01*
X166680000Y-111825000D01*
G75*
G02*
X167130000Y-112275000I0J-450000D01*
G01*
X167130000Y-113175000D01*
G75*
G02*
X166680000Y-113625000I-450000J0D01*
G01*
X165780000Y-113625000D01*
G75*
G02*
X165330000Y-113175000I0J450000D01*
G01*
G37*
%TD*%
%TO.C,D2*%
X98770000Y-112725000D03*
G36*
G01*
X95330000Y-113175000D02*
X95330000Y-112275000D01*
G75*
G02*
X95780000Y-111825000I450000J0D01*
G01*
X96680000Y-111825000D01*
G75*
G02*
X97130000Y-112275000I0J-450000D01*
G01*
X97130000Y-113175000D01*
G75*
G02*
X96680000Y-113625000I-450000J0D01*
G01*
X95780000Y-113625000D01*
G75*
G02*
X95330000Y-113175000I0J450000D01*
G01*
G37*
%TD*%
%TO.C,RV5*%
X102580000Y-80000000D03*
X92420000Y-80000000D03*
X97500000Y-80000000D03*
%TD*%
%TO.C,RV2*%
X172580000Y-80000000D03*
X162420000Y-80000000D03*
X167500000Y-80000000D03*
%TD*%
D17*
%TO.C,K3*%
X125505000Y-88675000D03*
X125505000Y-93755000D03*
X125505000Y-96295000D03*
X125505000Y-98835000D03*
X120425000Y-98835000D03*
X120425000Y-96295000D03*
X120425000Y-93755000D03*
G36*
G01*
X119675000Y-89174500D02*
X119675000Y-88175500D01*
G75*
G02*
X119925500Y-87925000I250500J0D01*
G01*
X120924500Y-87925000D01*
G75*
G02*
X121175000Y-88175500I0J-250500D01*
G01*
X121175000Y-89174500D01*
G75*
G02*
X120924500Y-89425000I-250500J0D01*
G01*
X119925500Y-89425000D01*
G75*
G02*
X119675000Y-89174500I0J250500D01*
G01*
G37*
%TD*%
%TO.C,K2*%
X173705000Y-88675000D03*
X173705000Y-93755000D03*
X173705000Y-96295000D03*
X173705000Y-98835000D03*
X168625000Y-98835000D03*
X168625000Y-96295000D03*
X168625000Y-93755000D03*
G36*
G01*
X167875000Y-89174500D02*
X167875000Y-88175500D01*
G75*
G02*
X168125500Y-87925000I250500J0D01*
G01*
X169124500Y-87925000D01*
G75*
G02*
X169375000Y-88175500I0J-250500D01*
G01*
X169375000Y-89174500D01*
G75*
G02*
X169124500Y-89425000I-250500J0D01*
G01*
X168125500Y-89425000D01*
G75*
G02*
X167875000Y-89174500I0J250500D01*
G01*
G37*
%TD*%
%TO.C,K1*%
X116480000Y-53575000D03*
X116480000Y-58655000D03*
X116480000Y-61195000D03*
X116480000Y-63735000D03*
X111400000Y-63735000D03*
X111400000Y-61195000D03*
X111400000Y-58655000D03*
G36*
G01*
X110650000Y-54074500D02*
X110650000Y-53075500D01*
G75*
G02*
X110900500Y-52825000I250500J0D01*
G01*
X111899500Y-52825000D01*
G75*
G02*
X112150000Y-53075500I0J-250500D01*
G01*
X112150000Y-54074500D01*
G75*
G02*
X111899500Y-54325000I-250500J0D01*
G01*
X110900500Y-54325000D01*
G75*
G02*
X110650000Y-54074500I0J250500D01*
G01*
G37*
%TD*%
D13*
%TO.C,J2*%
X105230000Y-70225001D03*
X105230000Y-57525001D03*
X89000000Y-70225001D03*
X89000000Y-57525001D03*
%TD*%
D11*
%TO.C,J1*%
X133540000Y-68300000D03*
D12*
X131000000Y-68300000D03*
%TD*%
M02*
