%TF.GenerationSoftware,KiCad,Pcbnew,(5.1.9-0-10_14)*%
%TF.CreationDate,2021-06-12T10:18:14-06:00*%
%TF.ProjectId,template,74656d70-6c61-4746-952e-6b696361645f,rev?*%
%TF.SameCoordinates,Original*%
%TF.FileFunction,Legend,Bot*%
%TF.FilePolarity,Positive*%
%FSLAX46Y46*%
G04 Gerber Fmt 4.6, Leading zero omitted, Abs format (unit mm)*
G04 Created by KiCad (PCBNEW (5.1.9-0-10_14)) date 2021-06-12 10:18:14*
%MOMM*%
%LPD*%
G01*
G04 APERTURE LIST*
%ADD10C,0.300000*%
%ADD11C,0.150000*%
G04 APERTURE END LIST*
D10*
X99164285Y-83628571D02*
X99164285Y-82842857D01*
X99235714Y-82700000D01*
X99378571Y-82628571D01*
X99664285Y-82628571D01*
X99807142Y-82700000D01*
X99164285Y-83557142D02*
X99307142Y-83628571D01*
X99664285Y-83628571D01*
X99807142Y-83557142D01*
X99878571Y-83414285D01*
X99878571Y-83271428D01*
X99807142Y-83128571D01*
X99664285Y-83057142D01*
X99307142Y-83057142D01*
X99164285Y-82985714D01*
X97664285Y-83628571D02*
X98521428Y-83628571D01*
X98092857Y-83628571D02*
X98092857Y-82128571D01*
X98235714Y-82342857D01*
X98378571Y-82485714D01*
X98521428Y-82557142D01*
X96735714Y-82128571D02*
X96592857Y-82128571D01*
X96450000Y-82200000D01*
X96378571Y-82271428D01*
X96307142Y-82414285D01*
X96235714Y-82700000D01*
X96235714Y-83057142D01*
X96307142Y-83342857D01*
X96378571Y-83485714D01*
X96450000Y-83557142D01*
X96592857Y-83628571D01*
X96735714Y-83628571D01*
X96878571Y-83557142D01*
X96950000Y-83485714D01*
X97021428Y-83342857D01*
X97092857Y-83057142D01*
X97092857Y-82700000D01*
X97021428Y-82414285D01*
X96950000Y-82271428D01*
X96878571Y-82200000D01*
X96735714Y-82128571D01*
X95592857Y-83628571D02*
X95592857Y-82128571D01*
X95450000Y-83057142D02*
X95021428Y-83628571D01*
X95021428Y-82628571D02*
X95592857Y-83200000D01*
X135521428Y-83628571D02*
X135521428Y-82128571D01*
X135521428Y-82700000D02*
X135378571Y-82628571D01*
X135092857Y-82628571D01*
X134950000Y-82700000D01*
X134878571Y-82771428D01*
X134807142Y-82914285D01*
X134807142Y-83342857D01*
X134878571Y-83485714D01*
X134950000Y-83557142D01*
X135092857Y-83628571D01*
X135378571Y-83628571D01*
X135521428Y-83557142D01*
X133378571Y-83628571D02*
X134235714Y-83628571D01*
X133807142Y-83628571D02*
X133807142Y-82128571D01*
X133950000Y-82342857D01*
X134092857Y-82485714D01*
X134235714Y-82557142D01*
X132450000Y-82128571D02*
X132307142Y-82128571D01*
X132164285Y-82200000D01*
X132092857Y-82271428D01*
X132021428Y-82414285D01*
X131950000Y-82700000D01*
X131950000Y-83057142D01*
X132021428Y-83342857D01*
X132092857Y-83485714D01*
X132164285Y-83557142D01*
X132307142Y-83628571D01*
X132450000Y-83628571D01*
X132592857Y-83557142D01*
X132664285Y-83485714D01*
X132735714Y-83342857D01*
X132807142Y-83057142D01*
X132807142Y-82700000D01*
X132735714Y-82414285D01*
X132664285Y-82271428D01*
X132592857Y-82200000D01*
X132450000Y-82128571D01*
X131021428Y-82128571D02*
X130878571Y-82128571D01*
X130735714Y-82200000D01*
X130664285Y-82271428D01*
X130592857Y-82414285D01*
X130521428Y-82700000D01*
X130521428Y-83057142D01*
X130592857Y-83342857D01*
X130664285Y-83485714D01*
X130735714Y-83557142D01*
X130878571Y-83628571D01*
X131021428Y-83628571D01*
X131164285Y-83557142D01*
X131235714Y-83485714D01*
X131307142Y-83342857D01*
X131378571Y-83057142D01*
X131378571Y-82700000D01*
X131307142Y-82414285D01*
X131235714Y-82271428D01*
X131164285Y-82200000D01*
X131021428Y-82128571D01*
X129878571Y-83628571D02*
X129878571Y-82128571D01*
X129735714Y-83057142D02*
X129307142Y-83628571D01*
X129307142Y-82628571D02*
X129878571Y-83200000D01*
X170028571Y-83628571D02*
X170028571Y-82842857D01*
X170100000Y-82700000D01*
X170242857Y-82628571D01*
X170528571Y-82628571D01*
X170671428Y-82700000D01*
X170028571Y-83557142D02*
X170171428Y-83628571D01*
X170528571Y-83628571D01*
X170671428Y-83557142D01*
X170742857Y-83414285D01*
X170742857Y-83271428D01*
X170671428Y-83128571D01*
X170528571Y-83057142D01*
X170171428Y-83057142D01*
X170028571Y-82985714D01*
X168600000Y-82128571D02*
X169314285Y-82128571D01*
X169385714Y-82842857D01*
X169314285Y-82771428D01*
X169171428Y-82700000D01*
X168814285Y-82700000D01*
X168671428Y-82771428D01*
X168600000Y-82842857D01*
X168528571Y-82985714D01*
X168528571Y-83342857D01*
X168600000Y-83485714D01*
X168671428Y-83557142D01*
X168814285Y-83628571D01*
X169171428Y-83628571D01*
X169314285Y-83557142D01*
X169385714Y-83485714D01*
X167600000Y-82128571D02*
X167457142Y-82128571D01*
X167314285Y-82200000D01*
X167242857Y-82271428D01*
X167171428Y-82414285D01*
X167100000Y-82700000D01*
X167100000Y-83057142D01*
X167171428Y-83342857D01*
X167242857Y-83485714D01*
X167314285Y-83557142D01*
X167457142Y-83628571D01*
X167600000Y-83628571D01*
X167742857Y-83557142D01*
X167814285Y-83485714D01*
X167885714Y-83342857D01*
X167957142Y-83057142D01*
X167957142Y-82700000D01*
X167885714Y-82414285D01*
X167814285Y-82271428D01*
X167742857Y-82200000D01*
X167600000Y-82128571D01*
X166171428Y-82128571D02*
X166028571Y-82128571D01*
X165885714Y-82200000D01*
X165814285Y-82271428D01*
X165742857Y-82414285D01*
X165671428Y-82700000D01*
X165671428Y-83057142D01*
X165742857Y-83342857D01*
X165814285Y-83485714D01*
X165885714Y-83557142D01*
X166028571Y-83628571D01*
X166171428Y-83628571D01*
X166314285Y-83557142D01*
X166385714Y-83485714D01*
X166457142Y-83342857D01*
X166528571Y-83057142D01*
X166528571Y-82700000D01*
X166457142Y-82414285D01*
X166385714Y-82271428D01*
X166314285Y-82200000D01*
X166171428Y-82128571D01*
X165028571Y-83628571D02*
X165028571Y-82128571D01*
X164885714Y-83057142D02*
X164457142Y-83628571D01*
X164457142Y-82628571D02*
X165028571Y-83200000D01*
%TO.C,RV6*%
D11*
X98095238Y-105452380D02*
X98428571Y-104976190D01*
X98666666Y-105452380D02*
X98666666Y-104452380D01*
X98285714Y-104452380D01*
X98190476Y-104500000D01*
X98142857Y-104547619D01*
X98095238Y-104642857D01*
X98095238Y-104785714D01*
X98142857Y-104880952D01*
X98190476Y-104928571D01*
X98285714Y-104976190D01*
X98666666Y-104976190D01*
X97809523Y-104452380D02*
X97476190Y-105452380D01*
X97142857Y-104452380D01*
X96380952Y-104452380D02*
X96571428Y-104452380D01*
X96666666Y-104500000D01*
X96714285Y-104547619D01*
X96809523Y-104690476D01*
X96857142Y-104880952D01*
X96857142Y-105261904D01*
X96809523Y-105357142D01*
X96761904Y-105404761D01*
X96666666Y-105452380D01*
X96476190Y-105452380D01*
X96380952Y-105404761D01*
X96333333Y-105357142D01*
X96285714Y-105261904D01*
X96285714Y-105023809D01*
X96333333Y-104928571D01*
X96380952Y-104880952D01*
X96476190Y-104833333D01*
X96666666Y-104833333D01*
X96761904Y-104880952D01*
X96809523Y-104928571D01*
X96857142Y-105023809D01*
%TO.C,RV4*%
X133095238Y-105452380D02*
X133428571Y-104976190D01*
X133666666Y-105452380D02*
X133666666Y-104452380D01*
X133285714Y-104452380D01*
X133190476Y-104500000D01*
X133142857Y-104547619D01*
X133095238Y-104642857D01*
X133095238Y-104785714D01*
X133142857Y-104880952D01*
X133190476Y-104928571D01*
X133285714Y-104976190D01*
X133666666Y-104976190D01*
X132809523Y-104452380D02*
X132476190Y-105452380D01*
X132142857Y-104452380D01*
X131380952Y-104785714D02*
X131380952Y-105452380D01*
X131619047Y-104404761D02*
X131857142Y-105119047D01*
X131238095Y-105119047D01*
%TO.C,RV3*%
X133095238Y-78027380D02*
X133428571Y-77551190D01*
X133666666Y-78027380D02*
X133666666Y-77027380D01*
X133285714Y-77027380D01*
X133190476Y-77075000D01*
X133142857Y-77122619D01*
X133095238Y-77217857D01*
X133095238Y-77360714D01*
X133142857Y-77455952D01*
X133190476Y-77503571D01*
X133285714Y-77551190D01*
X133666666Y-77551190D01*
X132809523Y-77027380D02*
X132476190Y-78027380D01*
X132142857Y-77027380D01*
X131904761Y-77027380D02*
X131285714Y-77027380D01*
X131619047Y-77408333D01*
X131476190Y-77408333D01*
X131380952Y-77455952D01*
X131333333Y-77503571D01*
X131285714Y-77598809D01*
X131285714Y-77836904D01*
X131333333Y-77932142D01*
X131380952Y-77979761D01*
X131476190Y-78027380D01*
X131761904Y-78027380D01*
X131857142Y-77979761D01*
X131904761Y-77932142D01*
%TO.C,RV1*%
X168095238Y-105452380D02*
X168428571Y-104976190D01*
X168666666Y-105452380D02*
X168666666Y-104452380D01*
X168285714Y-104452380D01*
X168190476Y-104500000D01*
X168142857Y-104547619D01*
X168095238Y-104642857D01*
X168095238Y-104785714D01*
X168142857Y-104880952D01*
X168190476Y-104928571D01*
X168285714Y-104976190D01*
X168666666Y-104976190D01*
X167809523Y-104452380D02*
X167476190Y-105452380D01*
X167142857Y-104452380D01*
X166285714Y-105452380D02*
X166857142Y-105452380D01*
X166571428Y-105452380D02*
X166571428Y-104452380D01*
X166666666Y-104595238D01*
X166761904Y-104690476D01*
X166857142Y-104738095D01*
%TO.C,RV5*%
X98095238Y-77452380D02*
X98428571Y-76976190D01*
X98666666Y-77452380D02*
X98666666Y-76452380D01*
X98285714Y-76452380D01*
X98190476Y-76500000D01*
X98142857Y-76547619D01*
X98095238Y-76642857D01*
X98095238Y-76785714D01*
X98142857Y-76880952D01*
X98190476Y-76928571D01*
X98285714Y-76976190D01*
X98666666Y-76976190D01*
X97809523Y-76452380D02*
X97476190Y-77452380D01*
X97142857Y-76452380D01*
X96333333Y-76452380D02*
X96809523Y-76452380D01*
X96857142Y-76928571D01*
X96809523Y-76880952D01*
X96714285Y-76833333D01*
X96476190Y-76833333D01*
X96380952Y-76880952D01*
X96333333Y-76928571D01*
X96285714Y-77023809D01*
X96285714Y-77261904D01*
X96333333Y-77357142D01*
X96380952Y-77404761D01*
X96476190Y-77452380D01*
X96714285Y-77452380D01*
X96809523Y-77404761D01*
X96857142Y-77357142D01*
%TO.C,RV2*%
X168095238Y-77452380D02*
X168428571Y-76976190D01*
X168666666Y-77452380D02*
X168666666Y-76452380D01*
X168285714Y-76452380D01*
X168190476Y-76500000D01*
X168142857Y-76547619D01*
X168095238Y-76642857D01*
X168095238Y-76785714D01*
X168142857Y-76880952D01*
X168190476Y-76928571D01*
X168285714Y-76976190D01*
X168666666Y-76976190D01*
X167809523Y-76452380D02*
X167476190Y-77452380D01*
X167142857Y-76452380D01*
X166857142Y-76547619D02*
X166809523Y-76500000D01*
X166714285Y-76452380D01*
X166476190Y-76452380D01*
X166380952Y-76500000D01*
X166333333Y-76547619D01*
X166285714Y-76642857D01*
X166285714Y-76738095D01*
X166333333Y-76880952D01*
X166904761Y-77452380D01*
X166285714Y-77452380D01*
%TD*%
M02*
