%TF.GenerationSoftware,KiCad,Pcbnew,(5.1.9-0-10_14)*%
%TF.CreationDate,2021-06-12T10:18:14-06:00*%
%TF.ProjectId,template,74656d70-6c61-4746-952e-6b696361645f,rev?*%
%TF.SameCoordinates,Original*%
%TF.FileFunction,Legend,Top*%
%TF.FilePolarity,Positive*%
%FSLAX46Y46*%
G04 Gerber Fmt 4.6, Leading zero omitted, Abs format (unit mm)*
G04 Created by KiCad (PCBNEW (5.1.9-0-10_14)) date 2021-06-12 10:18:14*
%MOMM*%
%LPD*%
G01*
G04 APERTURE LIST*
%ADD10C,0.250000*%
%ADD11C,0.150000*%
%ADD12C,0.010000*%
%ADD13C,0.120000*%
G04 APERTURE END LIST*
D10*
X166903571Y-67653571D02*
X167975000Y-67653571D01*
X168189285Y-67725000D01*
X168332142Y-67867857D01*
X168403571Y-68082142D01*
X168403571Y-68225000D01*
X168403571Y-66225000D02*
X168403571Y-66939285D01*
X166903571Y-66939285D01*
X168260714Y-64867857D02*
X168332142Y-64939285D01*
X168403571Y-65153571D01*
X168403571Y-65296428D01*
X168332142Y-65510714D01*
X168189285Y-65653571D01*
X168046428Y-65725000D01*
X167760714Y-65796428D01*
X167546428Y-65796428D01*
X167260714Y-65725000D01*
X167117857Y-65653571D01*
X166975000Y-65510714D01*
X166903571Y-65296428D01*
X166903571Y-65153571D01*
X166975000Y-64939285D01*
X167046428Y-64867857D01*
X166903571Y-63796428D02*
X167975000Y-63796428D01*
X168189285Y-63867857D01*
X168332142Y-64010714D01*
X168403571Y-64225000D01*
X168403571Y-64367857D01*
X168403571Y-62367857D02*
X168403571Y-63082142D01*
X166903571Y-63082142D01*
X168260714Y-61010714D02*
X168332142Y-61082142D01*
X168403571Y-61296428D01*
X168403571Y-61439285D01*
X168332142Y-61653571D01*
X168189285Y-61796428D01*
X168046428Y-61867857D01*
X167760714Y-61939285D01*
X167546428Y-61939285D01*
X167260714Y-61867857D01*
X167117857Y-61796428D01*
X166975000Y-61653571D01*
X166903571Y-61439285D01*
X166903571Y-61296428D01*
X166975000Y-61082142D01*
X167046428Y-61010714D01*
X166903571Y-59939285D02*
X167975000Y-59939285D01*
X168189285Y-60010714D01*
X168332142Y-60153571D01*
X168403571Y-60367857D01*
X168403571Y-60510714D01*
X168403571Y-58510714D02*
X168403571Y-59225000D01*
X166903571Y-59225000D01*
X168260714Y-57153571D02*
X168332142Y-57225000D01*
X168403571Y-57439285D01*
X168403571Y-57582142D01*
X168332142Y-57796428D01*
X168189285Y-57939285D01*
X168046428Y-58010714D01*
X167760714Y-58082142D01*
X167546428Y-58082142D01*
X167260714Y-58010714D01*
X167117857Y-57939285D01*
X166975000Y-57796428D01*
X166903571Y-57582142D01*
X166903571Y-57439285D01*
X166975000Y-57225000D01*
X167046428Y-57153571D01*
X166903571Y-56082142D02*
X167975000Y-56082142D01*
X168189285Y-56153571D01*
X168332142Y-56296428D01*
X168403571Y-56510714D01*
X168403571Y-56653571D01*
X168403571Y-54653571D02*
X168403571Y-55367857D01*
X166903571Y-55367857D01*
X168260714Y-53296428D02*
X168332142Y-53367857D01*
X168403571Y-53582142D01*
X168403571Y-53725000D01*
X168332142Y-53939285D01*
X168189285Y-54082142D01*
X168046428Y-54153571D01*
X167760714Y-54225000D01*
X167546428Y-54225000D01*
X167260714Y-54153571D01*
X167117857Y-54082142D01*
X166975000Y-53939285D01*
X166903571Y-53725000D01*
X166903571Y-53582142D01*
X166975000Y-53367857D01*
X167046428Y-53296428D01*
D11*
X125133333Y-112802380D02*
X125038095Y-112754761D01*
X124990476Y-112707142D01*
X124942857Y-112611904D01*
X124942857Y-112326190D01*
X124990476Y-112230952D01*
X125038095Y-112183333D01*
X125133333Y-112135714D01*
X125276190Y-112135714D01*
X125371428Y-112183333D01*
X125419047Y-112230952D01*
X125466666Y-112326190D01*
X125466666Y-112611904D01*
X125419047Y-112707142D01*
X125371428Y-112754761D01*
X125276190Y-112802380D01*
X125133333Y-112802380D01*
X125800000Y-112135714D02*
X126038095Y-112802380D01*
X126276190Y-112135714D01*
X127038095Y-112754761D02*
X126942857Y-112802380D01*
X126752380Y-112802380D01*
X126657142Y-112754761D01*
X126609523Y-112659523D01*
X126609523Y-112278571D01*
X126657142Y-112183333D01*
X126752380Y-112135714D01*
X126942857Y-112135714D01*
X127038095Y-112183333D01*
X127085714Y-112278571D01*
X127085714Y-112373809D01*
X126609523Y-112469047D01*
X127514285Y-112802380D02*
X127514285Y-112135714D01*
X127514285Y-112326190D02*
X127561904Y-112230952D01*
X127609523Y-112183333D01*
X127704761Y-112135714D01*
X127800000Y-112135714D01*
X128561904Y-112802380D02*
X128561904Y-111802380D01*
X128561904Y-112754761D02*
X128466666Y-112802380D01*
X128276190Y-112802380D01*
X128180952Y-112754761D01*
X128133333Y-112707142D01*
X128085714Y-112611904D01*
X128085714Y-112326190D01*
X128133333Y-112230952D01*
X128180952Y-112183333D01*
X128276190Y-112135714D01*
X128466666Y-112135714D01*
X128561904Y-112183333D01*
X129419047Y-112754761D02*
X129323809Y-112802380D01*
X129133333Y-112802380D01*
X129038095Y-112754761D01*
X128990476Y-112659523D01*
X128990476Y-112278571D01*
X129038095Y-112183333D01*
X129133333Y-112135714D01*
X129323809Y-112135714D01*
X129419047Y-112183333D01*
X129466666Y-112278571D01*
X129466666Y-112373809D01*
X128990476Y-112469047D01*
X129895238Y-112802380D02*
X129895238Y-112135714D01*
X129895238Y-112326190D02*
X129942857Y-112230952D01*
X129990476Y-112183333D01*
X130085714Y-112135714D01*
X130180952Y-112135714D01*
X130514285Y-112802380D02*
X130514285Y-112135714D01*
X130514285Y-111802380D02*
X130466666Y-111850000D01*
X130514285Y-111897619D01*
X130561904Y-111850000D01*
X130514285Y-111802380D01*
X130514285Y-111897619D01*
X130895238Y-112135714D02*
X131133333Y-112802380D01*
X131371428Y-112135714D01*
X132133333Y-112754761D02*
X132038095Y-112802380D01*
X131847619Y-112802380D01*
X131752380Y-112754761D01*
X131704761Y-112659523D01*
X131704761Y-112278571D01*
X131752380Y-112183333D01*
X131847619Y-112135714D01*
X132038095Y-112135714D01*
X132133333Y-112183333D01*
X132180952Y-112278571D01*
X132180952Y-112373809D01*
X131704761Y-112469047D01*
X133276190Y-112135714D02*
X133514285Y-112802380D01*
X133752380Y-112135714D01*
X134657142Y-112802380D02*
X134085714Y-112802380D01*
X134371428Y-112802380D02*
X134371428Y-111802380D01*
X134276190Y-111945238D01*
X134180952Y-112040476D01*
X134085714Y-112088095D01*
X135847619Y-112802380D02*
X135847619Y-111802380D01*
X135847619Y-112183333D02*
X135942857Y-112135714D01*
X136133333Y-112135714D01*
X136228571Y-112183333D01*
X136276190Y-112230952D01*
X136323809Y-112326190D01*
X136323809Y-112611904D01*
X136276190Y-112707142D01*
X136228571Y-112754761D01*
X136133333Y-112802380D01*
X135942857Y-112802380D01*
X135847619Y-112754761D01*
X137133333Y-112754761D02*
X137038095Y-112802380D01*
X136847619Y-112802380D01*
X136752380Y-112754761D01*
X136704761Y-112659523D01*
X136704761Y-112278571D01*
X136752380Y-112183333D01*
X136847619Y-112135714D01*
X137038095Y-112135714D01*
X137133333Y-112183333D01*
X137180952Y-112278571D01*
X137180952Y-112373809D01*
X136704761Y-112469047D01*
X137466666Y-112135714D02*
X137847619Y-112135714D01*
X137609523Y-111802380D02*
X137609523Y-112659523D01*
X137657142Y-112754761D01*
X137752380Y-112802380D01*
X137847619Y-112802380D01*
X138609523Y-112802380D02*
X138609523Y-112278571D01*
X138561904Y-112183333D01*
X138466666Y-112135714D01*
X138276190Y-112135714D01*
X138180952Y-112183333D01*
X138609523Y-112754761D02*
X138514285Y-112802380D01*
X138276190Y-112802380D01*
X138180952Y-112754761D01*
X138133333Y-112659523D01*
X138133333Y-112564285D01*
X138180952Y-112469047D01*
X138276190Y-112421428D01*
X138514285Y-112421428D01*
X138609523Y-112373809D01*
D10*
X130569047Y-65896428D02*
X131330952Y-65896428D01*
X133169047Y-65896428D02*
X133930952Y-65896428D01*
X133550000Y-66277380D02*
X133550000Y-65515476D01*
D11*
X145485714Y-113171428D02*
X146485714Y-113171428D01*
X145533333Y-113171428D02*
X145485714Y-113076190D01*
X145485714Y-112885714D01*
X145533333Y-112790476D01*
X145580952Y-112742857D01*
X145676190Y-112695238D01*
X145961904Y-112695238D01*
X146057142Y-112742857D01*
X146104761Y-112790476D01*
X146152380Y-112885714D01*
X146152380Y-113076190D01*
X146104761Y-113171428D01*
X146152380Y-112266666D02*
X145485714Y-112266666D01*
X145676190Y-112266666D02*
X145580952Y-112219047D01*
X145533333Y-112171428D01*
X145485714Y-112076190D01*
X145485714Y-111980952D01*
X146104761Y-111266666D02*
X146152380Y-111361904D01*
X146152380Y-111552380D01*
X146104761Y-111647619D01*
X146009523Y-111695238D01*
X145628571Y-111695238D01*
X145533333Y-111647619D01*
X145485714Y-111552380D01*
X145485714Y-111361904D01*
X145533333Y-111266666D01*
X145628571Y-111219047D01*
X145723809Y-111219047D01*
X145819047Y-111695238D01*
X146104761Y-110838095D02*
X146152380Y-110742857D01*
X146152380Y-110552380D01*
X146104761Y-110457142D01*
X146009523Y-110409523D01*
X145961904Y-110409523D01*
X145866666Y-110457142D01*
X145819047Y-110552380D01*
X145819047Y-110695238D01*
X145771428Y-110790476D01*
X145676190Y-110838095D01*
X145628571Y-110838095D01*
X145533333Y-110790476D01*
X145485714Y-110695238D01*
X145485714Y-110552380D01*
X145533333Y-110457142D01*
X146104761Y-109600000D02*
X146152380Y-109695238D01*
X146152380Y-109885714D01*
X146104761Y-109980952D01*
X146009523Y-110028571D01*
X145628571Y-110028571D01*
X145533333Y-109980952D01*
X145485714Y-109885714D01*
X145485714Y-109695238D01*
X145533333Y-109600000D01*
X145628571Y-109552380D01*
X145723809Y-109552380D01*
X145819047Y-110028571D01*
X145485714Y-109266666D02*
X145485714Y-108885714D01*
X145152380Y-109123809D02*
X146009523Y-109123809D01*
X146104761Y-109076190D01*
X146152380Y-108980952D01*
X146152380Y-108885714D01*
X109402380Y-113409523D02*
X108402380Y-113409523D01*
X108783333Y-113409523D02*
X108735714Y-113314285D01*
X108735714Y-113123809D01*
X108783333Y-113028571D01*
X108830952Y-112980952D01*
X108926190Y-112933333D01*
X109211904Y-112933333D01*
X109307142Y-112980952D01*
X109354761Y-113028571D01*
X109402380Y-113123809D01*
X109402380Y-113314285D01*
X109354761Y-113409523D01*
X108735714Y-112600000D02*
X109402380Y-112361904D01*
X108735714Y-112123809D02*
X109402380Y-112361904D01*
X109640476Y-112457142D01*
X109688095Y-112504761D01*
X109735714Y-112600000D01*
X108735714Y-111742857D02*
X109735714Y-111742857D01*
X108783333Y-111742857D02*
X108735714Y-111647619D01*
X108735714Y-111457142D01*
X108783333Y-111361904D01*
X108830952Y-111314285D01*
X108926190Y-111266666D01*
X109211904Y-111266666D01*
X109307142Y-111314285D01*
X109354761Y-111361904D01*
X109402380Y-111457142D01*
X109402380Y-111647619D01*
X109354761Y-111742857D01*
X109402380Y-110409523D02*
X108878571Y-110409523D01*
X108783333Y-110457142D01*
X108735714Y-110552380D01*
X108735714Y-110742857D01*
X108783333Y-110838095D01*
X109354761Y-110409523D02*
X109402380Y-110504761D01*
X109402380Y-110742857D01*
X109354761Y-110838095D01*
X109259523Y-110885714D01*
X109164285Y-110885714D01*
X109069047Y-110838095D01*
X109021428Y-110742857D01*
X109021428Y-110504761D01*
X108973809Y-110409523D01*
X109354761Y-109980952D02*
X109402380Y-109885714D01*
X109402380Y-109695238D01*
X109354761Y-109600000D01*
X109259523Y-109552380D01*
X109211904Y-109552380D01*
X109116666Y-109600000D01*
X109069047Y-109695238D01*
X109069047Y-109838095D01*
X109021428Y-109933333D01*
X108926190Y-109980952D01*
X108878571Y-109980952D01*
X108783333Y-109933333D01*
X108735714Y-109838095D01*
X108735714Y-109695238D01*
X108783333Y-109600000D01*
X109354761Y-109171428D02*
X109402380Y-109076190D01*
X109402380Y-108885714D01*
X109354761Y-108790476D01*
X109259523Y-108742857D01*
X109211904Y-108742857D01*
X109116666Y-108790476D01*
X109069047Y-108885714D01*
X109069047Y-109028571D01*
X109021428Y-109123809D01*
X108926190Y-109171428D01*
X108878571Y-109171428D01*
X108783333Y-109123809D01*
X108735714Y-109028571D01*
X108735714Y-108885714D01*
X108783333Y-108790476D01*
D12*
%TO.C,Ref\u002A\u002A*%
G36*
X94917129Y-101174373D02*
G01*
X95047199Y-101189042D01*
X95152411Y-101216841D01*
X95241133Y-101260392D01*
X95321730Y-101322314D01*
X95361000Y-101360370D01*
X95451775Y-101474502D01*
X95508320Y-101599134D01*
X95534302Y-101743830D01*
X95537000Y-101819342D01*
X95537000Y-101942500D01*
X95050167Y-101942500D01*
X95050134Y-101873709D01*
X95031733Y-101768596D01*
X94980833Y-101683933D01*
X94903722Y-101623209D01*
X94806688Y-101589914D01*
X94696019Y-101587539D01*
X94586187Y-101616212D01*
X94499149Y-101667667D01*
X94450152Y-101735149D01*
X94440477Y-101815126D01*
X94471405Y-101904064D01*
X94477810Y-101915014D01*
X94502912Y-101950626D01*
X94534653Y-101981424D01*
X94579128Y-102010528D01*
X94642432Y-102041055D01*
X94730661Y-102076124D01*
X94849910Y-102118854D01*
X94930464Y-102146592D01*
X95083564Y-102201046D01*
X95202423Y-102248969D01*
X95293909Y-102293940D01*
X95364888Y-102339543D01*
X95422227Y-102389359D01*
X95447190Y-102416126D01*
X95509461Y-102504941D01*
X95547684Y-102606665D01*
X95564950Y-102731584D01*
X95566637Y-102813609D01*
X95548824Y-102977558D01*
X95497612Y-103117109D01*
X95411316Y-103235902D01*
X95342519Y-103298319D01*
X95212414Y-103377516D01*
X95055459Y-103434602D01*
X94882318Y-103467084D01*
X94703655Y-103472466D01*
X94626834Y-103465707D01*
X94468614Y-103439234D01*
X94341022Y-103401628D01*
X94232853Y-103348238D01*
X94132899Y-103274413D01*
X94104046Y-103248698D01*
X94014846Y-103152731D01*
X93956657Y-103052867D01*
X93923594Y-102936195D01*
X93911524Y-102826209D01*
X93901728Y-102662167D01*
X94436334Y-102662167D01*
X94436334Y-102743703D01*
X94456062Y-102842288D01*
X94509501Y-102931901D01*
X94588035Y-103004228D01*
X94683048Y-103050952D01*
X94768598Y-103064334D01*
X94878352Y-103048948D01*
X94964152Y-103006617D01*
X95022074Y-102943079D01*
X95048192Y-102864073D01*
X95038580Y-102775337D01*
X95009504Y-102712156D01*
X94977676Y-102672949D01*
X94928196Y-102634526D01*
X94856057Y-102594311D01*
X94756252Y-102549731D01*
X94623774Y-102498210D01*
X94521000Y-102460929D01*
X94395917Y-102415475D01*
X94302189Y-102378559D01*
X94230830Y-102345880D01*
X94172856Y-102313140D01*
X94119280Y-102276039D01*
X94094041Y-102256641D01*
X94005702Y-102163709D01*
X93949334Y-102047425D01*
X93923629Y-101904612D01*
X93921649Y-101837802D01*
X93936662Y-101677292D01*
X93981511Y-101542226D01*
X94059308Y-101425217D01*
X94122295Y-101361324D01*
X94227436Y-101282022D01*
X94344304Y-101225753D01*
X94480742Y-101190144D01*
X94644597Y-101172819D01*
X94753834Y-101170216D01*
X94917129Y-101174373D01*
G37*
X94917129Y-101174373D02*
X95047199Y-101189042D01*
X95152411Y-101216841D01*
X95241133Y-101260392D01*
X95321730Y-101322314D01*
X95361000Y-101360370D01*
X95451775Y-101474502D01*
X95508320Y-101599134D01*
X95534302Y-101743830D01*
X95537000Y-101819342D01*
X95537000Y-101942500D01*
X95050167Y-101942500D01*
X95050134Y-101873709D01*
X95031733Y-101768596D01*
X94980833Y-101683933D01*
X94903722Y-101623209D01*
X94806688Y-101589914D01*
X94696019Y-101587539D01*
X94586187Y-101616212D01*
X94499149Y-101667667D01*
X94450152Y-101735149D01*
X94440477Y-101815126D01*
X94471405Y-101904064D01*
X94477810Y-101915014D01*
X94502912Y-101950626D01*
X94534653Y-101981424D01*
X94579128Y-102010528D01*
X94642432Y-102041055D01*
X94730661Y-102076124D01*
X94849910Y-102118854D01*
X94930464Y-102146592D01*
X95083564Y-102201046D01*
X95202423Y-102248969D01*
X95293909Y-102293940D01*
X95364888Y-102339543D01*
X95422227Y-102389359D01*
X95447190Y-102416126D01*
X95509461Y-102504941D01*
X95547684Y-102606665D01*
X95564950Y-102731584D01*
X95566637Y-102813609D01*
X95548824Y-102977558D01*
X95497612Y-103117109D01*
X95411316Y-103235902D01*
X95342519Y-103298319D01*
X95212414Y-103377516D01*
X95055459Y-103434602D01*
X94882318Y-103467084D01*
X94703655Y-103472466D01*
X94626834Y-103465707D01*
X94468614Y-103439234D01*
X94341022Y-103401628D01*
X94232853Y-103348238D01*
X94132899Y-103274413D01*
X94104046Y-103248698D01*
X94014846Y-103152731D01*
X93956657Y-103052867D01*
X93923594Y-102936195D01*
X93911524Y-102826209D01*
X93901728Y-102662167D01*
X94436334Y-102662167D01*
X94436334Y-102743703D01*
X94456062Y-102842288D01*
X94509501Y-102931901D01*
X94588035Y-103004228D01*
X94683048Y-103050952D01*
X94768598Y-103064334D01*
X94878352Y-103048948D01*
X94964152Y-103006617D01*
X95022074Y-102943079D01*
X95048192Y-102864073D01*
X95038580Y-102775337D01*
X95009504Y-102712156D01*
X94977676Y-102672949D01*
X94928196Y-102634526D01*
X94856057Y-102594311D01*
X94756252Y-102549731D01*
X94623774Y-102498210D01*
X94521000Y-102460929D01*
X94395917Y-102415475D01*
X94302189Y-102378559D01*
X94230830Y-102345880D01*
X94172856Y-102313140D01*
X94119280Y-102276039D01*
X94094041Y-102256641D01*
X94005702Y-102163709D01*
X93949334Y-102047425D01*
X93923629Y-101904612D01*
X93921649Y-101837802D01*
X93936662Y-101677292D01*
X93981511Y-101542226D01*
X94059308Y-101425217D01*
X94122295Y-101361324D01*
X94227436Y-101282022D01*
X94344304Y-101225753D01*
X94480742Y-101190144D01*
X94644597Y-101172819D01*
X94753834Y-101170216D01*
X94917129Y-101174373D01*
G36*
X102705160Y-101174335D02*
G01*
X102834151Y-101188928D01*
X102938747Y-101216680D01*
X103027557Y-101260276D01*
X103109188Y-101322400D01*
X103147447Y-101358686D01*
X103238493Y-101469996D01*
X103295748Y-101591907D01*
X103322894Y-101733901D01*
X103326334Y-101819342D01*
X103326334Y-101942500D01*
X102839500Y-101942500D01*
X102839467Y-101873709D01*
X102820659Y-101771657D01*
X102769159Y-101687558D01*
X102692203Y-101625285D01*
X102597022Y-101588711D01*
X102490849Y-101581710D01*
X102380919Y-101608156D01*
X102360425Y-101617176D01*
X102277383Y-101673643D01*
X102233867Y-101744089D01*
X102230638Y-101826076D01*
X102267249Y-101915188D01*
X102295561Y-101953399D01*
X102334183Y-101987652D01*
X102388957Y-102020901D01*
X102465729Y-102056103D01*
X102570343Y-102096213D01*
X102708643Y-102144187D01*
X102742502Y-102155533D01*
X102907272Y-102214874D01*
X103036323Y-102272051D01*
X103135873Y-102330685D01*
X103212139Y-102394395D01*
X103267421Y-102461084D01*
X103323840Y-102576024D01*
X103353317Y-102712051D01*
X103355757Y-102857523D01*
X103331067Y-103000796D01*
X103279151Y-103130227D01*
X103272934Y-103141151D01*
X103183830Y-103252760D01*
X103062406Y-103343828D01*
X102914455Y-103412241D01*
X102745770Y-103455881D01*
X102562146Y-103472631D01*
X102391194Y-103463251D01*
X102200512Y-103423714D01*
X102038424Y-103354917D01*
X101908137Y-103261370D01*
X101813449Y-103163613D01*
X101751460Y-103064893D01*
X101715780Y-102951796D01*
X101700857Y-102826209D01*
X101691061Y-102662167D01*
X102225667Y-102662167D01*
X102225667Y-102737301D01*
X102245115Y-102842180D01*
X102298123Y-102935701D01*
X102376685Y-103008766D01*
X102472798Y-103052278D01*
X102508548Y-103058780D01*
X102609191Y-103062273D01*
X102686077Y-103043347D01*
X102753769Y-102997577D01*
X102774365Y-102978046D01*
X102827006Y-102900964D01*
X102837914Y-102816935D01*
X102807057Y-102726286D01*
X102799156Y-102712681D01*
X102770132Y-102675432D01*
X102727132Y-102639989D01*
X102664792Y-102603594D01*
X102577747Y-102563490D01*
X102460633Y-102516921D01*
X102313527Y-102463068D01*
X102154426Y-102403093D01*
X102030609Y-102348465D01*
X101935955Y-102295701D01*
X101864346Y-102241320D01*
X101809663Y-102181840D01*
X101802620Y-102172370D01*
X101737557Y-102048169D01*
X101706607Y-101908962D01*
X101708635Y-101763191D01*
X101742508Y-101619296D01*
X101807089Y-101485717D01*
X101901246Y-101370896D01*
X101911629Y-101361324D01*
X102016769Y-101282022D01*
X102133637Y-101225753D01*
X102270076Y-101190144D01*
X102433930Y-101172819D01*
X102543167Y-101170216D01*
X102705160Y-101174335D01*
G37*
X102705160Y-101174335D02*
X102834151Y-101188928D01*
X102938747Y-101216680D01*
X103027557Y-101260276D01*
X103109188Y-101322400D01*
X103147447Y-101358686D01*
X103238493Y-101469996D01*
X103295748Y-101591907D01*
X103322894Y-101733901D01*
X103326334Y-101819342D01*
X103326334Y-101942500D01*
X102839500Y-101942500D01*
X102839467Y-101873709D01*
X102820659Y-101771657D01*
X102769159Y-101687558D01*
X102692203Y-101625285D01*
X102597022Y-101588711D01*
X102490849Y-101581710D01*
X102380919Y-101608156D01*
X102360425Y-101617176D01*
X102277383Y-101673643D01*
X102233867Y-101744089D01*
X102230638Y-101826076D01*
X102267249Y-101915188D01*
X102295561Y-101953399D01*
X102334183Y-101987652D01*
X102388957Y-102020901D01*
X102465729Y-102056103D01*
X102570343Y-102096213D01*
X102708643Y-102144187D01*
X102742502Y-102155533D01*
X102907272Y-102214874D01*
X103036323Y-102272051D01*
X103135873Y-102330685D01*
X103212139Y-102394395D01*
X103267421Y-102461084D01*
X103323840Y-102576024D01*
X103353317Y-102712051D01*
X103355757Y-102857523D01*
X103331067Y-103000796D01*
X103279151Y-103130227D01*
X103272934Y-103141151D01*
X103183830Y-103252760D01*
X103062406Y-103343828D01*
X102914455Y-103412241D01*
X102745770Y-103455881D01*
X102562146Y-103472631D01*
X102391194Y-103463251D01*
X102200512Y-103423714D01*
X102038424Y-103354917D01*
X101908137Y-103261370D01*
X101813449Y-103163613D01*
X101751460Y-103064893D01*
X101715780Y-102951796D01*
X101700857Y-102826209D01*
X101691061Y-102662167D01*
X102225667Y-102662167D01*
X102225667Y-102737301D01*
X102245115Y-102842180D01*
X102298123Y-102935701D01*
X102376685Y-103008766D01*
X102472798Y-103052278D01*
X102508548Y-103058780D01*
X102609191Y-103062273D01*
X102686077Y-103043347D01*
X102753769Y-102997577D01*
X102774365Y-102978046D01*
X102827006Y-102900964D01*
X102837914Y-102816935D01*
X102807057Y-102726286D01*
X102799156Y-102712681D01*
X102770132Y-102675432D01*
X102727132Y-102639989D01*
X102664792Y-102603594D01*
X102577747Y-102563490D01*
X102460633Y-102516921D01*
X102313527Y-102463068D01*
X102154426Y-102403093D01*
X102030609Y-102348465D01*
X101935955Y-102295701D01*
X101864346Y-102241320D01*
X101809663Y-102181840D01*
X101802620Y-102172370D01*
X101737557Y-102048169D01*
X101706607Y-101908962D01*
X101708635Y-101763191D01*
X101742508Y-101619296D01*
X101807089Y-101485717D01*
X101901246Y-101370896D01*
X101911629Y-101361324D01*
X102016769Y-101282022D01*
X102133637Y-101225753D01*
X102270076Y-101190144D01*
X102433930Y-101172819D01*
X102543167Y-101170216D01*
X102705160Y-101174335D01*
G36*
X92492840Y-101947792D02*
G01*
X92494748Y-102146243D01*
X92496707Y-102307033D01*
X92499001Y-102434833D01*
X92501915Y-102534315D01*
X92505734Y-102610150D01*
X92510743Y-102667010D01*
X92517226Y-102709565D01*
X92525469Y-102742487D01*
X92535755Y-102770449D01*
X92544136Y-102789167D01*
X92590254Y-102874831D01*
X92638957Y-102928600D01*
X92701601Y-102957420D01*
X92789541Y-102968237D01*
X92838250Y-102969084D01*
X92938605Y-102964314D01*
X93009410Y-102945321D01*
X93062831Y-102905082D01*
X93111036Y-102836571D01*
X93131544Y-102799750D01*
X93143511Y-102775835D01*
X93153227Y-102750260D01*
X93160974Y-102718460D01*
X93167035Y-102675869D01*
X93171692Y-102617921D01*
X93175229Y-102540051D01*
X93177928Y-102437693D01*
X93180072Y-102306280D01*
X93181943Y-102141249D01*
X93183644Y-101958375D01*
X93190371Y-101201667D01*
X93716667Y-101201667D01*
X93716667Y-101823841D01*
X93715398Y-102081570D01*
X93711386Y-102301339D01*
X93704321Y-102487451D01*
X93693895Y-102644210D01*
X93679799Y-102775918D01*
X93661723Y-102886880D01*
X93639358Y-102981397D01*
X93631678Y-103007476D01*
X93565622Y-103155830D01*
X93468092Y-103276042D01*
X93339707Y-103367576D01*
X93181085Y-103429898D01*
X93128250Y-103442701D01*
X93039256Y-103454992D01*
X92923641Y-103461894D01*
X92796779Y-103463359D01*
X92674042Y-103459340D01*
X92570806Y-103449790D01*
X92538849Y-103444498D01*
X92421667Y-103408119D01*
X92305701Y-103349547D01*
X92207844Y-103278039D01*
X92175282Y-103245324D01*
X92130733Y-103191308D01*
X92093487Y-103136717D01*
X92062903Y-103077311D01*
X92038338Y-103008846D01*
X92019152Y-102927083D01*
X92004701Y-102827780D01*
X91994343Y-102706695D01*
X91987438Y-102559588D01*
X91983342Y-102382216D01*
X91981414Y-102170340D01*
X91981000Y-101961805D01*
X91981000Y-101201667D01*
X92486097Y-101201667D01*
X92492840Y-101947792D01*
G37*
X92492840Y-101947792D02*
X92494748Y-102146243D01*
X92496707Y-102307033D01*
X92499001Y-102434833D01*
X92501915Y-102534315D01*
X92505734Y-102610150D01*
X92510743Y-102667010D01*
X92517226Y-102709565D01*
X92525469Y-102742487D01*
X92535755Y-102770449D01*
X92544136Y-102789167D01*
X92590254Y-102874831D01*
X92638957Y-102928600D01*
X92701601Y-102957420D01*
X92789541Y-102968237D01*
X92838250Y-102969084D01*
X92938605Y-102964314D01*
X93009410Y-102945321D01*
X93062831Y-102905082D01*
X93111036Y-102836571D01*
X93131544Y-102799750D01*
X93143511Y-102775835D01*
X93153227Y-102750260D01*
X93160974Y-102718460D01*
X93167035Y-102675869D01*
X93171692Y-102617921D01*
X93175229Y-102540051D01*
X93177928Y-102437693D01*
X93180072Y-102306280D01*
X93181943Y-102141249D01*
X93183644Y-101958375D01*
X93190371Y-101201667D01*
X93716667Y-101201667D01*
X93716667Y-101823841D01*
X93715398Y-102081570D01*
X93711386Y-102301339D01*
X93704321Y-102487451D01*
X93693895Y-102644210D01*
X93679799Y-102775918D01*
X93661723Y-102886880D01*
X93639358Y-102981397D01*
X93631678Y-103007476D01*
X93565622Y-103155830D01*
X93468092Y-103276042D01*
X93339707Y-103367576D01*
X93181085Y-103429898D01*
X93128250Y-103442701D01*
X93039256Y-103454992D01*
X92923641Y-103461894D01*
X92796779Y-103463359D01*
X92674042Y-103459340D01*
X92570806Y-103449790D01*
X92538849Y-103444498D01*
X92421667Y-103408119D01*
X92305701Y-103349547D01*
X92207844Y-103278039D01*
X92175282Y-103245324D01*
X92130733Y-103191308D01*
X92093487Y-103136717D01*
X92062903Y-103077311D01*
X92038338Y-103008846D01*
X92019152Y-102927083D01*
X92004701Y-102827780D01*
X91994343Y-102706695D01*
X91987438Y-102559588D01*
X91983342Y-102382216D01*
X91981414Y-102170340D01*
X91981000Y-101961805D01*
X91981000Y-101201667D01*
X92486097Y-101201667D01*
X92492840Y-101947792D01*
G36*
X87811167Y-103445334D02*
G01*
X87282000Y-103445334D01*
X87282000Y-101201667D01*
X87811167Y-101201667D01*
X87811167Y-103445334D01*
G37*
X87811167Y-103445334D02*
X87282000Y-103445334D01*
X87282000Y-101201667D01*
X87811167Y-101201667D01*
X87811167Y-103445334D01*
G36*
X89779667Y-103445334D02*
G01*
X89260070Y-103445334D01*
X88932493Y-102847375D01*
X88604917Y-102249417D01*
X88599296Y-102847375D01*
X88593674Y-103445334D01*
X88065167Y-103445334D01*
X88065167Y-101201667D01*
X88324459Y-101201830D01*
X88583750Y-101201993D01*
X88911834Y-101820955D01*
X89239917Y-102439917D01*
X89245528Y-101820792D01*
X89251140Y-101201667D01*
X89779667Y-101201667D01*
X89779667Y-103445334D01*
G37*
X89779667Y-103445334D02*
X89260070Y-103445334D01*
X88932493Y-102847375D01*
X88604917Y-102249417D01*
X88599296Y-102847375D01*
X88593674Y-103445334D01*
X88065167Y-103445334D01*
X88065167Y-101201667D01*
X88324459Y-101201830D01*
X88583750Y-101201993D01*
X88911834Y-101820955D01*
X89239917Y-102439917D01*
X89245528Y-101820792D01*
X89251140Y-101201667D01*
X89779667Y-101201667D01*
X89779667Y-103445334D01*
G36*
X90672827Y-101202972D02*
G01*
X90825399Y-101207494D01*
X90949455Y-101216143D01*
X91051873Y-101229829D01*
X91139531Y-101249462D01*
X91219306Y-101275952D01*
X91295341Y-101308907D01*
X91439340Y-101397533D01*
X91556877Y-101514809D01*
X91648560Y-101662029D01*
X91714995Y-101840493D01*
X91756790Y-102051495D01*
X91774551Y-102296334D01*
X91775161Y-102334084D01*
X91769219Y-102555385D01*
X91745660Y-102743025D01*
X91702914Y-102902510D01*
X91639414Y-103039352D01*
X91553593Y-103159060D01*
X91534263Y-103180726D01*
X91462020Y-103253038D01*
X91388832Y-103311199D01*
X91309134Y-103356668D01*
X91217363Y-103390901D01*
X91107954Y-103415358D01*
X90975343Y-103431497D01*
X90813964Y-103440776D01*
X90618254Y-103444653D01*
X90525792Y-103445021D01*
X90054834Y-103445334D01*
X90054834Y-102979667D01*
X90562834Y-102979667D01*
X90688792Y-102979667D01*
X90781962Y-102975342D01*
X90878794Y-102964325D01*
X90922960Y-102956460D01*
X91029519Y-102919281D01*
X91113410Y-102856652D01*
X91176026Y-102765786D01*
X91218762Y-102643898D01*
X91243012Y-102488200D01*
X91250190Y-102302334D01*
X91243302Y-102117828D01*
X91221668Y-101970443D01*
X91182537Y-101856704D01*
X91123158Y-101773132D01*
X91040778Y-101716250D01*
X90932646Y-101682583D01*
X90796010Y-101668652D01*
X90748042Y-101667798D01*
X90562834Y-101667334D01*
X90562834Y-102979667D01*
X90054834Y-102979667D01*
X90054834Y-101201667D01*
X90484863Y-101201667D01*
X90672827Y-101202972D01*
G37*
X90672827Y-101202972D02*
X90825399Y-101207494D01*
X90949455Y-101216143D01*
X91051873Y-101229829D01*
X91139531Y-101249462D01*
X91219306Y-101275952D01*
X91295341Y-101308907D01*
X91439340Y-101397533D01*
X91556877Y-101514809D01*
X91648560Y-101662029D01*
X91714995Y-101840493D01*
X91756790Y-102051495D01*
X91774551Y-102296334D01*
X91775161Y-102334084D01*
X91769219Y-102555385D01*
X91745660Y-102743025D01*
X91702914Y-102902510D01*
X91639414Y-103039352D01*
X91553593Y-103159060D01*
X91534263Y-103180726D01*
X91462020Y-103253038D01*
X91388832Y-103311199D01*
X91309134Y-103356668D01*
X91217363Y-103390901D01*
X91107954Y-103415358D01*
X90975343Y-103431497D01*
X90813964Y-103440776D01*
X90618254Y-103444653D01*
X90525792Y-103445021D01*
X90054834Y-103445334D01*
X90054834Y-102979667D01*
X90562834Y-102979667D01*
X90688792Y-102979667D01*
X90781962Y-102975342D01*
X90878794Y-102964325D01*
X90922960Y-102956460D01*
X91029519Y-102919281D01*
X91113410Y-102856652D01*
X91176026Y-102765786D01*
X91218762Y-102643898D01*
X91243012Y-102488200D01*
X91250190Y-102302334D01*
X91243302Y-102117828D01*
X91221668Y-101970443D01*
X91182537Y-101856704D01*
X91123158Y-101773132D01*
X91040778Y-101716250D01*
X90932646Y-101682583D01*
X90796010Y-101668652D01*
X90748042Y-101667798D01*
X90562834Y-101667334D01*
X90562834Y-102979667D01*
X90054834Y-102979667D01*
X90054834Y-101201667D01*
X90484863Y-101201667D01*
X90672827Y-101202972D01*
G36*
X97251500Y-101688500D02*
G01*
X96743500Y-101688500D01*
X96743500Y-103445334D01*
X96214334Y-103445334D01*
X96214334Y-101688500D01*
X95685167Y-101688500D01*
X95685167Y-101201667D01*
X97251500Y-101201667D01*
X97251500Y-101688500D01*
G37*
X97251500Y-101688500D02*
X96743500Y-101688500D01*
X96743500Y-103445334D01*
X96214334Y-103445334D01*
X96214334Y-101688500D01*
X95685167Y-101688500D01*
X95685167Y-101201667D01*
X97251500Y-101201667D01*
X97251500Y-101688500D01*
G36*
X97976459Y-101207139D02*
G01*
X98168919Y-101211437D01*
X98324821Y-101217285D01*
X98449933Y-101225695D01*
X98550028Y-101237678D01*
X98630875Y-101254245D01*
X98698244Y-101276407D01*
X98757907Y-101305176D01*
X98815634Y-101341563D01*
X98839268Y-101358327D01*
X98916975Y-101430294D01*
X98985533Y-101521201D01*
X98997750Y-101542015D01*
X99025329Y-101594343D01*
X99043507Y-101639663D01*
X99054234Y-101688971D01*
X99059461Y-101753264D01*
X99061135Y-101843537D01*
X99061250Y-101900167D01*
X99060439Y-102008497D01*
X99056835Y-102085406D01*
X99048680Y-102141790D01*
X99034216Y-102188548D01*
X99011687Y-102236579D01*
X99004932Y-102249417D01*
X98914763Y-102379660D01*
X98796522Y-102491674D01*
X98758570Y-102518825D01*
X98709889Y-102551214D01*
X98761503Y-102564169D01*
X98825375Y-102599225D01*
X98888668Y-102667478D01*
X98944818Y-102760217D01*
X98984721Y-102860313D01*
X99010977Y-102960459D01*
X99035437Y-103080184D01*
X99055453Y-103203590D01*
X99068378Y-103314775D01*
X99071834Y-103383365D01*
X99071834Y-103445334D01*
X98526506Y-103445334D01*
X98517946Y-103175459D01*
X98508691Y-103020479D01*
X98489380Y-102902312D01*
X98456037Y-102815874D01*
X98404688Y-102756083D01*
X98331355Y-102717856D01*
X98232062Y-102696112D01*
X98136177Y-102687447D01*
X97971167Y-102677894D01*
X97971167Y-103445334D01*
X97442000Y-103445334D01*
X97442000Y-101649213D01*
X97971167Y-101649213D01*
X97971167Y-102281167D01*
X98163693Y-102281167D01*
X98272578Y-102278488D01*
X98348918Y-102269548D01*
X98402217Y-102252995D01*
X98417351Y-102245055D01*
X98486130Y-102180602D01*
X98527822Y-102084260D01*
X98542628Y-101955551D01*
X98542667Y-101947723D01*
X98531458Y-101831440D01*
X98495300Y-101746474D01*
X98430392Y-101687475D01*
X98332935Y-101649088D01*
X98330191Y-101648382D01*
X98169381Y-101628866D01*
X98092686Y-101634030D01*
X97971167Y-101649213D01*
X97442000Y-101649213D01*
X97442000Y-101197441D01*
X97976459Y-101207139D01*
G37*
X97976459Y-101207139D02*
X98168919Y-101211437D01*
X98324821Y-101217285D01*
X98449933Y-101225695D01*
X98550028Y-101237678D01*
X98630875Y-101254245D01*
X98698244Y-101276407D01*
X98757907Y-101305176D01*
X98815634Y-101341563D01*
X98839268Y-101358327D01*
X98916975Y-101430294D01*
X98985533Y-101521201D01*
X98997750Y-101542015D01*
X99025329Y-101594343D01*
X99043507Y-101639663D01*
X99054234Y-101688971D01*
X99059461Y-101753264D01*
X99061135Y-101843537D01*
X99061250Y-101900167D01*
X99060439Y-102008497D01*
X99056835Y-102085406D01*
X99048680Y-102141790D01*
X99034216Y-102188548D01*
X99011687Y-102236579D01*
X99004932Y-102249417D01*
X98914763Y-102379660D01*
X98796522Y-102491674D01*
X98758570Y-102518825D01*
X98709889Y-102551214D01*
X98761503Y-102564169D01*
X98825375Y-102599225D01*
X98888668Y-102667478D01*
X98944818Y-102760217D01*
X98984721Y-102860313D01*
X99010977Y-102960459D01*
X99035437Y-103080184D01*
X99055453Y-103203590D01*
X99068378Y-103314775D01*
X99071834Y-103383365D01*
X99071834Y-103445334D01*
X98526506Y-103445334D01*
X98517946Y-103175459D01*
X98508691Y-103020479D01*
X98489380Y-102902312D01*
X98456037Y-102815874D01*
X98404688Y-102756083D01*
X98331355Y-102717856D01*
X98232062Y-102696112D01*
X98136177Y-102687447D01*
X97971167Y-102677894D01*
X97971167Y-103445334D01*
X97442000Y-103445334D01*
X97442000Y-101649213D01*
X97971167Y-101649213D01*
X97971167Y-102281167D01*
X98163693Y-102281167D01*
X98272578Y-102278488D01*
X98348918Y-102269548D01*
X98402217Y-102252995D01*
X98417351Y-102245055D01*
X98486130Y-102180602D01*
X98527822Y-102084260D01*
X98542628Y-101955551D01*
X98542667Y-101947723D01*
X98531458Y-101831440D01*
X98495300Y-101746474D01*
X98430392Y-101687475D01*
X98332935Y-101649088D01*
X98330191Y-101648382D01*
X98169381Y-101628866D01*
X98092686Y-101634030D01*
X97971167Y-101649213D01*
X97442000Y-101649213D01*
X97442000Y-101197441D01*
X97976459Y-101207139D01*
G36*
X99812667Y-103445334D02*
G01*
X99283500Y-103445334D01*
X99283500Y-101201667D01*
X99812667Y-101201667D01*
X99812667Y-103445334D01*
G37*
X99812667Y-103445334D02*
X99283500Y-103445334D01*
X99283500Y-101201667D01*
X99812667Y-101201667D01*
X99812667Y-103445334D01*
G36*
X101506000Y-101688500D02*
G01*
X100595834Y-101688500D01*
X100595834Y-102048334D01*
X101273167Y-102048334D01*
X101273167Y-102492834D01*
X100595834Y-102492834D01*
X100595834Y-102958500D01*
X101506000Y-102958500D01*
X101506000Y-103445334D01*
X100066667Y-103445334D01*
X100066667Y-101201667D01*
X101506000Y-101201667D01*
X101506000Y-101688500D01*
G37*
X101506000Y-101688500D02*
X100595834Y-101688500D01*
X100595834Y-102048334D01*
X101273167Y-102048334D01*
X101273167Y-102492834D01*
X100595834Y-102492834D01*
X100595834Y-102958500D01*
X101506000Y-102958500D01*
X101506000Y-103445334D01*
X100066667Y-103445334D01*
X100066667Y-101201667D01*
X101506000Y-101201667D01*
X101506000Y-101688500D01*
G36*
X97401595Y-97515542D02*
G01*
X97540165Y-97535199D01*
X97654122Y-97571310D01*
X97751546Y-97626401D01*
X97837126Y-97699600D01*
X97924527Y-97805999D01*
X97980468Y-97923328D01*
X98008523Y-98061083D01*
X98013500Y-98168092D01*
X98013500Y-98301834D01*
X97532053Y-98301834D01*
X97521999Y-98197203D01*
X97501106Y-98093355D01*
X97457788Y-98019943D01*
X97385942Y-97968343D01*
X97348517Y-97952133D01*
X97228940Y-97925566D01*
X97116237Y-97937321D01*
X97017154Y-97986223D01*
X96982901Y-98015866D01*
X96929491Y-98085536D01*
X96915756Y-98153500D01*
X96940507Y-98229121D01*
X96953065Y-98251135D01*
X96983971Y-98293204D01*
X97025202Y-98330551D01*
X97082704Y-98366279D01*
X97162421Y-98403488D01*
X97270297Y-98445283D01*
X97412276Y-98494764D01*
X97433698Y-98501973D01*
X97598573Y-98561255D01*
X97727646Y-98617693D01*
X97826910Y-98675162D01*
X97902361Y-98737535D01*
X97959993Y-98808686D01*
X97991103Y-98862185D01*
X98031407Y-98979084D01*
X98047289Y-99115844D01*
X98038673Y-99257694D01*
X98005482Y-99389861D01*
X97993984Y-99418198D01*
X97915161Y-99545287D01*
X97802268Y-99651440D01*
X97659495Y-99733843D01*
X97491034Y-99789679D01*
X97420834Y-99803396D01*
X97298785Y-99819317D01*
X97196634Y-99822121D01*
X97093874Y-99811327D01*
X97001916Y-99793552D01*
X96811807Y-99736868D01*
X96656999Y-99656929D01*
X96537272Y-99553507D01*
X96452406Y-99426380D01*
X96402184Y-99275323D01*
X96388024Y-99164375D01*
X96378228Y-99000334D01*
X96912834Y-99000334D01*
X96912834Y-99075808D01*
X96921605Y-99152890D01*
X96952263Y-99222203D01*
X97011321Y-99297426D01*
X97025755Y-99312951D01*
X97116821Y-99382881D01*
X97217645Y-99412234D01*
X97325178Y-99400269D01*
X97349686Y-99391921D01*
X97444901Y-99338786D01*
X97504364Y-99268186D01*
X97526095Y-99184514D01*
X97508116Y-99092163D01*
X97496272Y-99066454D01*
X97454868Y-99019025D01*
X97381023Y-98966301D01*
X97283367Y-98913228D01*
X97170534Y-98864754D01*
X97103334Y-98841269D01*
X96903230Y-98771709D01*
X96742012Y-98702162D01*
X96616341Y-98629581D01*
X96522880Y-98550917D01*
X96458291Y-98463123D01*
X96419236Y-98363151D01*
X96402378Y-98247951D01*
X96401098Y-98199949D01*
X96415446Y-98027549D01*
X96459671Y-97883219D01*
X96535542Y-97763372D01*
X96644831Y-97664422D01*
X96675579Y-97643797D01*
X96792773Y-97581192D01*
X96918475Y-97539713D01*
X97063368Y-97516778D01*
X97230334Y-97509812D01*
X97401595Y-97515542D01*
G37*
X97401595Y-97515542D02*
X97540165Y-97535199D01*
X97654122Y-97571310D01*
X97751546Y-97626401D01*
X97837126Y-97699600D01*
X97924527Y-97805999D01*
X97980468Y-97923328D01*
X98008523Y-98061083D01*
X98013500Y-98168092D01*
X98013500Y-98301834D01*
X97532053Y-98301834D01*
X97521999Y-98197203D01*
X97501106Y-98093355D01*
X97457788Y-98019943D01*
X97385942Y-97968343D01*
X97348517Y-97952133D01*
X97228940Y-97925566D01*
X97116237Y-97937321D01*
X97017154Y-97986223D01*
X96982901Y-98015866D01*
X96929491Y-98085536D01*
X96915756Y-98153500D01*
X96940507Y-98229121D01*
X96953065Y-98251135D01*
X96983971Y-98293204D01*
X97025202Y-98330551D01*
X97082704Y-98366279D01*
X97162421Y-98403488D01*
X97270297Y-98445283D01*
X97412276Y-98494764D01*
X97433698Y-98501973D01*
X97598573Y-98561255D01*
X97727646Y-98617693D01*
X97826910Y-98675162D01*
X97902361Y-98737535D01*
X97959993Y-98808686D01*
X97991103Y-98862185D01*
X98031407Y-98979084D01*
X98047289Y-99115844D01*
X98038673Y-99257694D01*
X98005482Y-99389861D01*
X97993984Y-99418198D01*
X97915161Y-99545287D01*
X97802268Y-99651440D01*
X97659495Y-99733843D01*
X97491034Y-99789679D01*
X97420834Y-99803396D01*
X97298785Y-99819317D01*
X97196634Y-99822121D01*
X97093874Y-99811327D01*
X97001916Y-99793552D01*
X96811807Y-99736868D01*
X96656999Y-99656929D01*
X96537272Y-99553507D01*
X96452406Y-99426380D01*
X96402184Y-99275323D01*
X96388024Y-99164375D01*
X96378228Y-99000334D01*
X96912834Y-99000334D01*
X96912834Y-99075808D01*
X96921605Y-99152890D01*
X96952263Y-99222203D01*
X97011321Y-99297426D01*
X97025755Y-99312951D01*
X97116821Y-99382881D01*
X97217645Y-99412234D01*
X97325178Y-99400269D01*
X97349686Y-99391921D01*
X97444901Y-99338786D01*
X97504364Y-99268186D01*
X97526095Y-99184514D01*
X97508116Y-99092163D01*
X97496272Y-99066454D01*
X97454868Y-99019025D01*
X97381023Y-98966301D01*
X97283367Y-98913228D01*
X97170534Y-98864754D01*
X97103334Y-98841269D01*
X96903230Y-98771709D01*
X96742012Y-98702162D01*
X96616341Y-98629581D01*
X96522880Y-98550917D01*
X96458291Y-98463123D01*
X96419236Y-98363151D01*
X96402378Y-98247951D01*
X96401098Y-98199949D01*
X96415446Y-98027549D01*
X96459671Y-97883219D01*
X96535542Y-97763372D01*
X96644831Y-97664422D01*
X96675579Y-97643797D01*
X96792773Y-97581192D01*
X96918475Y-97539713D01*
X97063368Y-97516778D01*
X97230334Y-97509812D01*
X97401595Y-97515542D01*
G36*
X101822539Y-97531546D02*
G01*
X101992734Y-97594146D01*
X102143208Y-97689600D01*
X102269382Y-97815700D01*
X102359910Y-97956576D01*
X102404754Y-98061282D01*
X102442681Y-98179659D01*
X102469156Y-98295113D01*
X102479643Y-98391047D01*
X102479667Y-98394847D01*
X102479667Y-98471167D01*
X101960336Y-98471167D01*
X101922920Y-98328510D01*
X101879495Y-98197739D01*
X101825112Y-98101944D01*
X101755150Y-98034248D01*
X101705692Y-98005186D01*
X101618764Y-97971840D01*
X101542267Y-97967496D01*
X101459328Y-97992486D01*
X101420527Y-98010792D01*
X101360330Y-98047685D01*
X101314998Y-98095103D01*
X101272154Y-98166709D01*
X101263059Y-98184603D01*
X101236838Y-98240010D01*
X101218703Y-98289497D01*
X101206831Y-98343390D01*
X101199405Y-98412013D01*
X101194602Y-98505691D01*
X101191933Y-98588046D01*
X101191220Y-98776062D01*
X101202225Y-98928421D01*
X101226459Y-99050549D01*
X101265434Y-99147873D01*
X101320662Y-99225821D01*
X101385844Y-99284137D01*
X101457203Y-99316011D01*
X101550369Y-99330270D01*
X101648638Y-99326878D01*
X101735304Y-99305798D01*
X101774323Y-99284983D01*
X101831588Y-99225231D01*
X101884410Y-99138834D01*
X101924619Y-99041313D01*
X101942154Y-98966154D01*
X101951366Y-98893543D01*
X101960759Y-98843878D01*
X101977563Y-98812841D01*
X102009008Y-98796115D01*
X102062326Y-98789383D01*
X102144747Y-98788326D01*
X102239387Y-98788667D01*
X102506302Y-98788667D01*
X102491638Y-98920959D01*
X102457873Y-99125916D01*
X102404216Y-99299144D01*
X102327915Y-99447619D01*
X102237304Y-99566190D01*
X102114064Y-99672730D01*
X101963448Y-99752489D01*
X101792296Y-99803611D01*
X101607449Y-99824241D01*
X101415749Y-99812523D01*
X101362826Y-99803400D01*
X101182777Y-99748172D01*
X101027334Y-99658710D01*
X100897192Y-99535710D01*
X100793044Y-99379872D01*
X100715585Y-99191894D01*
X100699436Y-99136093D01*
X100674991Y-99011397D01*
X100658997Y-98860838D01*
X100651623Y-98697345D01*
X100653036Y-98533844D01*
X100663405Y-98383263D01*
X100682896Y-98258529D01*
X100687771Y-98238334D01*
X100757368Y-98032468D01*
X100850490Y-97861511D01*
X100968056Y-97724579D01*
X101110985Y-97620788D01*
X101280197Y-97549252D01*
X101441308Y-97513735D01*
X101637204Y-97504006D01*
X101822539Y-97531546D01*
G37*
X101822539Y-97531546D02*
X101992734Y-97594146D01*
X102143208Y-97689600D01*
X102269382Y-97815700D01*
X102359910Y-97956576D01*
X102404754Y-98061282D01*
X102442681Y-98179659D01*
X102469156Y-98295113D01*
X102479643Y-98391047D01*
X102479667Y-98394847D01*
X102479667Y-98471167D01*
X101960336Y-98471167D01*
X101922920Y-98328510D01*
X101879495Y-98197739D01*
X101825112Y-98101944D01*
X101755150Y-98034248D01*
X101705692Y-98005186D01*
X101618764Y-97971840D01*
X101542267Y-97967496D01*
X101459328Y-97992486D01*
X101420527Y-98010792D01*
X101360330Y-98047685D01*
X101314998Y-98095103D01*
X101272154Y-98166709D01*
X101263059Y-98184603D01*
X101236838Y-98240010D01*
X101218703Y-98289497D01*
X101206831Y-98343390D01*
X101199405Y-98412013D01*
X101194602Y-98505691D01*
X101191933Y-98588046D01*
X101191220Y-98776062D01*
X101202225Y-98928421D01*
X101226459Y-99050549D01*
X101265434Y-99147873D01*
X101320662Y-99225821D01*
X101385844Y-99284137D01*
X101457203Y-99316011D01*
X101550369Y-99330270D01*
X101648638Y-99326878D01*
X101735304Y-99305798D01*
X101774323Y-99284983D01*
X101831588Y-99225231D01*
X101884410Y-99138834D01*
X101924619Y-99041313D01*
X101942154Y-98966154D01*
X101951366Y-98893543D01*
X101960759Y-98843878D01*
X101977563Y-98812841D01*
X102009008Y-98796115D01*
X102062326Y-98789383D01*
X102144747Y-98788326D01*
X102239387Y-98788667D01*
X102506302Y-98788667D01*
X102491638Y-98920959D01*
X102457873Y-99125916D01*
X102404216Y-99299144D01*
X102327915Y-99447619D01*
X102237304Y-99566190D01*
X102114064Y-99672730D01*
X101963448Y-99752489D01*
X101792296Y-99803611D01*
X101607449Y-99824241D01*
X101415749Y-99812523D01*
X101362826Y-99803400D01*
X101182777Y-99748172D01*
X101027334Y-99658710D01*
X100897192Y-99535710D01*
X100793044Y-99379872D01*
X100715585Y-99191894D01*
X100699436Y-99136093D01*
X100674991Y-99011397D01*
X100658997Y-98860838D01*
X100651623Y-98697345D01*
X100653036Y-98533844D01*
X100663405Y-98383263D01*
X100682896Y-98258529D01*
X100687771Y-98238334D01*
X100757368Y-98032468D01*
X100850490Y-97861511D01*
X100968056Y-97724579D01*
X101110985Y-97620788D01*
X101280197Y-97549252D01*
X101441308Y-97513735D01*
X101637204Y-97504006D01*
X101822539Y-97531546D01*
G36*
X92351417Y-99032084D02*
G01*
X92404334Y-99136817D01*
X92464329Y-99233199D01*
X92532144Y-99292978D01*
X92616242Y-99321877D01*
X92685331Y-99326814D01*
X92802844Y-99311297D01*
X92894538Y-99263346D01*
X92964455Y-99180533D01*
X92981575Y-99148963D01*
X92994006Y-99122374D01*
X93004091Y-99095120D01*
X93012120Y-99062576D01*
X93018385Y-99020115D01*
X93023178Y-98963111D01*
X93026789Y-98886937D01*
X93029511Y-98786966D01*
X93031634Y-98658574D01*
X93033450Y-98497133D01*
X93035251Y-98298016D01*
X93035263Y-98296542D01*
X93041776Y-97539834D01*
X93572791Y-97539834D01*
X93562641Y-98317709D01*
X93558868Y-98561316D01*
X93553943Y-98766838D01*
X93547126Y-98938522D01*
X93537675Y-99080613D01*
X93524847Y-99197360D01*
X93507901Y-99293007D01*
X93486095Y-99371802D01*
X93458688Y-99437991D01*
X93424936Y-99495821D01*
X93384100Y-99549537D01*
X93338626Y-99600036D01*
X93252318Y-99677104D01*
X93155820Y-99733723D01*
X93041959Y-99772106D01*
X92903559Y-99794463D01*
X92733447Y-99803007D01*
X92679500Y-99803227D01*
X92540604Y-99799738D01*
X92431985Y-99789618D01*
X92341923Y-99771556D01*
X92308334Y-99761771D01*
X92164596Y-99695213D01*
X92040361Y-99595958D01*
X91947441Y-99475405D01*
X91920080Y-99423088D01*
X91897368Y-99365068D01*
X91878893Y-99297077D01*
X91864241Y-99214847D01*
X91853002Y-99114113D01*
X91844762Y-98990606D01*
X91839110Y-98840059D01*
X91835634Y-98658205D01*
X91833920Y-98440777D01*
X91833572Y-98296542D01*
X91832834Y-97539834D01*
X92337519Y-97539834D01*
X92351417Y-99032084D01*
G37*
X92351417Y-99032084D02*
X92404334Y-99136817D01*
X92464329Y-99233199D01*
X92532144Y-99292978D01*
X92616242Y-99321877D01*
X92685331Y-99326814D01*
X92802844Y-99311297D01*
X92894538Y-99263346D01*
X92964455Y-99180533D01*
X92981575Y-99148963D01*
X92994006Y-99122374D01*
X93004091Y-99095120D01*
X93012120Y-99062576D01*
X93018385Y-99020115D01*
X93023178Y-98963111D01*
X93026789Y-98886937D01*
X93029511Y-98786966D01*
X93031634Y-98658574D01*
X93033450Y-98497133D01*
X93035251Y-98298016D01*
X93035263Y-98296542D01*
X93041776Y-97539834D01*
X93572791Y-97539834D01*
X93562641Y-98317709D01*
X93558868Y-98561316D01*
X93553943Y-98766838D01*
X93547126Y-98938522D01*
X93537675Y-99080613D01*
X93524847Y-99197360D01*
X93507901Y-99293007D01*
X93486095Y-99371802D01*
X93458688Y-99437991D01*
X93424936Y-99495821D01*
X93384100Y-99549537D01*
X93338626Y-99600036D01*
X93252318Y-99677104D01*
X93155820Y-99733723D01*
X93041959Y-99772106D01*
X92903559Y-99794463D01*
X92733447Y-99803007D01*
X92679500Y-99803227D01*
X92540604Y-99799738D01*
X92431985Y-99789618D01*
X92341923Y-99771556D01*
X92308334Y-99761771D01*
X92164596Y-99695213D01*
X92040361Y-99595958D01*
X91947441Y-99475405D01*
X91920080Y-99423088D01*
X91897368Y-99365068D01*
X91878893Y-99297077D01*
X91864241Y-99214847D01*
X91853002Y-99114113D01*
X91844762Y-98990606D01*
X91839110Y-98840059D01*
X91835634Y-98658205D01*
X91833920Y-98440777D01*
X91833572Y-98296542D01*
X91832834Y-97539834D01*
X92337519Y-97539834D01*
X92351417Y-99032084D01*
G36*
X88657834Y-98471167D02*
G01*
X89356334Y-98471167D01*
X89356334Y-97539834D01*
X89885500Y-97539834D01*
X89885500Y-99783500D01*
X89356334Y-99783500D01*
X89356334Y-98936834D01*
X88657834Y-98936834D01*
X88657834Y-99783500D01*
X88128293Y-99783500D01*
X88133771Y-98666959D01*
X88139250Y-97550417D01*
X88657834Y-97538531D01*
X88657834Y-98471167D01*
G37*
X88657834Y-98471167D02*
X89356334Y-98471167D01*
X89356334Y-97539834D01*
X89885500Y-97539834D01*
X89885500Y-99783500D01*
X89356334Y-99783500D01*
X89356334Y-98936834D01*
X88657834Y-98936834D01*
X88657834Y-99783500D01*
X88128293Y-99783500D01*
X88133771Y-98666959D01*
X88139250Y-97550417D01*
X88657834Y-97538531D01*
X88657834Y-98471167D01*
G36*
X91578834Y-98026667D02*
G01*
X90668667Y-98026667D01*
X90668667Y-98407667D01*
X91346000Y-98407667D01*
X91346000Y-98852167D01*
X90668667Y-98852167D01*
X90668667Y-99317834D01*
X91578834Y-99317834D01*
X91578834Y-99783500D01*
X90139500Y-99783500D01*
X90139500Y-97539834D01*
X91578834Y-97539834D01*
X91578834Y-98026667D01*
G37*
X91578834Y-98026667D02*
X90668667Y-98026667D01*
X90668667Y-98407667D01*
X91346000Y-98407667D01*
X91346000Y-98852167D01*
X90668667Y-98852167D01*
X90668667Y-99317834D01*
X91578834Y-99317834D01*
X91578834Y-99783500D01*
X90139500Y-99783500D01*
X90139500Y-97539834D01*
X91578834Y-97539834D01*
X91578834Y-98026667D01*
G36*
X94240542Y-97540253D02*
G01*
X94462759Y-97542480D01*
X94647870Y-97549394D01*
X94800946Y-97562070D01*
X94927060Y-97581587D01*
X95031284Y-97609020D01*
X95118690Y-97645446D01*
X95194352Y-97691943D01*
X95263340Y-97749588D01*
X95273781Y-97759608D01*
X95359343Y-97860795D01*
X95415230Y-97972556D01*
X95444972Y-98104358D01*
X95452334Y-98238333D01*
X95434628Y-98419993D01*
X95382273Y-98580434D01*
X95296408Y-98717201D01*
X95179080Y-98827181D01*
X95096480Y-98887016D01*
X95170124Y-98926676D01*
X95244788Y-98989273D01*
X95310290Y-99089723D01*
X95365154Y-99224251D01*
X95407904Y-99389080D01*
X95437064Y-99580433D01*
X95440945Y-99619459D01*
X95455945Y-99783500D01*
X94902000Y-99783500D01*
X94901078Y-99587709D01*
X94895314Y-99418987D01*
X94877695Y-99287211D01*
X94845063Y-99187895D01*
X94794261Y-99116554D01*
X94722132Y-99068705D01*
X94625520Y-99039862D01*
X94505541Y-99025808D01*
X94351667Y-99015933D01*
X94351667Y-99783500D01*
X93822500Y-99783500D01*
X93822500Y-97984334D01*
X94351667Y-97984334D01*
X94351667Y-98645678D01*
X94536884Y-98636823D01*
X94653679Y-98627222D01*
X94737016Y-98610356D01*
X94790542Y-98587539D01*
X94864934Y-98519837D01*
X94909185Y-98422585D01*
X94923167Y-98301834D01*
X94913381Y-98185535D01*
X94881439Y-98099055D01*
X94823470Y-98039148D01*
X94735598Y-98002569D01*
X94613950Y-97986072D01*
X94544193Y-97984334D01*
X94351667Y-97984334D01*
X93822500Y-97984334D01*
X93822500Y-97539834D01*
X94240542Y-97540253D01*
G37*
X94240542Y-97540253D02*
X94462759Y-97542480D01*
X94647870Y-97549394D01*
X94800946Y-97562070D01*
X94927060Y-97581587D01*
X95031284Y-97609020D01*
X95118690Y-97645446D01*
X95194352Y-97691943D01*
X95263340Y-97749588D01*
X95273781Y-97759608D01*
X95359343Y-97860795D01*
X95415230Y-97972556D01*
X95444972Y-98104358D01*
X95452334Y-98238333D01*
X95434628Y-98419993D01*
X95382273Y-98580434D01*
X95296408Y-98717201D01*
X95179080Y-98827181D01*
X95096480Y-98887016D01*
X95170124Y-98926676D01*
X95244788Y-98989273D01*
X95310290Y-99089723D01*
X95365154Y-99224251D01*
X95407904Y-99389080D01*
X95437064Y-99580433D01*
X95440945Y-99619459D01*
X95455945Y-99783500D01*
X94902000Y-99783500D01*
X94901078Y-99587709D01*
X94895314Y-99418987D01*
X94877695Y-99287211D01*
X94845063Y-99187895D01*
X94794261Y-99116554D01*
X94722132Y-99068705D01*
X94625520Y-99039862D01*
X94505541Y-99025808D01*
X94351667Y-99015933D01*
X94351667Y-99783500D01*
X93822500Y-99783500D01*
X93822500Y-97984334D01*
X94351667Y-97984334D01*
X94351667Y-98645678D01*
X94536884Y-98636823D01*
X94653679Y-98627222D01*
X94737016Y-98610356D01*
X94790542Y-98587539D01*
X94864934Y-98519837D01*
X94909185Y-98422585D01*
X94923167Y-98301834D01*
X94913381Y-98185535D01*
X94881439Y-98099055D01*
X94823470Y-98039148D01*
X94735598Y-98002569D01*
X94613950Y-97986072D01*
X94544193Y-97984334D01*
X94351667Y-97984334D01*
X93822500Y-97984334D01*
X93822500Y-97539834D01*
X94240542Y-97540253D01*
G36*
X96193167Y-99783500D02*
G01*
X95664000Y-99783500D01*
X95664000Y-97539834D01*
X96193167Y-97539834D01*
X96193167Y-99783500D01*
G37*
X96193167Y-99783500D02*
X95664000Y-99783500D01*
X95664000Y-97539834D01*
X96193167Y-97539834D01*
X96193167Y-99783500D01*
G36*
X99728000Y-98026667D02*
G01*
X99220000Y-98026667D01*
X99220000Y-99783500D01*
X98690834Y-99783500D01*
X98690834Y-98026667D01*
X98161667Y-98026667D01*
X98161667Y-97539834D01*
X99728000Y-97539834D01*
X99728000Y-98026667D01*
G37*
X99728000Y-98026667D02*
X99220000Y-98026667D01*
X99220000Y-99783500D01*
X98690834Y-99783500D01*
X98690834Y-98026667D01*
X98161667Y-98026667D01*
X98161667Y-97539834D01*
X99728000Y-97539834D01*
X99728000Y-98026667D01*
G36*
X100447667Y-99783500D02*
G01*
X99918126Y-99783500D01*
X99923605Y-98666959D01*
X99929084Y-97550417D01*
X100188375Y-97544474D01*
X100447667Y-97538531D01*
X100447667Y-99783500D01*
G37*
X100447667Y-99783500D02*
X99918126Y-99783500D01*
X99923605Y-98666959D01*
X99929084Y-97550417D01*
X100188375Y-97544474D01*
X100447667Y-97538531D01*
X100447667Y-99783500D01*
D13*
%TO.C,J4*%
X136130000Y-71830000D02*
X136130000Y-73160000D01*
X134800000Y-71830000D02*
X136130000Y-71830000D01*
X136130000Y-74430000D02*
X136130000Y-77030000D01*
X133530000Y-74430000D02*
X136130000Y-74430000D01*
X133530000Y-71830000D02*
X133530000Y-74430000D01*
X136130000Y-77030000D02*
X128390000Y-77030000D01*
X133530000Y-71830000D02*
X128390000Y-71830000D01*
X128390000Y-71830000D02*
X128390000Y-77030000D01*
%TO.C,R4*%
X144497500Y-95189758D02*
X144497500Y-94715242D01*
X143452500Y-95189758D02*
X143452500Y-94715242D01*
%TO.C,C1*%
X148865000Y-71545580D02*
X148865000Y-71264420D01*
X147845000Y-71545580D02*
X147845000Y-71264420D01*
%TO.C,C2*%
X132786252Y-94865000D02*
X131363748Y-94865000D01*
X132786252Y-96685000D02*
X131363748Y-96685000D01*
%TO.C,C3*%
X151285000Y-71540580D02*
X151285000Y-71259420D01*
X150265000Y-71540580D02*
X150265000Y-71259420D01*
%TO.C,C4*%
X154385000Y-72936252D02*
X154385000Y-71513748D01*
X152565000Y-72936252D02*
X152565000Y-71513748D01*
%TO.C,U1*%
X147715000Y-60650000D02*
X147715000Y-54640000D01*
X154535000Y-58400000D02*
X154535000Y-54640000D01*
X147715000Y-54640000D02*
X148975000Y-54640000D01*
X154535000Y-54640000D02*
X153275000Y-54640000D01*
D11*
%TO.C,U2*%
X147250000Y-77715000D02*
X145500000Y-77715000D01*
X147250000Y-83020000D02*
X152750000Y-83020000D01*
X147250000Y-77510000D02*
X152750000Y-77510000D01*
X147250000Y-83020000D02*
X147250000Y-82720000D01*
X152750000Y-83020000D02*
X152750000Y-82720000D01*
X152750000Y-77510000D02*
X152750000Y-77810000D01*
X147250000Y-77510000D02*
X147250000Y-77715000D01*
D13*
%TO.C,J3*%
X162070000Y-53405000D02*
X158670000Y-53405000D01*
X163420000Y-74255000D02*
X158670000Y-74255000D01*
X163420000Y-77175000D02*
X163420000Y-74255000D01*
X172320000Y-77175000D02*
X163420000Y-77175000D01*
X177110000Y-74255000D02*
X172360000Y-74255000D01*
X158670000Y-74255000D02*
X158670000Y-71625000D01*
X158670000Y-68825000D02*
X158670000Y-58925000D01*
X177110000Y-58925000D02*
X177110000Y-68825000D01*
X177110000Y-71625000D02*
X177110000Y-74255000D01*
X177110000Y-53405000D02*
X177110000Y-56125000D01*
X158670000Y-53405000D02*
X158670000Y-56125000D01*
X177110000Y-53405000D02*
X173710000Y-53405000D01*
X172360000Y-77175000D02*
X172360000Y-74255000D01*
X173710000Y-53405000D02*
X173710000Y-50405000D01*
X173710000Y-50405000D02*
X162070000Y-50405000D01*
X162070000Y-53405000D02*
X162070000Y-50405000D01*
%TO.C,SW2*%
X146850000Y-107650000D02*
X146850000Y-108900000D01*
X148100000Y-107650000D02*
X146850000Y-107650000D01*
X154000000Y-113150000D02*
X150950000Y-113150000D01*
X154000000Y-110200000D02*
X154000000Y-113150000D01*
X154750000Y-110200000D02*
X154000000Y-110200000D01*
X147900000Y-113150000D02*
X150950000Y-113150000D01*
X147900000Y-110200000D02*
X147900000Y-113150000D01*
X147150000Y-110200000D02*
X147900000Y-110200000D01*
X154750000Y-107950000D02*
X152950000Y-107950000D01*
X154750000Y-108700000D02*
X154750000Y-107950000D01*
X152950000Y-108700000D02*
X154750000Y-108700000D01*
X152950000Y-107950000D02*
X152950000Y-108700000D01*
X148950000Y-107950000D02*
X147150000Y-107950000D01*
X148950000Y-108700000D02*
X148950000Y-107950000D01*
X147150000Y-108700000D02*
X148950000Y-108700000D01*
X147150000Y-107950000D02*
X147150000Y-108700000D01*
X151450000Y-107950000D02*
X150450000Y-107950000D01*
X151450000Y-108700000D02*
X151450000Y-107950000D01*
X150450000Y-108700000D02*
X151450000Y-108700000D01*
X150450000Y-107950000D02*
X150450000Y-108700000D01*
X154760000Y-107940000D02*
X147140000Y-107940000D01*
X154760000Y-113910000D02*
X154760000Y-107940000D01*
X147140000Y-113910000D02*
X154760000Y-113910000D01*
X147140000Y-107940000D02*
X147140000Y-113910000D01*
%TO.C,SW1*%
X110150000Y-107650000D02*
X110150000Y-108900000D01*
X111400000Y-107650000D02*
X110150000Y-107650000D01*
X117300000Y-113150000D02*
X114250000Y-113150000D01*
X117300000Y-110200000D02*
X117300000Y-113150000D01*
X118050000Y-110200000D02*
X117300000Y-110200000D01*
X111200000Y-113150000D02*
X114250000Y-113150000D01*
X111200000Y-110200000D02*
X111200000Y-113150000D01*
X110450000Y-110200000D02*
X111200000Y-110200000D01*
X118050000Y-107950000D02*
X116250000Y-107950000D01*
X118050000Y-108700000D02*
X118050000Y-107950000D01*
X116250000Y-108700000D02*
X118050000Y-108700000D01*
X116250000Y-107950000D02*
X116250000Y-108700000D01*
X112250000Y-107950000D02*
X110450000Y-107950000D01*
X112250000Y-108700000D02*
X112250000Y-107950000D01*
X110450000Y-108700000D02*
X112250000Y-108700000D01*
X110450000Y-107950000D02*
X110450000Y-108700000D01*
X114750000Y-107950000D02*
X113750000Y-107950000D01*
X114750000Y-108700000D02*
X114750000Y-107950000D01*
X113750000Y-108700000D02*
X114750000Y-108700000D01*
X113750000Y-107950000D02*
X113750000Y-108700000D01*
X118060000Y-107940000D02*
X110440000Y-107940000D01*
X118060000Y-113910000D02*
X118060000Y-107940000D01*
X110440000Y-113910000D02*
X118060000Y-113910000D01*
X110440000Y-107940000D02*
X110440000Y-113910000D01*
%TO.C,R10*%
X106297500Y-88847258D02*
X106297500Y-88372742D01*
X105252500Y-88847258D02*
X105252500Y-88372742D01*
%TO.C,C7*%
X139390000Y-88750580D02*
X139390000Y-88469420D01*
X140410000Y-88750580D02*
X140410000Y-88469420D01*
%TO.C,C8*%
X139390000Y-101154420D02*
X139390000Y-101435580D01*
X140410000Y-101154420D02*
X140410000Y-101435580D01*
%TO.C,C9*%
X163385000Y-95093080D02*
X163385000Y-94811920D01*
X162365000Y-95093080D02*
X162365000Y-94811920D01*
%TO.C,C10*%
X109565000Y-88469420D02*
X109565000Y-88750580D01*
X110585000Y-88469420D02*
X110585000Y-88750580D01*
%TO.C,C11*%
X113840000Y-94811920D02*
X113840000Y-95093080D01*
X114860000Y-94811920D02*
X114860000Y-95093080D01*
%TO.C,C12*%
X110585000Y-101435580D02*
X110585000Y-101154420D01*
X109565000Y-101435580D02*
X109565000Y-101154420D01*
%TO.C,C13*%
X132786252Y-100065000D02*
X131363748Y-100065000D01*
X132786252Y-101885000D02*
X131363748Y-101885000D01*
%TO.C,C14*%
X114860000Y-101435580D02*
X114860000Y-101154420D01*
X113840000Y-101435580D02*
X113840000Y-101154420D01*
%TO.C,D4*%
X157705000Y-91700000D02*
X157705000Y-87800000D01*
X159705000Y-91700000D02*
X159705000Y-87800000D01*
X157705000Y-91700000D02*
X159705000Y-91700000D01*
%TO.C,D5*%
X150070000Y-90465000D02*
X147830000Y-90465000D01*
X150070000Y-90705000D02*
X147830000Y-90705000D01*
X150070000Y-90585000D02*
X147830000Y-90585000D01*
X148950000Y-94755000D02*
X148950000Y-94105000D01*
X148950000Y-89215000D02*
X148950000Y-89865000D01*
X150070000Y-94105000D02*
X150070000Y-89865000D01*
X147830000Y-94105000D02*
X150070000Y-94105000D01*
X147830000Y-89865000D02*
X147830000Y-94105000D01*
X150070000Y-89865000D02*
X147830000Y-89865000D01*
%TO.C,D6*%
X154820000Y-90440000D02*
X152580000Y-90440000D01*
X154820000Y-90680000D02*
X152580000Y-90680000D01*
X154820000Y-90560000D02*
X152580000Y-90560000D01*
X153700000Y-94730000D02*
X153700000Y-94080000D01*
X153700000Y-89190000D02*
X153700000Y-89840000D01*
X154820000Y-94080000D02*
X154820000Y-89840000D01*
X152580000Y-94080000D02*
X154820000Y-94080000D01*
X152580000Y-89840000D02*
X152580000Y-94080000D01*
X154820000Y-89840000D02*
X152580000Y-89840000D01*
%TO.C,R3*%
X144497500Y-88372742D02*
X144497500Y-88847258D01*
X143452500Y-88372742D02*
X143452500Y-88847258D01*
%TO.C,R5*%
X144497500Y-101532258D02*
X144497500Y-101057742D01*
X143452500Y-101532258D02*
X143452500Y-101057742D01*
%TO.C,R7*%
X162352500Y-88372742D02*
X162352500Y-88847258D01*
X163397500Y-88372742D02*
X163397500Y-88847258D01*
%TO.C,R8*%
X114872500Y-88847258D02*
X114872500Y-88372742D01*
X113827500Y-88847258D02*
X113827500Y-88372742D01*
%TO.C,R9*%
X110597500Y-95189758D02*
X110597500Y-94715242D01*
X109552500Y-95189758D02*
X109552500Y-94715242D01*
%TO.C,R11*%
X106297500Y-95189758D02*
X106297500Y-94715242D01*
X105252500Y-95189758D02*
X105252500Y-94715242D01*
%TO.C,R12*%
X106297500Y-101532258D02*
X106297500Y-101057742D01*
X105252500Y-101532258D02*
X105252500Y-101057742D01*
%TO.C,R13*%
X139377500Y-94715242D02*
X139377500Y-95189758D01*
X140422500Y-94715242D02*
X140422500Y-95189758D01*
%TO.C,R14*%
X148427500Y-101057742D02*
X148427500Y-101532258D01*
X149472500Y-101057742D02*
X149472500Y-101532258D01*
%TO.C,U5*%
X133475000Y-87270000D02*
X130025000Y-87270000D01*
X133475000Y-87270000D02*
X135425000Y-87270000D01*
X133475000Y-92390000D02*
X131525000Y-92390000D01*
X133475000Y-92390000D02*
X135425000Y-92390000D01*
%TO.C,U4*%
X171092500Y-83015000D02*
X169242500Y-83015000D01*
X171092500Y-83015000D02*
X171842500Y-83015000D01*
X171092500Y-86135000D02*
X170342500Y-86135000D01*
X171092500Y-86135000D02*
X171842500Y-86135000D01*
%TO.C,U3*%
X113850000Y-70440000D02*
X112000000Y-70440000D01*
X113850000Y-70440000D02*
X114600000Y-70440000D01*
X113850000Y-73560000D02*
X113100000Y-73560000D01*
X113850000Y-73560000D02*
X114600000Y-73560000D01*
%TO.C,R2*%
X163397500Y-101532258D02*
X163397500Y-101057742D01*
X162352500Y-101532258D02*
X162352500Y-101057742D01*
%TO.C,R1*%
X154222500Y-101532258D02*
X154222500Y-101057742D01*
X153177500Y-101532258D02*
X153177500Y-101057742D01*
%TO.C,K3*%
X122555000Y-88875000D02*
X123255000Y-88475000D01*
X123255000Y-89275000D02*
X123255000Y-88075000D01*
X123255000Y-88075000D02*
X122555000Y-88075000D01*
X122555000Y-88075000D02*
X122555000Y-89275000D01*
X122555000Y-89275000D02*
X123255000Y-89275000D01*
X118855000Y-89505000D02*
X118855000Y-87165000D01*
X118855000Y-87165000D02*
X121045000Y-87165000D01*
X126855000Y-87385000D02*
X119075000Y-87385000D01*
X126855000Y-102665000D02*
X119075000Y-102665000D01*
X119075000Y-87405000D02*
X119075000Y-102665000D01*
X126855000Y-87385000D02*
X126855000Y-102665000D01*
%TO.C,K2*%
X170755000Y-88875000D02*
X171455000Y-88475000D01*
X171455000Y-89275000D02*
X171455000Y-88075000D01*
X171455000Y-88075000D02*
X170755000Y-88075000D01*
X170755000Y-88075000D02*
X170755000Y-89275000D01*
X170755000Y-89275000D02*
X171455000Y-89275000D01*
X167055000Y-89505000D02*
X167055000Y-87165000D01*
X167055000Y-87165000D02*
X169245000Y-87165000D01*
X175055000Y-87385000D02*
X167275000Y-87385000D01*
X175055000Y-102665000D02*
X167275000Y-102665000D01*
X167275000Y-87405000D02*
X167275000Y-102665000D01*
X175055000Y-87385000D02*
X175055000Y-102665000D01*
%TO.C,K1*%
X113530000Y-53775000D02*
X114230000Y-53375000D01*
X114230000Y-54175000D02*
X114230000Y-52975000D01*
X114230000Y-52975000D02*
X113530000Y-52975000D01*
X113530000Y-52975000D02*
X113530000Y-54175000D01*
X113530000Y-54175000D02*
X114230000Y-54175000D01*
X109830000Y-54405000D02*
X109830000Y-52065000D01*
X109830000Y-52065000D02*
X112020000Y-52065000D01*
X117830000Y-52285000D02*
X110050000Y-52285000D01*
X117830000Y-67565000D02*
X110050000Y-67565000D01*
X110050000Y-52305000D02*
X110050000Y-67565000D01*
X117830000Y-52285000D02*
X117830000Y-67565000D01*
%TO.C,J2*%
X91295000Y-53405001D02*
X87895000Y-53405001D01*
X92645000Y-74255001D02*
X87895000Y-74255001D01*
X92645000Y-77175001D02*
X92645000Y-74255001D01*
X101545000Y-77175001D02*
X92645000Y-77175001D01*
X106335000Y-74255001D02*
X101585000Y-74255001D01*
X87895000Y-74255001D02*
X87895000Y-71625001D01*
X87895000Y-68825001D02*
X87895000Y-58925001D01*
X106335000Y-58925001D02*
X106335000Y-68825001D01*
X106335000Y-71625001D02*
X106335000Y-74255001D01*
X106335000Y-53405001D02*
X106335000Y-56125001D01*
X87895000Y-53405001D02*
X87895000Y-56125001D01*
X106335000Y-53405001D02*
X102935000Y-53405001D01*
X101585000Y-77175001D02*
X101585000Y-74255001D01*
X102935000Y-53405001D02*
X102935000Y-50405001D01*
X102935000Y-50405001D02*
X91295000Y-50405001D01*
X91295000Y-53405001D02*
X91295000Y-50405001D01*
%TO.C,J1*%
X129670000Y-69630000D02*
X129670000Y-68300000D01*
X131000000Y-69630000D02*
X129670000Y-69630000D01*
X132270000Y-69630000D02*
X132270000Y-66970000D01*
X132270000Y-66970000D02*
X134870000Y-66970000D01*
X132270000Y-69630000D02*
X134870000Y-69630000D01*
X134870000Y-69630000D02*
X134870000Y-66970000D01*
%TO.C,D1*%
X154525000Y-66050000D02*
X149125000Y-66050000D01*
X154525000Y-62750000D02*
X149125000Y-62750000D01*
X154525000Y-66050000D02*
X154525000Y-62750000D01*
%TO.C,C6*%
X158615000Y-101154420D02*
X158615000Y-101435580D01*
X159635000Y-101154420D02*
X159635000Y-101435580D01*
%TO.C,C5*%
X158615000Y-94811920D02*
X158615000Y-95093080D01*
X159635000Y-94811920D02*
X159635000Y-95093080D01*
%TO.C,J4*%
D11*
X126852380Y-74758333D02*
X127566666Y-74758333D01*
X127709523Y-74805952D01*
X127804761Y-74901190D01*
X127852380Y-75044047D01*
X127852380Y-75139285D01*
X127185714Y-73853571D02*
X127852380Y-73853571D01*
X126804761Y-74091666D02*
X127519047Y-74329761D01*
X127519047Y-73710714D01*
%TO.C,R4*%
X146027380Y-95119166D02*
X145551190Y-95452500D01*
X146027380Y-95690595D02*
X145027380Y-95690595D01*
X145027380Y-95309642D01*
X145075000Y-95214404D01*
X145122619Y-95166785D01*
X145217857Y-95119166D01*
X145360714Y-95119166D01*
X145455952Y-95166785D01*
X145503571Y-95214404D01*
X145551190Y-95309642D01*
X145551190Y-95690595D01*
X145360714Y-94262023D02*
X146027380Y-94262023D01*
X144979761Y-94500119D02*
X145694047Y-94738214D01*
X145694047Y-94119166D01*
%TO.C,C1*%
X148188333Y-69582142D02*
X148140714Y-69629761D01*
X147997857Y-69677380D01*
X147902619Y-69677380D01*
X147759761Y-69629761D01*
X147664523Y-69534523D01*
X147616904Y-69439285D01*
X147569285Y-69248809D01*
X147569285Y-69105952D01*
X147616904Y-68915476D01*
X147664523Y-68820238D01*
X147759761Y-68725000D01*
X147902619Y-68677380D01*
X147997857Y-68677380D01*
X148140714Y-68725000D01*
X148188333Y-68772619D01*
X149140714Y-69677380D02*
X148569285Y-69677380D01*
X148855000Y-69677380D02*
X148855000Y-68677380D01*
X148759761Y-68820238D01*
X148664523Y-68915476D01*
X148569285Y-68963095D01*
%TO.C,C2*%
X135657142Y-95916666D02*
X135704761Y-95964285D01*
X135752380Y-96107142D01*
X135752380Y-96202380D01*
X135704761Y-96345238D01*
X135609523Y-96440476D01*
X135514285Y-96488095D01*
X135323809Y-96535714D01*
X135180952Y-96535714D01*
X134990476Y-96488095D01*
X134895238Y-96440476D01*
X134800000Y-96345238D01*
X134752380Y-96202380D01*
X134752380Y-96107142D01*
X134800000Y-95964285D01*
X134847619Y-95916666D01*
X134847619Y-95535714D02*
X134800000Y-95488095D01*
X134752380Y-95392857D01*
X134752380Y-95154761D01*
X134800000Y-95059523D01*
X134847619Y-95011904D01*
X134942857Y-94964285D01*
X135038095Y-94964285D01*
X135180952Y-95011904D01*
X135752380Y-95583333D01*
X135752380Y-94964285D01*
%TO.C,C3*%
X150608333Y-69577142D02*
X150560714Y-69624761D01*
X150417857Y-69672380D01*
X150322619Y-69672380D01*
X150179761Y-69624761D01*
X150084523Y-69529523D01*
X150036904Y-69434285D01*
X149989285Y-69243809D01*
X149989285Y-69100952D01*
X150036904Y-68910476D01*
X150084523Y-68815238D01*
X150179761Y-68720000D01*
X150322619Y-68672380D01*
X150417857Y-68672380D01*
X150560714Y-68720000D01*
X150608333Y-68767619D01*
X150941666Y-68672380D02*
X151560714Y-68672380D01*
X151227380Y-69053333D01*
X151370238Y-69053333D01*
X151465476Y-69100952D01*
X151513095Y-69148571D01*
X151560714Y-69243809D01*
X151560714Y-69481904D01*
X151513095Y-69577142D01*
X151465476Y-69624761D01*
X151370238Y-69672380D01*
X151084523Y-69672380D01*
X150989285Y-69624761D01*
X150941666Y-69577142D01*
%TO.C,C4*%
X153283333Y-69582142D02*
X153235714Y-69629761D01*
X153092857Y-69677380D01*
X152997619Y-69677380D01*
X152854761Y-69629761D01*
X152759523Y-69534523D01*
X152711904Y-69439285D01*
X152664285Y-69248809D01*
X152664285Y-69105952D01*
X152711904Y-68915476D01*
X152759523Y-68820238D01*
X152854761Y-68725000D01*
X152997619Y-68677380D01*
X153092857Y-68677380D01*
X153235714Y-68725000D01*
X153283333Y-68772619D01*
X154140476Y-69010714D02*
X154140476Y-69677380D01*
X153902380Y-68629761D02*
X153664285Y-69344047D01*
X154283333Y-69344047D01*
%TO.C,U1*%
X146077380Y-57311904D02*
X146886904Y-57311904D01*
X146982142Y-57264285D01*
X147029761Y-57216666D01*
X147077380Y-57121428D01*
X147077380Y-56930952D01*
X147029761Y-56835714D01*
X146982142Y-56788095D01*
X146886904Y-56740476D01*
X146077380Y-56740476D01*
X147077380Y-55740476D02*
X147077380Y-56311904D01*
X147077380Y-56026190D02*
X146077380Y-56026190D01*
X146220238Y-56121428D01*
X146315476Y-56216666D01*
X146363095Y-56311904D01*
%TO.C,U2*%
X149238095Y-76037380D02*
X149238095Y-76846904D01*
X149285714Y-76942142D01*
X149333333Y-76989761D01*
X149428571Y-77037380D01*
X149619047Y-77037380D01*
X149714285Y-76989761D01*
X149761904Y-76942142D01*
X149809523Y-76846904D01*
X149809523Y-76037380D01*
X150238095Y-76132619D02*
X150285714Y-76085000D01*
X150380952Y-76037380D01*
X150619047Y-76037380D01*
X150714285Y-76085000D01*
X150761904Y-76132619D01*
X150809523Y-76227857D01*
X150809523Y-76323095D01*
X150761904Y-76465952D01*
X150190476Y-77037380D01*
X150809523Y-77037380D01*
%TO.C,J3*%
X167052380Y-71683333D02*
X167766666Y-71683333D01*
X167909523Y-71730952D01*
X168004761Y-71826190D01*
X168052380Y-71969047D01*
X168052380Y-72064285D01*
X167052380Y-71302380D02*
X167052380Y-70683333D01*
X167433333Y-71016666D01*
X167433333Y-70873809D01*
X167480952Y-70778571D01*
X167528571Y-70730952D01*
X167623809Y-70683333D01*
X167861904Y-70683333D01*
X167957142Y-70730952D01*
X168004761Y-70778571D01*
X168052380Y-70873809D01*
X168052380Y-71159523D01*
X168004761Y-71254761D01*
X167957142Y-71302380D01*
%TO.C,SW2*%
X149616666Y-107254761D02*
X149759523Y-107302380D01*
X149997619Y-107302380D01*
X150092857Y-107254761D01*
X150140476Y-107207142D01*
X150188095Y-107111904D01*
X150188095Y-107016666D01*
X150140476Y-106921428D01*
X150092857Y-106873809D01*
X149997619Y-106826190D01*
X149807142Y-106778571D01*
X149711904Y-106730952D01*
X149664285Y-106683333D01*
X149616666Y-106588095D01*
X149616666Y-106492857D01*
X149664285Y-106397619D01*
X149711904Y-106350000D01*
X149807142Y-106302380D01*
X150045238Y-106302380D01*
X150188095Y-106350000D01*
X150521428Y-106302380D02*
X150759523Y-107302380D01*
X150950000Y-106588095D01*
X151140476Y-107302380D01*
X151378571Y-106302380D01*
X151711904Y-106397619D02*
X151759523Y-106350000D01*
X151854761Y-106302380D01*
X152092857Y-106302380D01*
X152188095Y-106350000D01*
X152235714Y-106397619D01*
X152283333Y-106492857D01*
X152283333Y-106588095D01*
X152235714Y-106730952D01*
X151664285Y-107302380D01*
X152283333Y-107302380D01*
%TO.C,SW1*%
X112916666Y-107254761D02*
X113059523Y-107302380D01*
X113297619Y-107302380D01*
X113392857Y-107254761D01*
X113440476Y-107207142D01*
X113488095Y-107111904D01*
X113488095Y-107016666D01*
X113440476Y-106921428D01*
X113392857Y-106873809D01*
X113297619Y-106826190D01*
X113107142Y-106778571D01*
X113011904Y-106730952D01*
X112964285Y-106683333D01*
X112916666Y-106588095D01*
X112916666Y-106492857D01*
X112964285Y-106397619D01*
X113011904Y-106350000D01*
X113107142Y-106302380D01*
X113345238Y-106302380D01*
X113488095Y-106350000D01*
X113821428Y-106302380D02*
X114059523Y-107302380D01*
X114250000Y-106588095D01*
X114440476Y-107302380D01*
X114678571Y-106302380D01*
X115583333Y-107302380D02*
X115011904Y-107302380D01*
X115297619Y-107302380D02*
X115297619Y-106302380D01*
X115202380Y-106445238D01*
X115107142Y-106540476D01*
X115011904Y-106588095D01*
%TO.C,R10*%
X107952380Y-89227857D02*
X107476190Y-89561190D01*
X107952380Y-89799285D02*
X106952380Y-89799285D01*
X106952380Y-89418333D01*
X107000000Y-89323095D01*
X107047619Y-89275476D01*
X107142857Y-89227857D01*
X107285714Y-89227857D01*
X107380952Y-89275476D01*
X107428571Y-89323095D01*
X107476190Y-89418333D01*
X107476190Y-89799285D01*
X107952380Y-88275476D02*
X107952380Y-88846904D01*
X107952380Y-88561190D02*
X106952380Y-88561190D01*
X107095238Y-88656428D01*
X107190476Y-88751666D01*
X107238095Y-88846904D01*
X106952380Y-87656428D02*
X106952380Y-87561190D01*
X107000000Y-87465952D01*
X107047619Y-87418333D01*
X107142857Y-87370714D01*
X107333333Y-87323095D01*
X107571428Y-87323095D01*
X107761904Y-87370714D01*
X107857142Y-87418333D01*
X107904761Y-87465952D01*
X107952380Y-87561190D01*
X107952380Y-87656428D01*
X107904761Y-87751666D01*
X107857142Y-87799285D01*
X107761904Y-87846904D01*
X107571428Y-87894523D01*
X107333333Y-87894523D01*
X107142857Y-87846904D01*
X107047619Y-87799285D01*
X107000000Y-87751666D01*
X106952380Y-87656428D01*
%TO.C,C7*%
X141882142Y-88776666D02*
X141929761Y-88824285D01*
X141977380Y-88967142D01*
X141977380Y-89062380D01*
X141929761Y-89205238D01*
X141834523Y-89300476D01*
X141739285Y-89348095D01*
X141548809Y-89395714D01*
X141405952Y-89395714D01*
X141215476Y-89348095D01*
X141120238Y-89300476D01*
X141025000Y-89205238D01*
X140977380Y-89062380D01*
X140977380Y-88967142D01*
X141025000Y-88824285D01*
X141072619Y-88776666D01*
X140977380Y-88443333D02*
X140977380Y-87776666D01*
X141977380Y-88205238D01*
%TO.C,C8*%
X141882142Y-101416666D02*
X141929761Y-101464285D01*
X141977380Y-101607142D01*
X141977380Y-101702380D01*
X141929761Y-101845238D01*
X141834523Y-101940476D01*
X141739285Y-101988095D01*
X141548809Y-102035714D01*
X141405952Y-102035714D01*
X141215476Y-101988095D01*
X141120238Y-101940476D01*
X141025000Y-101845238D01*
X140977380Y-101702380D01*
X140977380Y-101607142D01*
X141025000Y-101464285D01*
X141072619Y-101416666D01*
X141405952Y-100845238D02*
X141358333Y-100940476D01*
X141310714Y-100988095D01*
X141215476Y-101035714D01*
X141167857Y-101035714D01*
X141072619Y-100988095D01*
X141025000Y-100940476D01*
X140977380Y-100845238D01*
X140977380Y-100654761D01*
X141025000Y-100559523D01*
X141072619Y-100511904D01*
X141167857Y-100464285D01*
X141215476Y-100464285D01*
X141310714Y-100511904D01*
X141358333Y-100559523D01*
X141405952Y-100654761D01*
X141405952Y-100845238D01*
X141453571Y-100940476D01*
X141501190Y-100988095D01*
X141596428Y-101035714D01*
X141786904Y-101035714D01*
X141882142Y-100988095D01*
X141929761Y-100940476D01*
X141977380Y-100845238D01*
X141977380Y-100654761D01*
X141929761Y-100559523D01*
X141882142Y-100511904D01*
X141786904Y-100464285D01*
X141596428Y-100464285D01*
X141501190Y-100511904D01*
X141453571Y-100559523D01*
X141405952Y-100654761D01*
%TO.C,C9*%
X164832142Y-95139166D02*
X164879761Y-95186785D01*
X164927380Y-95329642D01*
X164927380Y-95424880D01*
X164879761Y-95567738D01*
X164784523Y-95662976D01*
X164689285Y-95710595D01*
X164498809Y-95758214D01*
X164355952Y-95758214D01*
X164165476Y-95710595D01*
X164070238Y-95662976D01*
X163975000Y-95567738D01*
X163927380Y-95424880D01*
X163927380Y-95329642D01*
X163975000Y-95186785D01*
X164022619Y-95139166D01*
X164927380Y-94662976D02*
X164927380Y-94472500D01*
X164879761Y-94377261D01*
X164832142Y-94329642D01*
X164689285Y-94234404D01*
X164498809Y-94186785D01*
X164117857Y-94186785D01*
X164022619Y-94234404D01*
X163975000Y-94282023D01*
X163927380Y-94377261D01*
X163927380Y-94567738D01*
X163975000Y-94662976D01*
X164022619Y-94710595D01*
X164117857Y-94758214D01*
X164355952Y-94758214D01*
X164451190Y-94710595D01*
X164498809Y-94662976D01*
X164546428Y-94567738D01*
X164546428Y-94377261D01*
X164498809Y-94282023D01*
X164451190Y-94234404D01*
X164355952Y-94186785D01*
%TO.C,C10*%
X112157142Y-89252857D02*
X112204761Y-89300476D01*
X112252380Y-89443333D01*
X112252380Y-89538571D01*
X112204761Y-89681428D01*
X112109523Y-89776666D01*
X112014285Y-89824285D01*
X111823809Y-89871904D01*
X111680952Y-89871904D01*
X111490476Y-89824285D01*
X111395238Y-89776666D01*
X111300000Y-89681428D01*
X111252380Y-89538571D01*
X111252380Y-89443333D01*
X111300000Y-89300476D01*
X111347619Y-89252857D01*
X112252380Y-88300476D02*
X112252380Y-88871904D01*
X112252380Y-88586190D02*
X111252380Y-88586190D01*
X111395238Y-88681428D01*
X111490476Y-88776666D01*
X111538095Y-88871904D01*
X111252380Y-87681428D02*
X111252380Y-87586190D01*
X111300000Y-87490952D01*
X111347619Y-87443333D01*
X111442857Y-87395714D01*
X111633333Y-87348095D01*
X111871428Y-87348095D01*
X112061904Y-87395714D01*
X112157142Y-87443333D01*
X112204761Y-87490952D01*
X112252380Y-87586190D01*
X112252380Y-87681428D01*
X112204761Y-87776666D01*
X112157142Y-87824285D01*
X112061904Y-87871904D01*
X111871428Y-87919523D01*
X111633333Y-87919523D01*
X111442857Y-87871904D01*
X111347619Y-87824285D01*
X111300000Y-87776666D01*
X111252380Y-87681428D01*
%TO.C,C11*%
X116357142Y-95620357D02*
X116404761Y-95667976D01*
X116452380Y-95810833D01*
X116452380Y-95906071D01*
X116404761Y-96048928D01*
X116309523Y-96144166D01*
X116214285Y-96191785D01*
X116023809Y-96239404D01*
X115880952Y-96239404D01*
X115690476Y-96191785D01*
X115595238Y-96144166D01*
X115500000Y-96048928D01*
X115452380Y-95906071D01*
X115452380Y-95810833D01*
X115500000Y-95667976D01*
X115547619Y-95620357D01*
X116452380Y-94667976D02*
X116452380Y-95239404D01*
X116452380Y-94953690D02*
X115452380Y-94953690D01*
X115595238Y-95048928D01*
X115690476Y-95144166D01*
X115738095Y-95239404D01*
X116452380Y-93715595D02*
X116452380Y-94287023D01*
X116452380Y-94001309D02*
X115452380Y-94001309D01*
X115595238Y-94096547D01*
X115690476Y-94191785D01*
X115738095Y-94287023D01*
%TO.C,C12*%
X112157142Y-101937857D02*
X112204761Y-101985476D01*
X112252380Y-102128333D01*
X112252380Y-102223571D01*
X112204761Y-102366428D01*
X112109523Y-102461666D01*
X112014285Y-102509285D01*
X111823809Y-102556904D01*
X111680952Y-102556904D01*
X111490476Y-102509285D01*
X111395238Y-102461666D01*
X111300000Y-102366428D01*
X111252380Y-102223571D01*
X111252380Y-102128333D01*
X111300000Y-101985476D01*
X111347619Y-101937857D01*
X112252380Y-100985476D02*
X112252380Y-101556904D01*
X112252380Y-101271190D02*
X111252380Y-101271190D01*
X111395238Y-101366428D01*
X111490476Y-101461666D01*
X111538095Y-101556904D01*
X111347619Y-100604523D02*
X111300000Y-100556904D01*
X111252380Y-100461666D01*
X111252380Y-100223571D01*
X111300000Y-100128333D01*
X111347619Y-100080714D01*
X111442857Y-100033095D01*
X111538095Y-100033095D01*
X111680952Y-100080714D01*
X112252380Y-100652142D01*
X112252380Y-100033095D01*
%TO.C,C13*%
X135657142Y-101542857D02*
X135704761Y-101590476D01*
X135752380Y-101733333D01*
X135752380Y-101828571D01*
X135704761Y-101971428D01*
X135609523Y-102066666D01*
X135514285Y-102114285D01*
X135323809Y-102161904D01*
X135180952Y-102161904D01*
X134990476Y-102114285D01*
X134895238Y-102066666D01*
X134800000Y-101971428D01*
X134752380Y-101828571D01*
X134752380Y-101733333D01*
X134800000Y-101590476D01*
X134847619Y-101542857D01*
X135752380Y-100590476D02*
X135752380Y-101161904D01*
X135752380Y-100876190D02*
X134752380Y-100876190D01*
X134895238Y-100971428D01*
X134990476Y-101066666D01*
X135038095Y-101161904D01*
X134752380Y-100257142D02*
X134752380Y-99638095D01*
X135133333Y-99971428D01*
X135133333Y-99828571D01*
X135180952Y-99733333D01*
X135228571Y-99685714D01*
X135323809Y-99638095D01*
X135561904Y-99638095D01*
X135657142Y-99685714D01*
X135704761Y-99733333D01*
X135752380Y-99828571D01*
X135752380Y-100114285D01*
X135704761Y-100209523D01*
X135657142Y-100257142D01*
%TO.C,C14*%
X116357142Y-101937857D02*
X116404761Y-101985476D01*
X116452380Y-102128333D01*
X116452380Y-102223571D01*
X116404761Y-102366428D01*
X116309523Y-102461666D01*
X116214285Y-102509285D01*
X116023809Y-102556904D01*
X115880952Y-102556904D01*
X115690476Y-102509285D01*
X115595238Y-102461666D01*
X115500000Y-102366428D01*
X115452380Y-102223571D01*
X115452380Y-102128333D01*
X115500000Y-101985476D01*
X115547619Y-101937857D01*
X116452380Y-100985476D02*
X116452380Y-101556904D01*
X116452380Y-101271190D02*
X115452380Y-101271190D01*
X115595238Y-101366428D01*
X115690476Y-101461666D01*
X115738095Y-101556904D01*
X115785714Y-100128333D02*
X116452380Y-100128333D01*
X115404761Y-100366428D02*
X116119047Y-100604523D01*
X116119047Y-99985476D01*
%TO.C,D4*%
X161257380Y-89373095D02*
X160257380Y-89373095D01*
X160257380Y-89135000D01*
X160305000Y-88992142D01*
X160400238Y-88896904D01*
X160495476Y-88849285D01*
X160685952Y-88801666D01*
X160828809Y-88801666D01*
X161019285Y-88849285D01*
X161114523Y-88896904D01*
X161209761Y-88992142D01*
X161257380Y-89135000D01*
X161257380Y-89373095D01*
X160590714Y-87944523D02*
X161257380Y-87944523D01*
X160209761Y-88182619D02*
X160924047Y-88420714D01*
X160924047Y-87801666D01*
%TO.C,D5*%
X151577380Y-93013095D02*
X150577380Y-93013095D01*
X150577380Y-92775000D01*
X150625000Y-92632142D01*
X150720238Y-92536904D01*
X150815476Y-92489285D01*
X151005952Y-92441666D01*
X151148809Y-92441666D01*
X151339285Y-92489285D01*
X151434523Y-92536904D01*
X151529761Y-92632142D01*
X151577380Y-92775000D01*
X151577380Y-93013095D01*
X150577380Y-91536904D02*
X150577380Y-92013095D01*
X151053571Y-92060714D01*
X151005952Y-92013095D01*
X150958333Y-91917857D01*
X150958333Y-91679761D01*
X151005952Y-91584523D01*
X151053571Y-91536904D01*
X151148809Y-91489285D01*
X151386904Y-91489285D01*
X151482142Y-91536904D01*
X151529761Y-91584523D01*
X151577380Y-91679761D01*
X151577380Y-91917857D01*
X151529761Y-92013095D01*
X151482142Y-92060714D01*
%TO.C,D6*%
X156322380Y-92983095D02*
X155322380Y-92983095D01*
X155322380Y-92745000D01*
X155370000Y-92602142D01*
X155465238Y-92506904D01*
X155560476Y-92459285D01*
X155750952Y-92411666D01*
X155893809Y-92411666D01*
X156084285Y-92459285D01*
X156179523Y-92506904D01*
X156274761Y-92602142D01*
X156322380Y-92745000D01*
X156322380Y-92983095D01*
X155322380Y-91554523D02*
X155322380Y-91745000D01*
X155370000Y-91840238D01*
X155417619Y-91887857D01*
X155560476Y-91983095D01*
X155750952Y-92030714D01*
X156131904Y-92030714D01*
X156227142Y-91983095D01*
X156274761Y-91935476D01*
X156322380Y-91840238D01*
X156322380Y-91649761D01*
X156274761Y-91554523D01*
X156227142Y-91506904D01*
X156131904Y-91459285D01*
X155893809Y-91459285D01*
X155798571Y-91506904D01*
X155750952Y-91554523D01*
X155703333Y-91649761D01*
X155703333Y-91840238D01*
X155750952Y-91935476D01*
X155798571Y-91983095D01*
X155893809Y-92030714D01*
%TO.C,R3*%
X146027380Y-88776666D02*
X145551190Y-89110000D01*
X146027380Y-89348095D02*
X145027380Y-89348095D01*
X145027380Y-88967142D01*
X145075000Y-88871904D01*
X145122619Y-88824285D01*
X145217857Y-88776666D01*
X145360714Y-88776666D01*
X145455952Y-88824285D01*
X145503571Y-88871904D01*
X145551190Y-88967142D01*
X145551190Y-89348095D01*
X145027380Y-88443333D02*
X145027380Y-87824285D01*
X145408333Y-88157619D01*
X145408333Y-88014761D01*
X145455952Y-87919523D01*
X145503571Y-87871904D01*
X145598809Y-87824285D01*
X145836904Y-87824285D01*
X145932142Y-87871904D01*
X145979761Y-87919523D01*
X146027380Y-88014761D01*
X146027380Y-88300476D01*
X145979761Y-88395714D01*
X145932142Y-88443333D01*
%TO.C,R5*%
X146027380Y-101461666D02*
X145551190Y-101795000D01*
X146027380Y-102033095D02*
X145027380Y-102033095D01*
X145027380Y-101652142D01*
X145075000Y-101556904D01*
X145122619Y-101509285D01*
X145217857Y-101461666D01*
X145360714Y-101461666D01*
X145455952Y-101509285D01*
X145503571Y-101556904D01*
X145551190Y-101652142D01*
X145551190Y-102033095D01*
X145027380Y-100556904D02*
X145027380Y-101033095D01*
X145503571Y-101080714D01*
X145455952Y-101033095D01*
X145408333Y-100937857D01*
X145408333Y-100699761D01*
X145455952Y-100604523D01*
X145503571Y-100556904D01*
X145598809Y-100509285D01*
X145836904Y-100509285D01*
X145932142Y-100556904D01*
X145979761Y-100604523D01*
X146027380Y-100699761D01*
X146027380Y-100937857D01*
X145979761Y-101033095D01*
X145932142Y-101080714D01*
%TO.C,R7*%
X164927380Y-88801666D02*
X164451190Y-89135000D01*
X164927380Y-89373095D02*
X163927380Y-89373095D01*
X163927380Y-88992142D01*
X163975000Y-88896904D01*
X164022619Y-88849285D01*
X164117857Y-88801666D01*
X164260714Y-88801666D01*
X164355952Y-88849285D01*
X164403571Y-88896904D01*
X164451190Y-88992142D01*
X164451190Y-89373095D01*
X163927380Y-88468333D02*
X163927380Y-87801666D01*
X164927380Y-88230238D01*
%TO.C,R8*%
X116452380Y-88776666D02*
X115976190Y-89110000D01*
X116452380Y-89348095D02*
X115452380Y-89348095D01*
X115452380Y-88967142D01*
X115500000Y-88871904D01*
X115547619Y-88824285D01*
X115642857Y-88776666D01*
X115785714Y-88776666D01*
X115880952Y-88824285D01*
X115928571Y-88871904D01*
X115976190Y-88967142D01*
X115976190Y-89348095D01*
X115880952Y-88205238D02*
X115833333Y-88300476D01*
X115785714Y-88348095D01*
X115690476Y-88395714D01*
X115642857Y-88395714D01*
X115547619Y-88348095D01*
X115500000Y-88300476D01*
X115452380Y-88205238D01*
X115452380Y-88014761D01*
X115500000Y-87919523D01*
X115547619Y-87871904D01*
X115642857Y-87824285D01*
X115690476Y-87824285D01*
X115785714Y-87871904D01*
X115833333Y-87919523D01*
X115880952Y-88014761D01*
X115880952Y-88205238D01*
X115928571Y-88300476D01*
X115976190Y-88348095D01*
X116071428Y-88395714D01*
X116261904Y-88395714D01*
X116357142Y-88348095D01*
X116404761Y-88300476D01*
X116452380Y-88205238D01*
X116452380Y-88014761D01*
X116404761Y-87919523D01*
X116357142Y-87871904D01*
X116261904Y-87824285D01*
X116071428Y-87824285D01*
X115976190Y-87871904D01*
X115928571Y-87919523D01*
X115880952Y-88014761D01*
%TO.C,R9*%
X112252380Y-95119166D02*
X111776190Y-95452500D01*
X112252380Y-95690595D02*
X111252380Y-95690595D01*
X111252380Y-95309642D01*
X111300000Y-95214404D01*
X111347619Y-95166785D01*
X111442857Y-95119166D01*
X111585714Y-95119166D01*
X111680952Y-95166785D01*
X111728571Y-95214404D01*
X111776190Y-95309642D01*
X111776190Y-95690595D01*
X112252380Y-94642976D02*
X112252380Y-94452500D01*
X112204761Y-94357261D01*
X112157142Y-94309642D01*
X112014285Y-94214404D01*
X111823809Y-94166785D01*
X111442857Y-94166785D01*
X111347619Y-94214404D01*
X111300000Y-94262023D01*
X111252380Y-94357261D01*
X111252380Y-94547738D01*
X111300000Y-94642976D01*
X111347619Y-94690595D01*
X111442857Y-94738214D01*
X111680952Y-94738214D01*
X111776190Y-94690595D01*
X111823809Y-94642976D01*
X111871428Y-94547738D01*
X111871428Y-94357261D01*
X111823809Y-94262023D01*
X111776190Y-94214404D01*
X111680952Y-94166785D01*
%TO.C,R11*%
X107952380Y-95570357D02*
X107476190Y-95903690D01*
X107952380Y-96141785D02*
X106952380Y-96141785D01*
X106952380Y-95760833D01*
X107000000Y-95665595D01*
X107047619Y-95617976D01*
X107142857Y-95570357D01*
X107285714Y-95570357D01*
X107380952Y-95617976D01*
X107428571Y-95665595D01*
X107476190Y-95760833D01*
X107476190Y-96141785D01*
X107952380Y-94617976D02*
X107952380Y-95189404D01*
X107952380Y-94903690D02*
X106952380Y-94903690D01*
X107095238Y-94998928D01*
X107190476Y-95094166D01*
X107238095Y-95189404D01*
X107952380Y-93665595D02*
X107952380Y-94237023D01*
X107952380Y-93951309D02*
X106952380Y-93951309D01*
X107095238Y-94046547D01*
X107190476Y-94141785D01*
X107238095Y-94237023D01*
%TO.C,R12*%
X107952380Y-101937857D02*
X107476190Y-102271190D01*
X107952380Y-102509285D02*
X106952380Y-102509285D01*
X106952380Y-102128333D01*
X107000000Y-102033095D01*
X107047619Y-101985476D01*
X107142857Y-101937857D01*
X107285714Y-101937857D01*
X107380952Y-101985476D01*
X107428571Y-102033095D01*
X107476190Y-102128333D01*
X107476190Y-102509285D01*
X107952380Y-100985476D02*
X107952380Y-101556904D01*
X107952380Y-101271190D02*
X106952380Y-101271190D01*
X107095238Y-101366428D01*
X107190476Y-101461666D01*
X107238095Y-101556904D01*
X107047619Y-100604523D02*
X107000000Y-100556904D01*
X106952380Y-100461666D01*
X106952380Y-100223571D01*
X107000000Y-100128333D01*
X107047619Y-100080714D01*
X107142857Y-100033095D01*
X107238095Y-100033095D01*
X107380952Y-100080714D01*
X107952380Y-100652142D01*
X107952380Y-100033095D01*
%TO.C,R13*%
X141977380Y-95595357D02*
X141501190Y-95928690D01*
X141977380Y-96166785D02*
X140977380Y-96166785D01*
X140977380Y-95785833D01*
X141025000Y-95690595D01*
X141072619Y-95642976D01*
X141167857Y-95595357D01*
X141310714Y-95595357D01*
X141405952Y-95642976D01*
X141453571Y-95690595D01*
X141501190Y-95785833D01*
X141501190Y-96166785D01*
X141977380Y-94642976D02*
X141977380Y-95214404D01*
X141977380Y-94928690D02*
X140977380Y-94928690D01*
X141120238Y-95023928D01*
X141215476Y-95119166D01*
X141263095Y-95214404D01*
X140977380Y-94309642D02*
X140977380Y-93690595D01*
X141358333Y-94023928D01*
X141358333Y-93881071D01*
X141405952Y-93785833D01*
X141453571Y-93738214D01*
X141548809Y-93690595D01*
X141786904Y-93690595D01*
X141882142Y-93738214D01*
X141929761Y-93785833D01*
X141977380Y-93881071D01*
X141977380Y-94166785D01*
X141929761Y-94262023D01*
X141882142Y-94309642D01*
%TO.C,R14*%
X151027380Y-101967857D02*
X150551190Y-102301190D01*
X151027380Y-102539285D02*
X150027380Y-102539285D01*
X150027380Y-102158333D01*
X150075000Y-102063095D01*
X150122619Y-102015476D01*
X150217857Y-101967857D01*
X150360714Y-101967857D01*
X150455952Y-102015476D01*
X150503571Y-102063095D01*
X150551190Y-102158333D01*
X150551190Y-102539285D01*
X151027380Y-101015476D02*
X151027380Y-101586904D01*
X151027380Y-101301190D02*
X150027380Y-101301190D01*
X150170238Y-101396428D01*
X150265476Y-101491666D01*
X150313095Y-101586904D01*
X150360714Y-100158333D02*
X151027380Y-100158333D01*
X149979761Y-100396428D02*
X150694047Y-100634523D01*
X150694047Y-100015476D01*
%TO.C,U5*%
X132713095Y-92732380D02*
X132713095Y-93541904D01*
X132760714Y-93637142D01*
X132808333Y-93684761D01*
X132903571Y-93732380D01*
X133094047Y-93732380D01*
X133189285Y-93684761D01*
X133236904Y-93637142D01*
X133284523Y-93541904D01*
X133284523Y-92732380D01*
X134236904Y-92732380D02*
X133760714Y-92732380D01*
X133713095Y-93208571D01*
X133760714Y-93160952D01*
X133855952Y-93113333D01*
X134094047Y-93113333D01*
X134189285Y-93160952D01*
X134236904Y-93208571D01*
X134284523Y-93303809D01*
X134284523Y-93541904D01*
X134236904Y-93637142D01*
X134189285Y-93684761D01*
X134094047Y-93732380D01*
X133855952Y-93732380D01*
X133760714Y-93684761D01*
X133713095Y-93637142D01*
%TO.C,D3*%
X166741904Y-111477380D02*
X166741904Y-110477380D01*
X166980000Y-110477380D01*
X167122857Y-110525000D01*
X167218095Y-110620238D01*
X167265714Y-110715476D01*
X167313333Y-110905952D01*
X167313333Y-111048809D01*
X167265714Y-111239285D01*
X167218095Y-111334523D01*
X167122857Y-111429761D01*
X166980000Y-111477380D01*
X166741904Y-111477380D01*
X167646666Y-110477380D02*
X168265714Y-110477380D01*
X167932380Y-110858333D01*
X168075238Y-110858333D01*
X168170476Y-110905952D01*
X168218095Y-110953571D01*
X168265714Y-111048809D01*
X168265714Y-111286904D01*
X168218095Y-111382142D01*
X168170476Y-111429761D01*
X168075238Y-111477380D01*
X167789523Y-111477380D01*
X167694285Y-111429761D01*
X167646666Y-111382142D01*
%TO.C,D2*%
X96741904Y-111477380D02*
X96741904Y-110477380D01*
X96980000Y-110477380D01*
X97122857Y-110525000D01*
X97218095Y-110620238D01*
X97265714Y-110715476D01*
X97313333Y-110905952D01*
X97313333Y-111048809D01*
X97265714Y-111239285D01*
X97218095Y-111334523D01*
X97122857Y-111429761D01*
X96980000Y-111477380D01*
X96741904Y-111477380D01*
X97694285Y-110572619D02*
X97741904Y-110525000D01*
X97837142Y-110477380D01*
X98075238Y-110477380D01*
X98170476Y-110525000D01*
X98218095Y-110572619D01*
X98265714Y-110667857D01*
X98265714Y-110763095D01*
X98218095Y-110905952D01*
X97646666Y-111477380D01*
X98265714Y-111477380D01*
%TO.C,U4*%
X170330595Y-81627380D02*
X170330595Y-82436904D01*
X170378214Y-82532142D01*
X170425833Y-82579761D01*
X170521071Y-82627380D01*
X170711547Y-82627380D01*
X170806785Y-82579761D01*
X170854404Y-82532142D01*
X170902023Y-82436904D01*
X170902023Y-81627380D01*
X171806785Y-81960714D02*
X171806785Y-82627380D01*
X171568690Y-81579761D02*
X171330595Y-82294047D01*
X171949642Y-82294047D01*
%TO.C,U3*%
X113088095Y-69052380D02*
X113088095Y-69861904D01*
X113135714Y-69957142D01*
X113183333Y-70004761D01*
X113278571Y-70052380D01*
X113469047Y-70052380D01*
X113564285Y-70004761D01*
X113611904Y-69957142D01*
X113659523Y-69861904D01*
X113659523Y-69052380D01*
X114040476Y-69052380D02*
X114659523Y-69052380D01*
X114326190Y-69433333D01*
X114469047Y-69433333D01*
X114564285Y-69480952D01*
X114611904Y-69528571D01*
X114659523Y-69623809D01*
X114659523Y-69861904D01*
X114611904Y-69957142D01*
X114564285Y-70004761D01*
X114469047Y-70052380D01*
X114183333Y-70052380D01*
X114088095Y-70004761D01*
X114040476Y-69957142D01*
%TO.C,R2*%
X164927380Y-101461666D02*
X164451190Y-101795000D01*
X164927380Y-102033095D02*
X163927380Y-102033095D01*
X163927380Y-101652142D01*
X163975000Y-101556904D01*
X164022619Y-101509285D01*
X164117857Y-101461666D01*
X164260714Y-101461666D01*
X164355952Y-101509285D01*
X164403571Y-101556904D01*
X164451190Y-101652142D01*
X164451190Y-102033095D01*
X164022619Y-101080714D02*
X163975000Y-101033095D01*
X163927380Y-100937857D01*
X163927380Y-100699761D01*
X163975000Y-100604523D01*
X164022619Y-100556904D01*
X164117857Y-100509285D01*
X164213095Y-100509285D01*
X164355952Y-100556904D01*
X164927380Y-101128333D01*
X164927380Y-100509285D01*
%TO.C,R1*%
X155827380Y-101461666D02*
X155351190Y-101795000D01*
X155827380Y-102033095D02*
X154827380Y-102033095D01*
X154827380Y-101652142D01*
X154875000Y-101556904D01*
X154922619Y-101509285D01*
X155017857Y-101461666D01*
X155160714Y-101461666D01*
X155255952Y-101509285D01*
X155303571Y-101556904D01*
X155351190Y-101652142D01*
X155351190Y-102033095D01*
X155827380Y-100509285D02*
X155827380Y-101080714D01*
X155827380Y-100795000D02*
X154827380Y-100795000D01*
X154970238Y-100890238D01*
X155065476Y-100985476D01*
X155113095Y-101080714D01*
%TO.C,K3*%
X123377380Y-95713095D02*
X122377380Y-95713095D01*
X123377380Y-95141666D02*
X122805952Y-95570238D01*
X122377380Y-95141666D02*
X122948809Y-95713095D01*
X122377380Y-94808333D02*
X122377380Y-94189285D01*
X122758333Y-94522619D01*
X122758333Y-94379761D01*
X122805952Y-94284523D01*
X122853571Y-94236904D01*
X122948809Y-94189285D01*
X123186904Y-94189285D01*
X123282142Y-94236904D01*
X123329761Y-94284523D01*
X123377380Y-94379761D01*
X123377380Y-94665476D01*
X123329761Y-94760714D01*
X123282142Y-94808333D01*
%TO.C,K2*%
X171577380Y-95713095D02*
X170577380Y-95713095D01*
X171577380Y-95141666D02*
X171005952Y-95570238D01*
X170577380Y-95141666D02*
X171148809Y-95713095D01*
X170672619Y-94760714D02*
X170625000Y-94713095D01*
X170577380Y-94617857D01*
X170577380Y-94379761D01*
X170625000Y-94284523D01*
X170672619Y-94236904D01*
X170767857Y-94189285D01*
X170863095Y-94189285D01*
X171005952Y-94236904D01*
X171577380Y-94808333D01*
X171577380Y-94189285D01*
%TO.C,K1*%
X114352380Y-60613095D02*
X113352380Y-60613095D01*
X114352380Y-60041666D02*
X113780952Y-60470238D01*
X113352380Y-60041666D02*
X113923809Y-60613095D01*
X114352380Y-59089285D02*
X114352380Y-59660714D01*
X114352380Y-59375000D02*
X113352380Y-59375000D01*
X113495238Y-59470238D01*
X113590476Y-59565476D01*
X113638095Y-59660714D01*
%TO.C,J2*%
X96557380Y-64208333D02*
X97271666Y-64208333D01*
X97414523Y-64255952D01*
X97509761Y-64351190D01*
X97557380Y-64494047D01*
X97557380Y-64589285D01*
X96652619Y-63779761D02*
X96605000Y-63732142D01*
X96557380Y-63636904D01*
X96557380Y-63398809D01*
X96605000Y-63303571D01*
X96652619Y-63255952D01*
X96747857Y-63208333D01*
X96843095Y-63208333D01*
X96985952Y-63255952D01*
X97557380Y-63827380D01*
X97557380Y-63208333D01*
%TO.C,J1*%
X128122380Y-68633333D02*
X128836666Y-68633333D01*
X128979523Y-68680952D01*
X129074761Y-68776190D01*
X129122380Y-68919047D01*
X129122380Y-69014285D01*
X129122380Y-67633333D02*
X129122380Y-68204761D01*
X129122380Y-67919047D02*
X128122380Y-67919047D01*
X128265238Y-68014285D01*
X128360476Y-68109523D01*
X128408095Y-68204761D01*
%TO.C,D1*%
X147152380Y-65113095D02*
X146152380Y-65113095D01*
X146152380Y-64875000D01*
X146200000Y-64732142D01*
X146295238Y-64636904D01*
X146390476Y-64589285D01*
X146580952Y-64541666D01*
X146723809Y-64541666D01*
X146914285Y-64589285D01*
X147009523Y-64636904D01*
X147104761Y-64732142D01*
X147152380Y-64875000D01*
X147152380Y-65113095D01*
X147152380Y-63589285D02*
X147152380Y-64160714D01*
X147152380Y-63875000D02*
X146152380Y-63875000D01*
X146295238Y-63970238D01*
X146390476Y-64065476D01*
X146438095Y-64160714D01*
%TO.C,C6*%
X161082142Y-101441666D02*
X161129761Y-101489285D01*
X161177380Y-101632142D01*
X161177380Y-101727380D01*
X161129761Y-101870238D01*
X161034523Y-101965476D01*
X160939285Y-102013095D01*
X160748809Y-102060714D01*
X160605952Y-102060714D01*
X160415476Y-102013095D01*
X160320238Y-101965476D01*
X160225000Y-101870238D01*
X160177380Y-101727380D01*
X160177380Y-101632142D01*
X160225000Y-101489285D01*
X160272619Y-101441666D01*
X160177380Y-100584523D02*
X160177380Y-100775000D01*
X160225000Y-100870238D01*
X160272619Y-100917857D01*
X160415476Y-101013095D01*
X160605952Y-101060714D01*
X160986904Y-101060714D01*
X161082142Y-101013095D01*
X161129761Y-100965476D01*
X161177380Y-100870238D01*
X161177380Y-100679761D01*
X161129761Y-100584523D01*
X161082142Y-100536904D01*
X160986904Y-100489285D01*
X160748809Y-100489285D01*
X160653571Y-100536904D01*
X160605952Y-100584523D01*
X160558333Y-100679761D01*
X160558333Y-100870238D01*
X160605952Y-100965476D01*
X160653571Y-101013095D01*
X160748809Y-101060714D01*
%TO.C,C5*%
X161082142Y-95119166D02*
X161129761Y-95166785D01*
X161177380Y-95309642D01*
X161177380Y-95404880D01*
X161129761Y-95547738D01*
X161034523Y-95642976D01*
X160939285Y-95690595D01*
X160748809Y-95738214D01*
X160605952Y-95738214D01*
X160415476Y-95690595D01*
X160320238Y-95642976D01*
X160225000Y-95547738D01*
X160177380Y-95404880D01*
X160177380Y-95309642D01*
X160225000Y-95166785D01*
X160272619Y-95119166D01*
X160177380Y-94214404D02*
X160177380Y-94690595D01*
X160653571Y-94738214D01*
X160605952Y-94690595D01*
X160558333Y-94595357D01*
X160558333Y-94357261D01*
X160605952Y-94262023D01*
X160653571Y-94214404D01*
X160748809Y-94166785D01*
X160986904Y-94166785D01*
X161082142Y-94214404D01*
X161129761Y-94262023D01*
X161177380Y-94357261D01*
X161177380Y-94595357D01*
X161129761Y-94690595D01*
X161082142Y-94738214D01*
%TD*%
M02*
